# MagicaVoxel @ Ephtracy

# group
o 

# material
mtllib aim_taget.mtl
usemtl palette

# normals
vn -1 0 0
vn 1 0 0
vn 0 0 1
vn 0 0 -1
vn 0 -1 0
vn 0 1 0

# texcoords
vt 0.0214844 0.5
vt 0.775391 0.5
vt 0.841797 0.5
vt 0.958984 0.5
vt 0.994141 0.5

# verts
v -1 -0.9 0.4
v -1 -0.9 -0.4
v -1 -0.8 0.4
v -1 -0.8 -0.4
v -0.9 -0.9 0.7
v -0.9 -0.9 0.4
v -0.9 -0.9 -0.4
v -0.9 -0.9 -0.7
v -0.9 -0.8 0.7
v -0.9 -0.8 0.4
v -0.9 -0.8 -0.4
v -0.9 -0.8 -0.7
v -0.8 -0.9 0.8
v -0.8 -0.9 0.7
v -0.8 -0.9 -0.7
v -0.8 -0.9 -0.8
v -0.8 -0.8 0.8
v -0.8 -0.8 0.7
v -0.8 -0.8 -0.7
v -0.8 -0.8 -0.8
v -0.7 -0.9 0.9
v -0.7 -0.9 0.8
v -0.7 -0.9 -0.8
v -0.7 -0.9 -0.9
v -0.7 -0.8 0.9
v -0.7 -0.8 0.8
v -0.7 -0.8 -0.8
v -0.7 -0.8 -0.9
v -0.4 -0.9 1
v -0.4 -0.9 0.9
v -0.4 -0.9 -0.9
v -0.4 -0.9 -1
v -0.4 -0.8 1
v -0.4 -0.8 0.9
v -0.4 -0.8 -0.9
v -0.4 -0.8 -1
v 0.4 -0.9 1
v 0.4 -0.9 0.9
v 0.4 -0.9 -0.9
v 0.4 -0.9 -1
v 0.4 -0.8 1
v 0.4 -0.8 0.9
v 0.4 -0.8 -0.9
v 0.4 -0.8 -1
v 0.7 -0.9 0.9
v 0.7 -0.9 0.8
v 0.7 -0.9 -0.8
v 0.7 -0.9 -0.9
v 0.7 -0.8 0.9
v 0.7 -0.8 0.8
v 0.7 -0.8 -0.8
v 0.7 -0.8 -0.9
v 0.8 -0.9 0.8
v 0.8 -0.9 0.7
v 0.8 -0.9 -0.7
v 0.8 -0.9 -0.8
v 0.8 -0.8 0.8
v 0.8 -0.8 0.7
v 0.8 -0.8 -0.7
v 0.8 -0.8 -0.8
v 0.9 -0.9 0.7
v 0.9 -0.9 0.4
v 0.9 -0.9 -0.4
v 0.9 -0.9 -0.7
v 0.9 -0.8 0.7
v 0.9 -0.8 0.4
v 0.9 -0.8 -0.4
v 0.9 -0.8 -0.7
v 1 -0.9 0.4
v 1 -0.9 -0.4
v 1 -0.8 0.4
v 1 -0.8 -0.4
v -0.4 -0.9 1
v -0.4 -0.8 1
v 0.4 -0.9 1
v 0.4 -0.8 1
v -0.7 -0.9 0.9
v -0.7 -0.8 0.9
v -0.4 -0.9 0.9
v -0.4 -0.8 0.9
v 0.4 -0.9 0.9
v 0.4 -0.8 0.9
v 0.7 -0.9 0.9
v 0.7 -0.8 0.9
v -0.8 -0.9 0.8
v -0.8 -0.8 0.8
v -0.7 -0.9 0.8
v -0.7 -0.8 0.8
v 0.7 -0.9 0.8
v 0.7 -0.8 0.8
v 0.8 -0.9 0.8
v 0.8 -0.8 0.8
v -0.9 -0.9 0.7
v -0.9 -0.8 0.7
v -0.8 -0.9 0.7
v -0.8 -0.8 0.7
v 0.8 -0.9 0.7
v 0.8 -0.8 0.7
v 0.9 -0.9 0.7
v 0.9 -0.8 0.7
v -1 -0.9 0.4
v -1 -0.8 0.4
v -0.9 -0.9 0.4
v -0.9 -0.8 0.4
v 0.9 -0.9 0.4
v 0.9 -0.8 0.4
v 1 -0.9 0.4
v 1 -0.8 0.4
v -1 -0.9 -0.4
v -1 -0.8 -0.4
v -0.9 -0.9 -0.4
v -0.9 -0.8 -0.4
v 0.9 -0.9 -0.4
v 0.9 -0.8 -0.4
v 1 -0.9 -0.4
v 1 -0.8 -0.4
v -0.9 -0.9 -0.7
v -0.9 -0.8 -0.7
v -0.8 -0.9 -0.7
v -0.8 -0.8 -0.7
v 0.8 -0.9 -0.7
v 0.8 -0.8 -0.7
v 0.9 -0.9 -0.7
v 0.9 -0.8 -0.7
v -0.8 -0.9 -0.8
v -0.8 -0.8 -0.8
v -0.7 -0.9 -0.8
v -0.7 -0.8 -0.8
v 0.7 -0.9 -0.8
v 0.7 -0.8 -0.8
v 0.8 -0.9 -0.8
v 0.8 -0.8 -0.8
v -0.7 -0.9 -0.9
v -0.7 -0.8 -0.9
v -0.4 -0.9 -0.9
v -0.4 -0.8 -0.9
v 0.4 -0.9 -0.9
v 0.4 -0.8 -0.9
v 0.7 -0.9 -0.9
v 0.7 -0.8 -0.9
v -0.4 -0.9 -1
v -0.4 -0.8 -1
v 0.4 -0.9 -1
v 0.4 -0.8 -1
v -0.4 -0.9 1
v 0.4 -0.9 1
v -0.7 -0.9 0.9
v -0.4 -0.9 0.9
v -0.3 -0.9 0.9
v 0.3 -0.9 0.9
v 0.4 -0.9 0.9
v 0.7 -0.9 0.9
v -0.8 -0.9 0.8
v -0.7 -0.9 0.8
v -0.6 -0.9 0.8
v -0.3 -0.9 0.8
v 0.3 -0.9 0.8
v 0.6 -0.9 0.8
v 0.7 -0.9 0.8
v 0.8 -0.9 0.8
v -0.9 -0.9 0.7
v -0.8 -0.9 0.7
v -0.7 -0.9 0.7
v -0.6 -0.9 0.7
v -0.2 -0.9 0.7
v 0.2 -0.9 0.7
v 0.6 -0.9 0.7
v 0.7 -0.9 0.7
v 0.8 -0.9 0.7
v 0.9 -0.9 0.7
v -0.8 -0.9 0.6
v -0.7 -0.9 0.6
v -0.5 -0.9 0.6
v -0.2 -0.9 0.6
v 0.2 -0.9 0.6
v 0.5 -0.9 0.6
v 0.7 -0.9 0.6
v 0.8 -0.9 0.6
v -0.6 -0.9 0.5
v -0.5 -0.9 0.5
v 0.5 -0.9 0.5
v 0.6 -0.9 0.5
v -1 -0.9 0.4
v -0.9 -0.9 0.4
v -0.2 -0.9 0.4
v 0.2 -0.9 0.4
v 0.9 -0.9 0.4
v 1 -0.9 0.4
v -0.9 -0.9 0.3
v -0.8 -0.9 0.3
v -0.3 -0.9 0.3
v -0.2 -0.9 0.3
v 0.2 -0.9 0.3
v 0.3 -0.9 0.3
v 0.8 -0.9 0.3
v 0.9 -0.9 0.3
v -0.7 -0.9 0.2
v -0.6 -0.9 0.2
v -0.4 -0.9 0.2
v -0.3 -0.9 0.2
v 0.3 -0.9 0.2
v 0.4 -0.9 0.2
v 0.6 -0.9 0.2
v 0.7 -0.9 0.2
v -0.1 -0.9 0.1
v 0.1 -0.9 0.1
v -0.1 -0.9 -0.1
v 0.1 -0.9 -0.1
v -0.7 -0.9 -0.2
v -0.6 -0.9 -0.2
v -0.4 -0.9 -0.2
v -0.3 -0.9 -0.2
v 0.3 -0.9 -0.2
v 0.4 -0.9 -0.2
v 0.6 -0.9 -0.2
v 0.7 -0.9 -0.2
v -0.9 -0.9 -0.3
v -0.8 -0.9 -0.3
v -0.3 -0.9 -0.3
v -0.2 -0.9 -0.3
v 0.2 -0.9 -0.3
v 0.3 -0.9 -0.3
v 0.8 -0.9 -0.3
v 0.9 -0.9 -0.3
v -1 -0.9 -0.4
v -0.9 -0.9 -0.4
v -0.2 -0.9 -0.4
v 0.2 -0.9 -0.4
v 0.9 -0.9 -0.4
v 1 -0.9 -0.4
v -0.6 -0.9 -0.5
v -0.5 -0.9 -0.5
v 0.5 -0.9 -0.5
v 0.6 -0.9 -0.5
v -0.8 -0.9 -0.6
v -0.7 -0.9 -0.6
v -0.5 -0.9 -0.6
v -0.2 -0.9 -0.6
v 0.2 -0.9 -0.6
v 0.5 -0.9 -0.6
v 0.7 -0.9 -0.6
v 0.8 -0.9 -0.6
v -0.9 -0.9 -0.7
v -0.8 -0.9 -0.7
v -0.7 -0.9 -0.7
v -0.6 -0.9 -0.7
v -0.2 -0.9 -0.7
v 0.2 -0.9 -0.7
v 0.6 -0.9 -0.7
v 0.7 -0.9 -0.7
v 0.8 -0.9 -0.7
v 0.9 -0.9 -0.7
v -0.8 -0.9 -0.8
v -0.7 -0.9 -0.8
v -0.6 -0.9 -0.8
v -0.3 -0.9 -0.8
v 0.3 -0.9 -0.8
v 0.6 -0.9 -0.8
v 0.7 -0.9 -0.8
v 0.8 -0.9 -0.8
v -0.7 -0.9 -0.9
v -0.4 -0.9 -0.9
v -0.3 -0.9 -0.9
v 0.3 -0.9 -0.9
v 0.4 -0.9 -0.9
v 0.7 -0.9 -0.9
v -0.4 -0.9 -1
v 0.4 -0.9 -1
v -0.4 -0.8 1
v 0.4 -0.8 1
v -0.7 -0.8 0.9
v -0.4 -0.8 0.9
v -0.3 -0.8 0.9
v 0.3 -0.8 0.9
v 0.4 -0.8 0.9
v 0.7 -0.8 0.9
v -0.8 -0.8 0.8
v -0.7 -0.8 0.8
v -0.6 -0.8 0.8
v -0.3 -0.8 0.8
v 0.3 -0.8 0.8
v 0.6 -0.8 0.8
v 0.7 -0.8 0.8
v 0.8 -0.8 0.8
v -0.9 -0.8 0.7
v -0.8 -0.8 0.7
v -0.7 -0.8 0.7
v -0.6 -0.8 0.7
v -0.2 -0.8 0.7
v 0.2 -0.8 0.7
v 0.6 -0.8 0.7
v 0.7 -0.8 0.7
v 0.8 -0.8 0.7
v 0.9 -0.8 0.7
v -0.8 -0.8 0.6
v -0.7 -0.8 0.6
v -0.5 -0.8 0.6
v -0.2 -0.8 0.6
v 0.2 -0.8 0.6
v 0.5 -0.8 0.6
v 0.7 -0.8 0.6
v 0.8 -0.8 0.6
v -0.6 -0.8 0.5
v -0.5 -0.8 0.5
v 0.5 -0.8 0.5
v 0.6 -0.8 0.5
v -1 -0.8 0.4
v -0.9 -0.8 0.4
v -0.2 -0.8 0.4
v 0.2 -0.8 0.4
v 0.9 -0.8 0.4
v 1 -0.8 0.4
v -0.9 -0.8 0.3
v -0.8 -0.8 0.3
v -0.3 -0.8 0.3
v -0.2 -0.8 0.3
v 0.2 -0.8 0.3
v 0.3 -0.8 0.3
v 0.8 -0.8 0.3
v 0.9 -0.8 0.3
v -0.7 -0.8 0.2
v -0.6 -0.8 0.2
v -0.4 -0.8 0.2
v -0.3 -0.8 0.2
v 0.3 -0.8 0.2
v 0.4 -0.8 0.2
v 0.6 -0.8 0.2
v 0.7 -0.8 0.2
v -0.1 -0.8 0.1
v 0.1 -0.8 0.1
v -0.1 -0.8 -0.1
v 0.1 -0.8 -0.1
v -0.7 -0.8 -0.2
v -0.6 -0.8 -0.2
v -0.4 -0.8 -0.2
v -0.3 -0.8 -0.2
v 0.3 -0.8 -0.2
v 0.4 -0.8 -0.2
v 0.6 -0.8 -0.2
v 0.7 -0.8 -0.2
v -0.9 -0.8 -0.3
v -0.8 -0.8 -0.3
v -0.3 -0.8 -0.3
v -0.2 -0.8 -0.3
v 0.2 -0.8 -0.3
v 0.3 -0.8 -0.3
v 0.8 -0.8 -0.3
v 0.9 -0.8 -0.3
v -1 -0.8 -0.4
v -0.9 -0.8 -0.4
v -0.2 -0.8 -0.4
v 0.2 -0.8 -0.4
v 0.9 -0.8 -0.4
v 1 -0.8 -0.4
v -0.6 -0.8 -0.5
v -0.5 -0.8 -0.5
v 0.5 -0.8 -0.5
v 0.6 -0.8 -0.5
v -0.8 -0.8 -0.6
v -0.7 -0.8 -0.6
v -0.5 -0.8 -0.6
v -0.2 -0.8 -0.6
v 0.2 -0.8 -0.6
v 0.5 -0.8 -0.6
v 0.7 -0.8 -0.6
v 0.8 -0.8 -0.6
v -0.9 -0.8 -0.7
v -0.8 -0.8 -0.7
v -0.7 -0.8 -0.7
v -0.6 -0.8 -0.7
v -0.2 -0.8 -0.7
v 0.2 -0.8 -0.7
v 0.6 -0.8 -0.7
v 0.7 -0.8 -0.7
v 0.8 -0.8 -0.7
v 0.9 -0.8 -0.7
v -0.8 -0.8 -0.8
v -0.7 -0.8 -0.8
v -0.6 -0.8 -0.8
v -0.3 -0.8 -0.8
v 0.3 -0.8 -0.8
v 0.6 -0.8 -0.8
v 0.7 -0.8 -0.8
v 0.8 -0.8 -0.8
v -0.7 -0.8 -0.9
v -0.4 -0.8 -0.9
v -0.3 -0.8 -0.9
v 0.3 -0.8 -0.9
v 0.4 -0.8 -0.9
v 0.7 -0.8 -0.9
v -0.4 -0.8 -1
v 0.4 -0.8 -1

# faces
f 3/4/1 2/4/1 1/4/1
f 4/4/1 2/4/1 3/4/1
f 9/4/1 6/4/1 5/4/1
f 10/4/1 6/4/1 9/4/1
f 11/4/1 8/4/1 7/4/1
f 12/4/1 8/4/1 11/4/1
f 17/4/1 14/4/1 13/4/1
f 18/4/1 14/4/1 17/4/1
f 19/4/1 16/4/1 15/4/1
f 20/4/1 16/4/1 19/4/1
f 25/4/1 22/4/1 21/4/1
f 26/4/1 22/4/1 25/4/1
f 27/4/1 24/4/1 23/4/1
f 28/4/1 24/4/1 27/4/1
f 33/4/1 30/4/1 29/4/1
f 34/4/1 30/4/1 33/4/1
f 35/4/1 32/4/1 31/4/1
f 36/4/1 32/4/1 35/4/1
f 37/4/2 38/4/2 41/4/2
f 41/4/2 38/4/2 42/4/2
f 39/4/2 40/4/2 43/4/2
f 43/4/2 40/4/2 44/4/2
f 45/4/2 46/4/2 49/4/2
f 49/4/2 46/4/2 50/4/2
f 47/4/2 48/4/2 51/4/2
f 51/4/2 48/4/2 52/4/2
f 53/4/2 54/4/2 57/4/2
f 57/4/2 54/4/2 58/4/2
f 55/4/2 56/4/2 59/4/2
f 59/4/2 56/4/2 60/4/2
f 61/4/2 62/4/2 65/4/2
f 65/4/2 62/4/2 66/4/2
f 63/4/2 64/4/2 67/4/2
f 67/4/2 64/4/2 68/4/2
f 69/4/2 70/4/2 71/4/2
f 71/4/2 70/4/2 72/4/2
f 75/4/3 74/4/3 73/4/3
f 76/4/3 74/4/3 75/4/3
f 79/4/3 78/4/3 77/4/3
f 80/4/3 78/4/3 79/4/3
f 83/4/3 82/4/3 81/4/3
f 84/4/3 82/4/3 83/4/3
f 87/4/3 86/4/3 85/4/3
f 88/4/3 86/4/3 87/4/3
f 91/4/3 90/4/3 89/4/3
f 92/4/3 90/4/3 91/4/3
f 95/4/3 94/4/3 93/4/3
f 96/4/3 94/4/3 95/4/3
f 99/4/3 98/4/3 97/4/3
f 100/4/3 98/4/3 99/4/3
f 103/4/3 102/4/3 101/4/3
f 104/4/3 102/4/3 103/4/3
f 107/4/3 106/4/3 105/4/3
f 108/4/3 106/4/3 107/4/3
f 109/4/4 110/4/4 111/4/4
f 111/4/4 110/4/4 112/4/4
f 113/4/4 114/4/4 115/4/4
f 115/4/4 114/4/4 116/4/4
f 117/4/4 118/4/4 119/4/4
f 119/4/4 118/4/4 120/4/4
f 121/4/4 122/4/4 123/4/4
f 123/4/4 122/4/4 124/4/4
f 125/4/4 126/4/4 127/4/4
f 127/4/4 126/4/4 128/4/4
f 129/4/4 130/4/4 131/4/4
f 131/4/4 130/4/4 132/4/4
f 133/4/4 134/4/4 135/4/4
f 135/4/4 134/4/4 136/4/4
f 137/4/4 138/4/4 139/4/4
f 139/4/4 138/4/4 140/4/4
f 141/4/4 142/4/4 143/4/4
f 143/4/4 142/4/4 144/4/4
f 148/4/5 146/4/5 145/4/5
f 149/4/5 146/4/5 148/4/5
f 150/4/5 146/4/5 149/4/5
f 151/4/5 146/4/5 150/4/5
f 154/4/5 148/4/5 147/4/5
f 154/4/5 149/4/5 148/4/5
f 155/4/5 149/4/5 154/4/5
f 156/2/5 150/2/5 149/2/5
f 156/4/5 149/4/5 155/4/5
f 157/4/5 152/4/5 151/4/5
f 157/2/5 150/2/5 156/2/5
f 157/4/5 151/4/5 150/4/5
f 158/4/5 152/4/5 157/4/5
f 159/4/5 152/4/5 158/4/5
f 162/4/5 154/4/5 153/4/5
f 162/4/5 155/4/5 154/4/5
f 163/4/5 155/4/5 162/4/5
f 164/2/5 156/2/5 155/2/5
f 164/4/5 155/4/5 163/4/5
f 164/2/5 157/2/5 156/2/5
f 164/2/5 158/2/5 157/2/5
f 165/2/5 158/2/5 164/2/5
f 166/2/5 158/2/5 165/2/5
f 167/4/5 160/4/5 159/4/5
f 167/2/5 158/2/5 166/2/5
f 167/4/5 159/4/5 158/4/5
f 168/4/5 160/4/5 167/4/5
f 169/4/5 160/4/5 168/4/5
f 171/4/5 163/4/5 162/4/5
f 171/4/5 162/4/5 161/4/5
f 172/2/5 165/2/5 164/2/5
f 172/4/5 163/4/5 171/4/5
f 172/2/5 164/2/5 163/2/5
f 173/2/5 165/2/5 172/2/5
f 174/3/5 166/3/5 165/3/5
f 174/2/5 165/2/5 173/2/5
f 175/2/5 168/2/5 167/2/5
f 175/3/5 166/3/5 174/3/5
f 175/2/5 167/2/5 166/2/5
f 176/2/5 168/2/5 175/2/5
f 177/4/5 170/4/5 169/4/5
f 177/2/5 168/2/5 176/2/5
f 177/4/5 169/4/5 168/4/5
f 178/4/5 170/4/5 177/4/5
f 179/2/5 173/2/5 172/2/5
f 179/2/5 172/2/5 171/2/5
f 180/3/5 176/3/5 175/3/5
f 180/2/5 173/2/5 179/2/5
f 180/3/5 175/3/5 174/3/5
f 180/3/5 174/3/5 173/3/5
f 181/2/5 177/2/5 176/2/5
f 181/3/5 176/3/5 180/3/5
f 181/2/5 178/2/5 177/2/5
f 182/2/5 178/2/5 181/2/5
f 184/4/5 171/4/5 161/4/5
f 185/3/5 180/3/5 179/3/5
f 185/3/5 181/3/5 180/3/5
f 185/3/5 182/3/5 181/3/5
f 186/3/5 182/3/5 185/3/5
f 187/4/5 170/4/5 178/4/5
f 189/4/5 184/4/5 183/4/5
f 189/4/5 171/4/5 184/4/5
f 190/2/5 179/2/5 171/2/5
f 190/4/5 171/4/5 189/4/5
f 191/3/5 185/3/5 179/3/5
f 192/1/5 186/1/5 185/1/5
f 192/3/5 185/3/5 191/3/5
f 193/3/5 182/3/5 186/3/5
f 193/1/5 186/1/5 192/1/5
f 194/3/5 182/3/5 193/3/5
f 195/2/5 178/2/5 182/2/5
f 195/4/5 188/4/5 187/4/5
f 195/4/5 187/4/5 178/4/5
f 196/4/5 188/4/5 195/4/5
f 197/2/5 179/2/5 190/2/5
f 197/2/5 190/2/5 189/2/5
f 198/3/5 191/3/5 179/3/5
f 198/2/5 179/2/5 197/2/5
f 199/3/5 191/3/5 198/3/5
f 200/1/5 192/1/5 191/1/5
f 200/3/5 191/3/5 199/3/5
f 200/1/5 194/1/5 193/1/5
f 200/1/5 193/1/5 192/1/5
f 201/3/5 182/3/5 194/3/5
f 201/1/5 194/1/5 200/1/5
f 202/3/5 182/3/5 201/3/5
f 203/2/5 195/2/5 182/2/5
f 203/3/5 182/3/5 202/3/5
f 203/2/5 196/2/5 195/2/5
f 204/2/5 196/2/5 203/2/5
f 205/1/5 200/1/5 199/1/5
f 205/1/5 202/1/5 201/1/5
f 205/1/5 201/1/5 200/1/5
f 206/1/5 202/1/5 205/1/5
f 207/1/5 205/1/5 199/1/5
f 207/5/5 206/5/5 205/5/5
f 208/1/5 202/1/5 206/1/5
f 208/5/5 206/5/5 207/5/5
f 209/3/5 199/3/5 198/3/5
f 209/3/5 198/3/5 197/3/5
f 209/2/5 197/2/5 189/2/5
f 210/3/5 199/3/5 209/3/5
f 211/1/5 208/1/5 207/1/5
f 211/3/5 199/3/5 210/3/5
f 211/1/5 207/1/5 199/1/5
f 212/1/5 208/1/5 211/1/5
f 213/1/5 202/1/5 208/1/5
f 213/1/5 208/1/5 212/1/5
f 214/3/5 204/3/5 203/3/5
f 214/1/5 202/1/5 213/1/5
f 214/3/5 203/3/5 202/3/5
f 215/3/5 204/3/5 214/3/5
f 216/2/5 196/2/5 204/2/5
f 216/3/5 204/3/5 215/3/5
f 217/4/5 189/4/5 183/4/5
f 217/2/5 210/2/5 209/2/5
f 217/2/5 209/2/5 189/2/5
f 218/2/5 210/2/5 217/2/5
f 219/3/5 212/3/5 211/3/5
f 219/1/5 213/1/5 212/1/5
f 219/3/5 211/3/5 210/3/5
f 220/1/5 213/1/5 219/1/5
f 221/1/5 213/1/5 220/1/5
f 222/3/5 215/3/5 214/3/5
f 222/1/5 213/1/5 221/1/5
f 222/3/5 214/3/5 213/3/5
f 223/2/5 196/2/5 216/2/5
f 223/2/5 216/2/5 215/2/5
f 224/4/5 188/4/5 196/4/5
f 224/2/5 196/2/5 223/2/5
f 225/4/5 218/4/5 217/4/5
f 225/4/5 217/4/5 183/4/5
f 226/4/5 218/4/5 225/4/5
f 227/1/5 221/1/5 220/1/5
f 227/3/5 220/3/5 219/3/5
f 228/3/5 222/3/5 221/3/5
f 228/1/5 221/1/5 227/1/5
f 229/4/5 188/4/5 224/4/5
f 229/4/5 224/4/5 223/4/5
f 230/4/5 188/4/5 229/4/5
f 231/2/5 210/2/5 218/2/5
f 231/3/5 227/3/5 219/3/5
f 231/3/5 228/3/5 227/3/5
f 231/3/5 219/3/5 210/3/5
f 232/3/5 228/3/5 231/3/5
f 233/3/5 215/3/5 222/3/5
f 233/3/5 228/3/5 232/3/5
f 233/3/5 222/3/5 228/3/5
f 234/2/5 223/2/5 215/2/5
f 234/3/5 215/3/5 233/3/5
f 235/2/5 232/2/5 231/2/5
f 235/4/5 218/4/5 226/4/5
f 235/2/5 231/2/5 218/2/5
f 236/2/5 232/2/5 235/2/5
f 237/3/5 233/3/5 232/3/5
f 237/2/5 232/2/5 236/2/5
f 238/3/5 233/3/5 237/3/5
f 239/3/5 233/3/5 238/3/5
f 240/2/5 234/2/5 233/2/5
f 240/3/5 233/3/5 239/3/5
f 241/2/5 223/2/5 234/2/5
f 241/2/5 234/2/5 240/2/5
f 242/4/5 229/4/5 223/4/5
f 242/2/5 223/2/5 241/2/5
f 243/4/5 236/4/5 235/4/5
f 243/4/5 235/4/5 226/4/5
f 244/4/5 236/4/5 243/4/5
f 245/2/5 237/2/5 236/2/5
f 245/4/5 236/4/5 244/4/5
f 245/2/5 238/2/5 237/2/5
f 246/2/5 238/2/5 245/2/5
f 247/3/5 239/3/5 238/3/5
f 247/2/5 238/2/5 246/2/5
f 248/2/5 240/2/5 239/2/5
f 248/3/5 239/3/5 247/3/5
f 248/2/5 241/2/5 240/2/5
f 249/2/5 241/2/5 248/2/5
f 250/4/5 242/4/5 241/4/5
f 250/2/5 241/2/5 249/2/5
f 251/4/5 229/4/5 242/4/5
f 251/4/5 242/4/5 250/4/5
f 252/4/5 229/4/5 251/4/5
f 253/4/5 246/4/5 245/4/5
f 253/4/5 245/4/5 244/4/5
f 254/4/5 246/4/5 253/4/5
f 255/2/5 247/2/5 246/2/5
f 255/4/5 246/4/5 254/4/5
f 255/2/5 249/2/5 248/2/5
f 255/2/5 248/2/5 247/2/5
f 256/2/5 249/2/5 255/2/5
f 257/2/5 249/2/5 256/2/5
f 258/4/5 251/4/5 250/4/5
f 258/2/5 249/2/5 257/2/5
f 258/4/5 250/4/5 249/4/5
f 259/4/5 251/4/5 258/4/5
f 260/4/5 251/4/5 259/4/5
f 261/4/5 256/4/5 255/4/5
f 261/4/5 255/4/5 254/4/5
f 262/4/5 256/4/5 261/4/5
f 263/2/5 257/2/5 256/2/5
f 263/4/5 256/4/5 262/4/5
f 264/4/5 259/4/5 258/4/5
f 264/2/5 257/2/5 263/2/5
f 264/4/5 258/4/5 257/4/5
f 265/4/5 259/4/5 264/4/5
f 266/4/5 259/4/5 265/4/5
f 267/4/5 263/4/5 262/4/5
f 267/4/5 265/4/5 264/4/5
f 267/4/5 264/4/5 263/4/5
f 268/4/5 265/4/5 267/4/5
f 269/4/6 270/4/6 272/4/6
f 272/4/6 270/4/6 273/4/6
f 273/4/6 270/4/6 274/4/6
f 274/4/6 270/4/6 275/4/6
f 271/4/6 272/4/6 278/4/6
f 272/4/6 273/4/6 278/4/6
f 278/4/6 273/4/6 279/4/6
f 273/2/6 274/2/6 280/2/6
f 279/4/6 273/4/6 280/4/6
f 275/4/6 276/4/6 281/4/6
f 280/2/6 274/2/6 281/2/6
f 274/4/6 275/4/6 281/4/6
f 281/4/6 276/4/6 282/4/6
f 282/4/6 276/4/6 283/4/6
f 277/4/6 278/4/6 286/4/6
f 278/4/6 279/4/6 286/4/6
f 286/4/6 279/4/6 287/4/6
f 279/2/6 280/2/6 288/2/6
f 287/4/6 279/4/6 288/4/6
f 280/2/6 281/2/6 288/2/6
f 281/2/6 282/2/6 288/2/6
f 288/2/6 282/2/6 289/2/6
f 289/2/6 282/2/6 290/2/6
f 283/4/6 284/4/6 291/4/6
f 290/2/6 282/2/6 291/2/6
f 282/4/6 283/4/6 291/4/6
f 291/4/6 284/4/6 292/4/6
f 292/4/6 284/4/6 293/4/6
f 286/4/6 287/4/6 295/4/6
f 285/4/6 286/4/6 295/4/6
f 288/2/6 289/2/6 296/2/6
f 295/4/6 287/4/6 296/4/6
f 287/2/6 288/2/6 296/2/6
f 296/2/6 289/2/6 297/2/6
f 289/3/6 290/3/6 298/3/6
f 297/2/6 289/2/6 298/2/6
f 291/2/6 292/2/6 299/2/6
f 298/3/6 290/3/6 299/3/6
f 290/2/6 291/2/6 299/2/6
f 299/2/6 292/2/6 300/2/6
f 293/4/6 294/4/6 301/4/6
f 300/2/6 292/2/6 301/2/6
f 292/4/6 293/4/6 301/4/6
f 301/4/6 294/4/6 302/4/6
f 296/2/6 297/2/6 303/2/6
f 295/2/6 296/2/6 303/2/6
f 299/3/6 300/3/6 304/3/6
f 303/2/6 297/2/6 304/2/6
f 298/3/6 299/3/6 304/3/6
f 297/3/6 298/3/6 304/3/6
f 300/2/6 301/2/6 305/2/6
f 304/3/6 300/3/6 305/3/6
f 301/2/6 302/2/6 305/2/6
f 305/2/6 302/2/6 306/2/6
f 285/4/6 295/4/6 308/4/6
f 303/3/6 304/3/6 309/3/6
f 304/3/6 305/3/6 309/3/6
f 305/3/6 306/3/6 309/3/6
f 309/3/6 306/3/6 310/3/6
f 302/4/6 294/4/6 311/4/6
f 307/4/6 308/4/6 313/4/6
f 308/4/6 295/4/6 313/4/6
f 295/2/6 303/2/6 314/2/6
f 313/4/6 295/4/6 314/4/6
f 303/3/6 309/3/6 315/3/6
f 309/1/6 310/1/6 316/1/6
f 315/3/6 309/3/6 316/3/6
f 310/3/6 306/3/6 317/3/6
f 316/1/6 310/1/6 317/1/6
f 317/3/6 306/3/6 318/3/6
f 306/2/6 302/2/6 319/2/6
f 311/4/6 312/4/6 319/4/6
f 302/4/6 311/4/6 319/4/6
f 319/4/6 312/4/6 320/4/6
f 314/2/6 303/2/6 321/2/6
f 313/2/6 314/2/6 321/2/6
f 303/3/6 315/3/6 322/3/6
f 321/2/6 303/2/6 322/2/6
f 322/3/6 315/3/6 323/3/6
f 315/1/6 316/1/6 324/1/6
f 323/3/6 315/3/6 324/3/6
f 317/1/6 318/1/6 324/1/6
f 316/1/6 317/1/6 324/1/6
f 318/3/6 306/3/6 325/3/6
f 324/1/6 318/1/6 325/1/6
f 325/3/6 306/3/6 326/3/6
f 306/2/6 319/2/6 327/2/6
f 326/3/6 306/3/6 327/3/6
f 319/2/6 320/2/6 327/2/6
f 327/2/6 320/2/6 328/2/6
f 323/1/6 324/1/6 329/1/6
f 325/1/6 326/1/6 329/1/6
f 324/1/6 325/1/6 329/1/6
f 329/1/6 326/1/6 330/1/6
f 323/1/6 329/1/6 331/1/6
f 329/5/6 330/5/6 331/5/6
f 330/1/6 326/1/6 332/1/6
f 331/5/6 330/5/6 332/5/6
f 322/3/6 323/3/6 333/3/6
f 321/3/6 322/3/6 333/3/6
f 313/2/6 321/2/6 333/2/6
f 333/3/6 323/3/6 334/3/6
f 331/1/6 332/1/6 335/1/6
f 334/3/6 323/3/6 335/3/6
f 323/1/6 331/1/6 335/1/6
f 335/1/6 332/1/6 336/1/6
f 332/1/6 326/1/6 337/1/6
f 336/1/6 332/1/6 337/1/6
f 327/3/6 328/3/6 338/3/6
f 337/1/6 326/1/6 338/1/6
f 326/3/6 327/3/6 338/3/6
f 338/3/6 328/3/6 339/3/6
f 328/2/6 320/2/6 340/2/6
f 339/3/6 328/3/6 340/3/6
f 307/4/6 313/4/6 341/4/6
f 333/2/6 334/2/6 341/2/6
f 313/2/6 333/2/6 341/2/6
f 341/2/6 334/2/6 342/2/6
f 335/3/6 336/3/6 343/3/6
f 336/1/6 337/1/6 343/1/6
f 334/3/6 335/3/6 343/3/6
f 343/1/6 337/1/6 344/1/6
f 344/1/6 337/1/6 345/1/6
f 338/3/6 339/3/6 346/3/6
f 345/1/6 337/1/6 346/1/6
f 337/3/6 338/3/6 346/3/6
f 340/2/6 320/2/6 347/2/6
f 339/2/6 340/2/6 347/2/6
f 320/4/6 312/4/6 348/4/6
f 347/2/6 320/2/6 348/2/6
f 341/4/6 342/4/6 349/4/6
f 307/4/6 341/4/6 349/4/6
f 349/4/6 342/4/6 350/4/6
f 344/1/6 345/1/6 351/1/6
f 343/3/6 344/3/6 351/3/6
f 345/3/6 346/3/6 352/3/6
f 351/1/6 345/1/6 352/1/6
f 348/4/6 312/4/6 353/4/6
f 347/4/6 348/4/6 353/4/6
f 353/4/6 312/4/6 354/4/6
f 342/2/6 334/2/6 355/2/6
f 343/3/6 351/3/6 355/3/6
f 351/3/6 352/3/6 355/3/6
f 334/3/6 343/3/6 355/3/6
f 355/3/6 352/3/6 356/3/6
f 346/3/6 339/3/6 357/3/6
f 356/3/6 352/3/6 357/3/6
f 352/3/6 346/3/6 357/3/6
f 339/2/6 347/2/6 358/2/6
f 357/3/6 339/3/6 358/3/6
f 355/2/6 356/2/6 359/2/6
f 350/4/6 342/4/6 359/4/6
f 342/2/6 355/2/6 359/2/6
f 359/2/6 356/2/6 360/2/6
f 356/3/6 357/3/6 361/3/6
f 360/2/6 356/2/6 361/2/6
f 361/3/6 357/3/6 362/3/6
f 362/3/6 357/3/6 363/3/6
f 357/2/6 358/2/6 364/2/6
f 363/3/6 357/3/6 364/3/6
f 358/2/6 347/2/6 365/2/6
f 364/2/6 358/2/6 365/2/6
f 347/4/6 353/4/6 366/4/6
f 365/2/6 347/2/6 366/2/6
f 359/4/6 360/4/6 367/4/6
f 350/4/6 359/4/6 367/4/6
f 367/4/6 360/4/6 368/4/6
f 360/2/6 361/2/6 369/2/6
f 368/4/6 360/4/6 369/4/6
f 361/2/6 362/2/6 369/2/6
f 369/2/6 362/2/6 370/2/6
f 362/3/6 363/3/6 371/3/6
f 370/2/6 362/2/6 371/2/6
f 363/2/6 364/2/6 372/2/6
f 371/3/6 363/3/6 372/3/6
f 364/2/6 365/2/6 372/2/6
f 372/2/6 365/2/6 373/2/6
f 365/4/6 366/4/6 374/4/6
f 373/2/6 365/2/6 374/2/6
f 366/4/6 353/4/6 375/4/6
f 374/4/6 366/4/6 375/4/6
f 375/4/6 353/4/6 376/4/6
f 369/4/6 370/4/6 377/4/6
f 368/4/6 369/4/6 377/4/6
f 377/4/6 370/4/6 378/4/6
f 370/2/6 371/2/6 379/2/6
f 378/4/6 370/4/6 379/4/6
f 372/2/6 373/2/6 379/2/6
f 371/2/6 372/2/6 379/2/6
f 379/2/6 373/2/6 380/2/6
f 380/2/6 373/2/6 381/2/6
f 374/4/6 375/4/6 382/4/6
f 381/2/6 373/2/6 382/2/6
f 373/4/6 374/4/6 382/4/6
f 382/4/6 375/4/6 383/4/6
f 383/4/6 375/4/6 384/4/6
f 379/4/6 380/4/6 385/4/6
f 378/4/6 379/4/6 385/4/6
f 385/4/6 380/4/6 386/4/6
f 380/2/6 381/2/6 387/2/6
f 386/4/6 380/4/6 387/4/6
f 382/4/6 383/4/6 388/4/6
f 387/2/6 381/2/6 388/2/6
f 381/4/6 382/4/6 388/4/6
f 388/4/6 383/4/6 389/4/6
f 389/4/6 383/4/6 390/4/6
f 386/4/6 387/4/6 391/4/6
f 388/4/6 389/4/6 391/4/6
f 387/4/6 388/4/6 391/4/6
f 391/4/6 389/4/6 392/4/6
