# MagicaVoxel @ Ephtracy

# group
o 

# material
mtllib knife.mtl
usemtl palette

# normals
vn -1 0 0
vn 1 0 0
vn 0 0 1
vn 0 0 -1
vn 0 -1 0
vn 0 1 0

# texcoords
vt 0.970703 0.5
vt 0.978516 0.5
vt 0.986328 0.5
vt 0.990234 0.5

# verts
v -0.3 0.8 0.2
v -0.3 0.8 -0.2
v -0.3 0.9 0.2
v -0.3 0.9 -0.2
v -0.2 0 0.1
v -0.2 0 -0.3
v -0.2 0.1 0
v -0.2 0.1 -0.1
v -0.2 0.1 -0.2
v -0.2 0.1 -0.3
v -0.2 0.6 0
v -0.2 0.6 -0.1
v -0.2 0.7 0.2
v -0.2 0.7 0.1
v -0.2 0.7 0
v -0.2 0.7 -0.1
v -0.2 0.8 0.3
v -0.2 0.8 0.2
v -0.2 0.8 0.1
v -0.2 0.8 -0.1
v -0.2 0.8 -0.2
v -0.2 0.8 -0.3
v -0.2 0.9 0.3
v -0.2 0.9 0.2
v -0.2 0.9 -0.2
v -0.2 0.9 -0.3
v -0.1 0.9 0.2
v -0.1 0.9 0.1
v -0.1 0.9 -0.1
v -0.1 0.9 -0.2
v -0.1 1 0.2
v -0.1 1 0.1
v -0.1 1.1 0.2
v -0.1 1.1 0.1
v -0.1 1.2 0.2
v -0.1 1.2 0.1
v -0.1 1.3 0.2
v -0.1 1.3 0.1
v -0.1 1.4 0.2
v -0.1 1.4 0.1
v -0.1 1.5 0.2
v -0.1 1.5 0.1
v -0.1 1.8 0
v -0.1 1.8 -0.1
v -0.1 1.8 -0.2
v -0.1 2.1 0.1
v -0.1 2.1 0
v -0.1 2.1 -0.1
v -0.1 2.3 0.1
v -0.1 2.3 0
v -0.1 2.4 0.2
v -0.1 2.4 0.1
v 0 0.9 0.2
v 0 0.9 0.1
v 0 0.9 -0.1
v 0 0.9 -0.2
v 0 1 0.2
v 0 1 0.1
v 0 1.1 0.2
v 0 1.1 0.1
v 0 1.2 0.2
v 0 1.2 0.1
v 0 1.3 0.2
v 0 1.3 0.1
v 0 1.4 0.2
v 0 1.4 0.1
v 0 1.5 0.2
v 0 1.5 0.1
v 0 1.8 0
v 0 1.8 -0.1
v 0 1.8 -0.2
v 0 2.1 0.1
v 0 2.1 0
v 0 2.1 -0.1
v 0 2.3 0.1
v 0 2.3 0
v 0 2.4 0.2
v 0 2.4 0.1
v 0.1 0 0.1
v 0.1 0 -0.3
v 0.1 0.1 0
v 0.1 0.1 -0.1
v 0.1 0.1 -0.2
v 0.1 0.1 -0.3
v 0.1 0.6 0
v 0.1 0.6 -0.1
v 0.1 0.7 0.2
v 0.1 0.7 0.1
v 0.1 0.7 0
v 0.1 0.7 -0.1
v 0.1 0.8 0.3
v 0.1 0.8 0.2
v 0.1 0.8 0.1
v 0.1 0.8 -0.1
v 0.1 0.8 -0.2
v 0.1 0.8 -0.3
v 0.1 0.9 0.3
v 0.1 0.9 0.2
v 0.1 0.9 -0.2
v 0.1 0.9 -0.3
v 0.2 0.8 0.2
v 0.2 0.8 -0.2
v 0.2 0.9 0.2
v 0.2 0.9 -0.2
v -0.2 0.8 0.3
v -0.2 0.9 0.3
v 0.1 0.8 0.3
v 0.1 0.9 0.3
v -0.3 0.8 0.2
v -0.3 0.9 0.2
v -0.2 0.7 0.2
v -0.2 0.8 0.2
v -0.2 0.9 0.2
v -0.1 0.7 0.2
v -0.1 0.8 0.2
v -0.1 0.9 0.2
v -0.1 1 0.2
v -0.1 1.1 0.2
v -0.1 1.2 0.2
v -0.1 1.3 0.2
v -0.1 1.4 0.2
v -0.1 1.5 0.2
v -0.1 2.4 0.2
v 0 0.7 0.2
v 0 0.8 0.2
v 0 0.9 0.2
v 0 1 0.2
v 0 1.1 0.2
v 0 1.2 0.2
v 0 1.3 0.2
v 0 1.4 0.2
v 0 1.5 0.2
v 0 2.4 0.2
v 0.1 0.7 0.2
v 0.1 0.8 0.2
v 0.1 0.9 0.2
v 0.2 0.8 0.2
v 0.2 0.9 0.2
v -0.2 0 0.1
v -0.2 0.7 0.1
v -0.1 0.1 0.1
v -0.1 0.7 0.1
v -0.1 1 0.1
v -0.1 1.1 0.1
v -0.1 1.2 0.1
v -0.1 1.3 0.1
v -0.1 1.4 0.1
v -0.1 1.5 0.1
v 0 0.1 0.1
v 0 0.7 0.1
v 0 1 0.1
v 0 1.1 0.1
v 0 1.2 0.1
v 0 1.3 0.1
v 0 1.4 0.1
v 0 1.5 0.1
v 0.1 0 0.1
v 0.1 0.7 0.1
v -0.1 2.3 0.1
v -0.1 2.4 0.1
v 0 2.3 0.1
v 0 2.4 0.1
v -0.1 2.1 0
v -0.1 2.3 0
v 0 2.1 0
v 0 2.3 0
v -0.1 1.8 -0.1
v -0.1 2.1 -0.1
v 0 1.8 -0.1
v 0 2.1 -0.1
v -0.3 0.8 -0.2
v -0.3 0.9 -0.2
v -0.2 0.1 -0.2
v -0.2 0.8 -0.2
v -0.2 0.9 -0.2
v -0.1 0.1 -0.2
v -0.1 0.8 -0.2
v -0.1 0.9 -0.2
v -0.1 1.8 -0.2
v 0 0.1 -0.2
v 0 0.8 -0.2
v 0 0.9 -0.2
v 0 1.8 -0.2
v 0.1 0.1 -0.2
v 0.1 0.8 -0.2
v 0.1 0.9 -0.2
v 0.2 0.8 -0.2
v 0.2 0.9 -0.2
v -0.2 0 -0.3
v -0.2 0.1 -0.3
v -0.2 0.8 -0.3
v -0.2 0.9 -0.3
v 0.1 0 -0.3
v 0.1 0.1 -0.3
v 0.1 0.8 -0.3
v 0.1 0.9 -0.3
v -0.2 0 0.1
v 0.1 0 0.1
v -0.2 0 -0.3
v 0.1 0 -0.3
v -0.2 0.7 0.2
v -0.1 0.7 0.2
v 0 0.7 0.2
v 0.1 0.7 0.2
v -0.2 0.7 0.1
v -0.1 0.7 0.1
v 0 0.7 0.1
v 0.1 0.7 0.1
v -0.2 0.8 0.3
v 0.1 0.8 0.3
v -0.3 0.8 0.2
v -0.2 0.8 0.2
v -0.1 0.8 0.2
v 0 0.8 0.2
v 0.1 0.8 0.2
v 0.2 0.8 0.2
v -0.2 0.8 0.1
v 0.1 0.8 0.1
v -0.2 0.8 -0.1
v 0.1 0.8 -0.1
v -0.3 0.8 -0.2
v -0.2 0.8 -0.2
v -0.1 0.8 -0.2
v 0 0.8 -0.2
v 0.1 0.8 -0.2
v 0.2 0.8 -0.2
v -0.2 0.8 -0.3
v 0.1 0.8 -0.3
v -0.1 1.1 0.2
v 0 1.1 0.2
v -0.1 1.1 0.1
v 0 1.1 0.1
v -0.1 1.3 0.2
v 0 1.3 0.2
v -0.1 1.3 0.1
v 0 1.3 0.1
v -0.1 1.5 0.2
v 0 1.5 0.2
v -0.1 1.5 0.1
v 0 1.5 0.1
v -0.2 0.1 -0.2
v -0.1 0.1 -0.2
v 0 0.1 -0.2
v 0.1 0.1 -0.2
v -0.2 0.1 -0.3
v 0.1 0.1 -0.3
v -0.2 0.9 0.3
v 0.1 0.9 0.3
v -0.3 0.9 0.2
v -0.2 0.9 0.2
v -0.1 0.9 0.2
v 0 0.9 0.2
v 0.1 0.9 0.2
v 0.2 0.9 0.2
v -0.1 0.9 0.1
v 0 0.9 0.1
v -0.1 0.9 -0.1
v 0 0.9 -0.1
v -0.3 0.9 -0.2
v -0.2 0.9 -0.2
v -0.1 0.9 -0.2
v 0 0.9 -0.2
v 0.1 0.9 -0.2
v 0.2 0.9 -0.2
v -0.2 0.9 -0.3
v 0.1 0.9 -0.3
v -0.1 1 0.2
v 0 1 0.2
v -0.1 1 0.1
v 0 1 0.1
v -0.1 1.2 0.2
v 0 1.2 0.2
v -0.1 1.2 0.1
v 0 1.2 0.1
v -0.1 1.4 0.2
v 0 1.4 0.2
v -0.1 1.4 0.1
v 0 1.4 0.1
v -0.1 1.8 -0.1
v 0 1.8 -0.1
v -0.1 1.8 -0.2
v 0 1.8 -0.2
v -0.1 2.1 0
v 0 2.1 0
v -0.1 2.1 -0.1
v 0 2.1 -0.1
v -0.1 2.3 0.1
v 0 2.3 0.1
v -0.1 2.3 0
v 0 2.3 0
v -0.1 2.4 0.2
v 0 2.4 0.2
v -0.1 2.4 0.1
v 0 2.4 0.1

# faces
f 3/4/1 2/4/1 1/4/1
f 4/4/1 2/4/1 3/4/1
f 7/4/1 6/4/1 5/4/1
f 8/4/1 6/4/1 7/4/1
f 9/4/1 6/4/1 8/4/1
f 10/4/1 6/4/1 9/4/1
f 11/4/1 7/4/1 5/4/1
f 11/3/1 8/3/1 7/3/1
f 12/4/1 9/4/1 8/4/1
f 12/3/1 8/3/1 11/3/1
f 14/4/1 11/4/1 5/4/1
f 15/2/1 12/2/1 11/2/1
f 15/4/1 11/4/1 14/4/1
f 16/4/1 9/4/1 12/4/1
f 16/2/1 12/2/1 15/2/1
f 18/4/1 14/4/1 13/4/1
f 19/3/1 15/3/1 14/3/1
f 19/3/1 16/3/1 15/3/1
f 19/4/1 14/4/1 18/4/1
f 20/4/1 9/4/1 16/4/1
f 20/3/1 16/3/1 19/3/1
f 21/4/1 9/4/1 20/4/1
f 23/4/1 18/4/1 17/4/1
f 24/4/1 18/4/1 23/4/1
f 25/4/1 22/4/1 21/4/1
f 26/4/1 22/4/1 25/4/1
f 31/1/1 28/1/1 27/1/1
f 32/2/1 29/2/1 28/2/1
f 32/1/1 28/1/1 31/1/1
f 34/2/1 29/2/1 32/2/1
f 35/1/1 34/1/1 33/1/1
f 36/2/1 29/2/1 34/2/1
f 36/1/1 34/1/1 35/1/1
f 38/2/1 29/2/1 36/2/1
f 39/1/1 38/1/1 37/1/1
f 40/2/1 29/2/1 38/2/1
f 40/1/1 38/1/1 39/1/1
f 42/2/1 29/2/1 40/2/1
f 43/2/1 29/2/1 42/2/1
f 44/1/1 30/1/1 29/1/1
f 44/2/1 29/2/1 43/2/1
f 45/1/1 30/1/1 44/1/1
f 46/2/1 43/2/1 42/2/1
f 46/1/1 42/1/1 41/1/1
f 47/1/1 44/1/1 43/1/1
f 47/2/1 43/2/1 46/2/1
f 48/1/1 44/1/1 47/1/1
f 49/1/1 46/1/1 41/1/1
f 49/1/1 47/1/1 46/1/1
f 50/1/1 47/1/1 49/1/1
f 51/1/1 49/1/1 41/1/1
f 52/1/1 49/1/1 51/1/1
f 53/1/2 54/1/2 57/1/2
f 54/2/2 55/2/2 58/2/2
f 57/1/2 54/1/2 58/1/2
f 58/2/2 55/2/2 60/2/2
f 59/1/2 60/1/2 61/1/2
f 60/2/2 55/2/2 62/2/2
f 61/1/2 60/1/2 62/1/2
f 62/2/2 55/2/2 64/2/2
f 63/1/2 64/1/2 65/1/2
f 64/2/2 55/2/2 66/2/2
f 65/1/2 64/1/2 66/1/2
f 66/2/2 55/2/2 68/2/2
f 68/2/2 55/2/2 69/2/2
f 55/1/2 56/1/2 70/1/2
f 69/2/2 55/2/2 70/2/2
f 70/1/2 56/1/2 71/1/2
f 68/2/2 69/2/2 72/2/2
f 67/1/2 68/1/2 72/1/2
f 69/1/2 70/1/2 73/1/2
f 72/2/2 69/2/2 73/2/2
f 73/1/2 70/1/2 74/1/2
f 67/1/2 72/1/2 75/1/2
f 72/1/2 73/1/2 75/1/2
f 75/1/2 73/1/2 76/1/2
f 67/1/2 75/1/2 77/1/2
f 77/1/2 75/1/2 78/1/2
f 79/4/2 80/4/2 81/4/2
f 81/4/2 80/4/2 82/4/2
f 82/4/2 80/4/2 83/4/2
f 83/4/2 80/4/2 84/4/2
f 79/4/2 81/4/2 85/4/2
f 81/3/2 82/3/2 85/3/2
f 82/4/2 83/4/2 86/4/2
f 85/3/2 82/3/2 86/3/2
f 79/4/2 85/4/2 88/4/2
f 85/2/2 86/2/2 89/2/2
f 88/4/2 85/4/2 89/4/2
f 86/4/2 83/4/2 90/4/2
f 89/2/2 86/2/2 90/2/2
f 87/4/2 88/4/2 92/4/2
f 88/3/2 89/3/2 93/3/2
f 89/3/2 90/3/2 93/3/2
f 92/4/2 88/4/2 93/4/2
f 90/4/2 83/4/2 94/4/2
f 93/3/2 90/3/2 94/3/2
f 94/4/2 83/4/2 95/4/2
f 91/4/2 92/4/2 97/4/2
f 97/4/2 92/4/2 98/4/2
f 95/4/2 96/4/2 99/4/2
f 99/4/2 96/4/2 100/4/2
f 101/4/2 102/4/2 103/4/2
f 103/4/2 102/4/2 104/4/2
f 107/4/3 106/4/3 105/4/3
f 108/4/3 106/4/3 107/4/3
f 112/4/3 110/4/3 109/4/3
f 113/4/3 110/4/3 112/4/3
f 114/4/3 112/4/3 111/4/3
f 115/4/3 112/4/3 114/4/3
f 124/3/3 115/3/3 114/3/3
f 125/3/3 115/3/3 124/3/3
f 126/1/3 117/1/3 116/1/3
f 127/1/3 117/1/3 126/1/3
f 128/1/3 119/1/3 118/1/3
f 129/1/3 119/1/3 128/1/3
f 130/1/3 121/1/3 120/1/3
f 131/1/3 121/1/3 130/1/3
f 132/1/3 123/1/3 122/1/3
f 133/1/3 123/1/3 132/1/3
f 134/4/3 125/4/3 124/4/3
f 135/4/3 125/4/3 134/4/3
f 137/4/3 136/4/3 135/4/3
f 138/4/3 136/4/3 137/4/3
f 141/4/3 140/4/3 139/4/3
f 142/4/3 140/4/3 141/4/3
f 149/4/3 141/4/3 139/4/3
f 149/3/3 142/3/3 141/3/3
f 150/3/3 142/3/3 149/3/3
f 151/2/3 144/2/3 143/2/3
f 152/2/3 144/2/3 151/2/3
f 153/2/3 146/2/3 145/2/3
f 154/2/3 146/2/3 153/2/3
f 155/2/3 148/2/3 147/2/3
f 156/2/3 148/2/3 155/2/3
f 157/4/3 150/4/3 149/4/3
f 157/4/3 149/4/3 139/4/3
f 158/4/3 150/4/3 157/4/3
f 159/1/4 160/1/4 161/1/4
f 161/1/4 160/1/4 162/1/4
f 163/1/4 164/1/4 165/1/4
f 165/1/4 164/1/4 166/1/4
f 167/1/4 168/1/4 169/1/4
f 169/1/4 168/1/4 170/1/4
f 171/4/4 172/4/4 174/4/4
f 174/4/4 172/4/4 175/4/4
f 173/4/4 174/4/4 176/4/4
f 176/4/4 174/4/4 177/4/4
f 176/3/4 177/3/4 180/3/4
f 180/3/4 177/3/4 181/3/4
f 178/1/4 179/1/4 182/1/4
f 182/1/4 179/1/4 183/1/4
f 180/4/4 181/4/4 184/4/4
f 184/4/4 181/4/4 185/4/4
f 185/4/4 186/4/4 187/4/4
f 187/4/4 186/4/4 188/4/4
f 189/4/4 190/4/4 193/4/4
f 193/4/4 190/4/4 194/4/4
f 191/4/4 192/4/4 195/4/4
f 195/4/4 192/4/4 196/4/4
f 199/4/5 198/4/5 197/4/5
f 200/4/5 198/4/5 199/4/5
f 205/4/5 202/4/5 201/4/5
f 206/3/5 203/3/5 202/3/5
f 206/4/5 202/4/5 205/4/5
f 207/4/5 204/4/5 203/4/5
f 207/3/5 203/3/5 206/3/5
f 208/4/5 204/4/5 207/4/5
f 212/4/5 210/4/5 209/4/5
f 213/4/5 210/4/5 212/4/5
f 214/4/5 210/4/5 213/4/5
f 215/4/5 210/4/5 214/4/5
f 217/4/5 212/4/5 211/4/5
f 218/4/5 216/4/5 215/4/5
f 219/4/5 217/4/5 211/4/5
f 220/4/5 216/4/5 218/4/5
f 221/4/5 219/4/5 211/4/5
f 222/4/5 219/4/5 221/4/5
f 225/4/5 216/4/5 220/4/5
f 226/4/5 216/4/5 225/4/5
f 227/4/5 224/4/5 223/4/5
f 227/4/5 225/4/5 224/4/5
f 227/4/5 223/4/5 222/4/5
f 228/4/5 225/4/5 227/4/5
f 231/1/5 230/1/5 229/1/5
f 232/1/5 230/1/5 231/1/5
f 235/1/5 234/1/5 233/1/5
f 236/1/5 234/1/5 235/1/5
f 239/1/5 238/1/5 237/1/5
f 240/1/5 238/1/5 239/1/5
f 241/4/6 242/4/6 245/4/6
f 243/4/6 244/4/6 245/4/6
f 242/4/6 243/4/6 245/4/6
f 245/4/6 244/4/6 246/4/6
f 247/4/6 248/4/6 250/4/6
f 250/4/6 248/4/6 251/4/6
f 251/4/6 248/4/6 252/4/6
f 252/4/6 248/4/6 253/4/6
f 249/4/6 250/4/6 255/4/6
f 250/4/6 251/4/6 255/4/6
f 253/4/6 254/4/6 256/4/6
f 252/4/6 253/4/6 256/4/6
f 249/4/6 255/4/6 257/4/6
f 256/4/6 254/4/6 258/4/6
f 249/4/6 257/4/6 259/4/6
f 259/4/6 257/4/6 260/4/6
f 260/4/6 257/4/6 261/4/6
f 258/4/6 254/4/6 262/4/6
f 262/4/6 254/4/6 263/4/6
f 263/4/6 254/4/6 264/4/6
f 260/4/6 261/4/6 265/4/6
f 262/4/6 263/4/6 265/4/6
f 261/4/6 262/4/6 265/4/6
f 265/4/6 263/4/6 266/4/6
f 267/1/6 268/1/6 269/1/6
f 269/1/6 268/1/6 270/1/6
f 271/1/6 272/1/6 273/1/6
f 273/1/6 272/1/6 274/1/6
f 275/1/6 276/1/6 277/1/6
f 277/1/6 276/1/6 278/1/6
f 279/1/6 280/1/6 281/1/6
f 281/1/6 280/1/6 282/1/6
f 283/1/6 284/1/6 285/1/6
f 285/1/6 284/1/6 286/1/6
f 287/1/6 288/1/6 289/1/6
f 289/1/6 288/1/6 290/1/6
f 291/1/6 292/1/6 293/1/6
f 293/1/6 292/1/6 294/1/6
