# MagicaVoxel @ Ephtracy

# group
o 

# material
mtllib ogre_leg_left.mtl
usemtl palette

# normals
vn -1 0 0
vn 1 0 0
vn 0 0 1
vn 0 0 -1
vn 0 -1 0
vn 0 1 0

# texcoords
vt 0.224609 0.5
vt 0.310547 0.5
vt 0.541016 0.5
vt 0.552734 0.5
vt 0.556641 0.5
vt 0.955078 0.5
vt 0.986328 0.5

# verts
v -0.8 0 1.8
v -0.8 0 1.3
v -0.8 0.1 1.8
v -0.8 0.1 1.3
v -0.8 0.2 1.8
v -0.8 0.2 1.7
v -0.8 0.2 1.6
v -0.8 0.2 1.4
v -0.8 0.3 1.7
v -0.8 0.3 1.6
v -0.8 0.3 1.4
v -0.8 0.3 1.3
v -0.8 0.4 1.7
v -0.8 0.4 1.6
v -0.8 0.4 1.3
v -0.8 0.6 1.7
v -0.8 0.6 1.6
v -0.8 0.7 1.4
v -0.8 0.7 1.3
v -0.8 0.9 1.7
v -0.8 0.9 1.6
v -0.8 0.9 1.4
v -0.8 0.9 1.3
v -0.8 1.1 1.4
v -0.8 1.1 1.3
v -0.8 1.2 1.7
v -0.8 1.2 1.6
v -0.8 1.2 1.4
v -0.8 1.2 1.3
v -0.5 0 1.8
v -0.5 0 1.3
v -0.5 0.1 1.8
v -0.5 0.1 1.3
v -0.5 0.2 1.8
v -0.5 0.2 1.7
v -0.5 0.2 1.6
v -0.5 0.2 1.5
v -0.5 0.2 1.4
v -0.5 0.3 1.4
v -0.5 0.3 1.3
v -0.5 0.4 1.7
v -0.5 0.4 1.6
v -0.5 0.4 1.5
v -0.5 0.4 1.4
v -0.5 0.4 1.3
v -0.5 0.6 1.7
v -0.5 0.6 1.6
v -0.5 0.6 1.5
v -0.5 0.6 1.4
v -0.5 0.6 1.3
v -0.5 0.7 1.5
v -0.5 0.7 1.4
v -0.5 0.9 1.7
v -0.5 0.9 1.6
v -0.5 0.9 1.4
v -0.5 0.9 1.3
v -0.5 1 1.6
v -0.5 1 1.4
v -0.5 1.1 1.6
v -0.5 1.1 1.4
v -0.5 1.1 1.3
v -0.5 1.2 1.7
v -0.5 1.2 1.6
v -0.5 1.2 1.3
v -0.8 0 1.8
v -0.8 0.1 1.8
v -0.8 0.2 1.8
v -0.5 0 1.8
v -0.5 0.1 1.8
v -0.5 0.2 1.8
v -0.8 0.2 1.7
v -0.8 0.3 1.7
v -0.8 0.4 1.7
v -0.8 0.6 1.7
v -0.8 0.9 1.7
v -0.8 1.2 1.7
v -0.7 0.6 1.7
v -0.7 0.7 1.7
v -0.6 0.2 1.7
v -0.6 0.3 1.7
v -0.6 0.4 1.7
v -0.6 0.6 1.7
v -0.6 0.7 1.7
v -0.6 0.9 1.7
v -0.6 1.2 1.7
v -0.5 0.2 1.7
v -0.5 0.4 1.7
v -0.5 0.6 1.7
v -0.5 0.9 1.7
v -0.5 1.2 1.7
v -0.8 0 1.3
v -0.8 0.1 1.3
v -0.8 0.3 1.3
v -0.8 0.4 1.3
v -0.8 0.7 1.3
v -0.8 0.9 1.3
v -0.8 1.1 1.3
v -0.8 1.2 1.3
v -0.7 0.6 1.3
v -0.7 0.7 1.3
v -0.7 0.9 1.3
v -0.7 1 1.3
v -0.7 1.1 1.3
v -0.7 1.2 1.3
v -0.6 0.3 1.3
v -0.6 0.4 1.3
v -0.6 0.6 1.3
v -0.6 0.9 1.3
v -0.6 1 1.3
v -0.6 1.1 1.3
v -0.6 1.2 1.3
v -0.5 0 1.3
v -0.5 0.1 1.3
v -0.5 0.3 1.3
v -0.5 0.4 1.3
v -0.5 0.6 1.3
v -0.5 0.9 1.3
v -0.5 1.1 1.3
v -0.5 1.2 1.3
v -0.8 0 1.8
v -0.5 0 1.8
v -0.8 0 1.3
v -0.5 0 1.3
v -0.8 0.2 1.8
v -0.5 0.2 1.8
v -0.8 0.2 1.7
v -0.6 0.2 1.7
v -0.5 0.2 1.7
v -0.8 1.2 1.7
v -0.6 1.2 1.7
v -0.5 1.2 1.7
v -0.8 1.2 1.6
v -0.6 1.2 1.6
v -0.5 1.2 1.6
v -0.8 1.2 1.4
v -0.7 1.2 1.4
v -0.8 1.2 1.3
v -0.7 1.2 1.3
v -0.6 1.2 1.3
v -0.5 1.2 1.3

# faces
f 3/7/1 2/7/1 1/7/1
f 4/7/1 2/7/1 3/7/1
f 5/6/1 4/6/1 3/6/1
f 6/6/1 4/6/1 5/6/1
f 7/6/1 4/6/1 6/6/1
f 8/6/1 4/6/1 7/6/1
f 9/6/1 7/6/1 6/6/1
f 10/2/1 8/2/1 7/2/1
f 10/6/1 7/6/1 9/6/1
f 11/6/1 4/6/1 8/6/1
f 11/2/1 8/2/1 10/2/1
f 12/6/1 4/6/1 11/6/1
f 13/2/1 10/2/1 9/2/1
f 13/2/1 11/2/1 10/2/1
f 13/2/1 12/2/1 11/2/1
f 14/2/1 12/2/1 13/2/1
f 15/2/1 12/2/1 14/2/1
f 16/5/1 14/5/1 13/5/1
f 17/3/1 15/3/1 14/3/1
f 17/5/1 14/5/1 16/5/1
f 18/3/1 17/3/1 16/3/1
f 18/3/1 15/3/1 17/3/1
f 19/3/1 15/3/1 18/3/1
f 20/3/1 18/3/1 16/3/1
f 21/3/1 18/3/1 20/3/1
f 22/5/1 19/5/1 18/5/1
f 22/3/1 18/3/1 21/3/1
f 23/5/1 19/5/1 22/5/1
f 24/3/1 22/3/1 21/3/1
f 24/3/1 23/3/1 22/3/1
f 25/3/1 23/3/1 24/3/1
f 26/5/1 21/5/1 20/5/1
f 27/3/1 24/3/1 21/3/1
f 27/5/1 21/5/1 26/5/1
f 28/7/1 25/7/1 24/7/1
f 28/3/1 24/3/1 27/3/1
f 29/7/1 25/7/1 28/7/1
f 30/7/2 31/7/2 32/7/2
f 32/7/2 31/7/2 33/7/2
f 32/6/2 33/6/2 34/6/2
f 34/6/2 33/6/2 35/6/2
f 35/6/2 33/6/2 36/6/2
f 36/6/2 33/6/2 37/6/2
f 37/6/2 33/6/2 38/6/2
f 38/6/2 33/6/2 39/6/2
f 37/1/2 38/1/2 39/1/2
f 39/6/2 33/6/2 40/6/2
f 35/1/2 36/1/2 41/1/2
f 36/2/2 37/2/2 42/2/2
f 41/1/2 36/1/2 42/1/2
f 37/1/2 39/1/2 43/1/2
f 42/2/2 37/2/2 43/2/2
f 39/1/2 40/1/2 43/1/2
f 43/1/2 40/1/2 44/1/2
f 44/1/2 40/1/2 45/1/2
f 41/4/2 42/4/2 46/4/2
f 42/5/2 43/5/2 47/5/2
f 46/4/2 42/4/2 47/4/2
f 43/5/2 44/5/2 47/5/2
f 47/5/2 44/5/2 48/5/2
f 44/4/2 45/4/2 49/4/2
f 48/5/2 44/5/2 49/5/2
f 49/4/2 45/4/2 50/4/2
f 47/3/2 48/3/2 51/3/2
f 48/5/2 49/5/2 51/5/2
f 49/5/2 50/5/2 51/5/2
f 51/5/2 50/5/2 52/5/2
f 46/5/2 47/5/2 53/5/2
f 47/3/2 51/3/2 54/3/2
f 53/5/2 47/5/2 54/5/2
f 51/3/2 52/3/2 54/3/2
f 52/5/2 50/5/2 55/5/2
f 54/3/2 52/3/2 55/3/2
f 55/5/2 50/5/2 56/5/2
f 53/4/2 54/4/2 57/4/2
f 54/3/2 55/3/2 57/3/2
f 55/4/2 56/4/2 58/4/2
f 57/3/2 55/3/2 58/3/2
f 53/4/2 57/4/2 59/4/2
f 57/5/2 58/5/2 59/5/2
f 58/4/2 56/4/2 60/4/2
f 59/5/2 58/5/2 60/5/2
f 60/4/2 56/4/2 61/4/2
f 53/4/2 59/4/2 62/4/2
f 59/7/2 60/7/2 63/7/2
f 62/4/2 59/4/2 63/4/2
f 60/7/2 61/7/2 63/7/2
f 63/7/2 61/7/2 64/7/2
f 68/7/3 66/7/3 65/7/3
f 69/6/3 67/6/3 66/6/3
f 69/7/3 66/7/3 68/7/3
f 70/6/3 67/6/3 69/6/3
f 77/5/3 74/5/3 73/5/3
f 77/3/3 75/3/3 74/3/3
f 78/3/3 75/3/3 77/3/3
f 79/6/3 72/6/3 71/6/3
f 80/2/3 73/2/3 72/2/3
f 80/6/3 72/6/3 79/6/3
f 81/5/3 77/5/3 73/5/3
f 81/2/3 73/2/3 80/2/3
f 81/5/3 78/5/3 77/5/3
f 82/5/3 78/5/3 81/5/3
f 83/3/3 75/3/3 78/3/3
f 83/5/3 78/5/3 82/5/3
f 84/5/3 76/5/3 75/5/3
f 84/3/3 75/3/3 83/3/3
f 85/5/3 76/5/3 84/5/3
f 86/1/3 80/1/3 79/1/3
f 86/1/3 81/1/3 80/1/3
f 87/4/3 82/4/3 81/4/3
f 87/1/3 81/1/3 86/1/3
f 88/5/3 83/5/3 82/5/3
f 88/4/3 82/4/3 87/4/3
f 88/5/3 84/5/3 83/5/3
f 89/4/3 85/4/3 84/4/3
f 89/5/3 84/5/3 88/5/3
f 90/4/3 85/4/3 89/4/3
f 94/3/4 95/3/4 99/3/4
f 95/5/4 96/5/4 100/5/4
f 99/3/4 95/3/4 100/3/4
f 96/3/4 97/3/4 101/3/4
f 100/5/4 96/5/4 101/5/4
f 101/3/4 97/3/4 102/3/4
f 97/7/4 98/7/4 103/7/4
f 102/3/4 97/3/4 103/3/4
f 103/7/4 98/7/4 104/7/4
f 92/6/4 93/6/4 105/6/4
f 93/2/4 94/2/4 105/2/4
f 94/3/4 99/3/4 106/3/4
f 105/2/4 94/2/4 106/2/4
f 101/5/4 102/5/4 107/5/4
f 106/3/4 99/3/4 107/3/4
f 99/5/4 100/5/4 107/5/4
f 100/5/4 101/5/4 107/5/4
f 107/5/4 102/5/4 108/5/4
f 103/3/4 104/3/4 109/3/4
f 108/5/4 102/5/4 109/5/4
f 102/3/4 103/3/4 109/3/4
f 109/3/4 104/3/4 110/3/4
f 110/3/4 104/3/4 111/3/4
f 91/7/4 92/7/4 112/7/4
f 92/6/4 105/6/4 113/6/4
f 112/7/4 92/7/4 113/7/4
f 105/1/4 106/1/4 114/1/4
f 113/6/4 105/6/4 114/6/4
f 106/4/4 107/4/4 115/4/4
f 114/1/4 106/1/4 115/1/4
f 107/5/4 108/5/4 116/5/4
f 115/4/4 107/4/4 116/4/4
f 108/4/4 109/4/4 117/4/4
f 116/5/4 108/5/4 117/5/4
f 109/4/4 110/4/4 117/4/4
f 110/7/4 111/7/4 118/7/4
f 117/4/4 110/4/4 118/4/4
f 118/7/4 111/7/4 119/7/4
f 122/7/5 121/7/5 120/7/5
f 123/7/5 121/7/5 122/7/5
f 124/6/6 125/6/6 126/6/6
f 126/6/6 125/6/6 127/6/6
f 127/6/6 125/6/6 128/6/6
f 129/5/6 130/5/6 132/5/6
f 130/4/6 131/4/6 133/4/6
f 132/5/6 130/5/6 133/5/6
f 133/4/6 131/4/6 134/4/6
f 132/3/6 133/3/6 135/3/6
f 135/3/6 133/3/6 136/3/6
f 135/7/6 136/7/6 137/7/6
f 136/3/6 133/3/6 138/3/6
f 137/7/6 136/7/6 138/7/6
f 133/7/6 134/7/6 139/7/6
f 138/3/6 133/3/6 139/3/6
f 139/7/6 134/7/6 140/7/6
