# MagicaVoxel @ Ephtracy

# group
o 

# material
mtllib ogre_torso.mtl
usemtl palette

# normals
vn -1 0 0
vn 1 0 0
vn 0 0 1
vn 0 0 -1
vn 0 -1 0
vn 0 1 0

# texcoords
vt 0.224609 0.5
vt 0.310547 0.5
vt 0.541016 0.5
vt 0.931641 0.5
vt 0.955078 0.5
vt 0.974609 0.5
vt 0.986328 0.5
vt 0.990234 0.5
vt 0.994141 0.5

# verts
v -0.6 -0.4 0.5
v -0.6 -0.4 0.4
v -0.6 -0.4 0.3
v -0.6 -0.3 0.6
v -0.6 -0.3 0.5
v -0.6 -0.3 0.4
v -0.6 -0.3 0.3
v -0.6 -0.3 0.2
v -0.6 -0.2 0.7
v -0.6 -0.2 0.6
v -0.6 -0.2 0.5
v -0.6 0.2 0.7
v -0.6 0.2 0.6
v -0.6 0.2 0.5
v -0.6 0.2 0.4
v -0.6 0.2 0.3
v -0.6 0.2 0.2
v -0.6 0.3 0.5
v -0.6 0.3 0.4
v -0.6 0.3 0.3
v -0.5 -0.7 0.6
v -0.5 -0.7 0.2
v -0.5 -0.6 0.6
v -0.5 -0.6 0.5
v -0.5 -0.6 0.3
v -0.5 -0.6 0.2
v -0.5 -0.5 0.6
v -0.5 -0.5 0.5
v -0.5 -0.5 0.3
v -0.5 -0.5 0.2
v -0.5 -0.4 0.5
v -0.5 -0.4 0.4
v -0.5 -0.4 0.3
v -0.5 -0.3 0.7
v -0.5 -0.3 0.6
v -0.5 -0.3 0.5
v -0.5 -0.3 0.3
v -0.5 -0.3 0.2
v -0.5 -0.2 0.7
v -0.5 -0.2 0.6
v -0.5 0.2 0.6
v -0.5 0.2 0.5
v -0.5 0.2 0.3
v -0.5 0.2 0.2
v -0.5 0.3 0.6
v -0.5 0.3 0.5
v -0.5 0.3 0.3
v -0.5 0.3 0.2
v -0.4 -0.5 0.7
v -0.4 -0.5 0.6
v -0.4 -0.3 0.7
v -0.4 -0.3 0.6
v -0.4 0.2 0.7
v -0.4 0.2 0.6
v -0.4 0.3 0.7
v -0.4 0.3 0.6
v -5.96046e-08 -0.5 0.7
v -5.96046e-08 -0.5 0.6
v -5.96046e-08 -0.3 0.7
v -5.96046e-08 -0.3 0.6
v -5.96046e-08 0.2 0.7
v -5.96046e-08 0.2 0.6
v -5.96046e-08 0.3 0.7
v -5.96046e-08 0.3 0.6
v 0.1 -0.7 0.6
v 0.1 -0.7 0.5
v 0.1 -0.7 0.2
v 0.1 -0.6 0.6
v 0.1 -0.6 0.5
v 0.1 -0.6 0.3
v 0.1 -0.6 0.2
v 0.1 -0.5 0.6
v 0.1 -0.5 0.3
v 0.1 -0.5 0.2
v 0.1 -0.4 0.5
v 0.1 -0.4 0.4
v 0.1 -0.4 0.3
v 0.1 -0.4 0.2
v 0.1 -0.3 0.7
v 0.1 -0.3 0.6
v 0.1 -0.3 0.5
v 0.1 -0.3 0.3
v 0.1 -0.3 0.2
v 0.1 -0.2 0.7
v 0.1 -0.2 0.6
v 0.1 0.2 0.6
v 0.1 0.2 0.5
v 0.1 0.2 0.3
v 0.1 0.2 0.2
v 0.1 0.3 0.6
v 0.1 0.3 0.5
v 0.1 0.3 0.3
v 0.1 0.3 0.2
v 0.2 -0.4 0.5
v 0.2 -0.4 0.4
v 0.2 -0.4 0.3
v 0.2 -0.3 0.6
v 0.2 -0.3 0.5
v 0.2 -0.3 0.4
v 0.2 -0.3 0.3
v 0.2 -0.3 0.2
v 0.2 -0.2 0.7
v 0.2 -0.2 0.6
v 0.2 -0.2 0.5
v 0.2 0.2 0.7
v 0.2 0.2 0.6
v 0.2 0.2 0.5
v 0.2 0.2 0.4
v 0.2 0.2 0.3
v 0.2 0.2 0.2
v 0.2 0.3 0.5
v 0.2 0.3 0.4
v 0.2 0.3 0.3
v -0.6 -0.2 0.7
v -0.6 0.2 0.7
v -0.5 -0.3 0.7
v -0.5 -0.2 0.7
v -0.5 0.2 0.7
v -0.4 -0.5 0.7
v -0.4 -0.3 0.7
v -0.4 -0.2 0.7
v -0.4 0.2 0.7
v -0.4 0.3 0.7
v -0.3 -0.5 0.7
v -0.3 -0.2 0.7
v -0.3 0.3 0.7
v -0.2 -0.5 0.7
v -0.2 -0.4 0.7
v -0.2 -0.3 0.7
v -0.2 -0.2 0.7
v -0.2 -0.1 0.7
v -0.2 0 0.7
v -0.2 0.1 0.7
v -0.2 0.2 0.7
v -0.2 0.3 0.7
v -0.1 -0.5 0.7
v -0.1 -0.4 0.7
v -0.1 -0.3 0.7
v -0.1 -0.2 0.7
v -0.1 -0.1 0.7
v -0.1 0 0.7
v -0.1 0.1 0.7
v -0.1 0.2 0.7
v -5.96046e-08 -0.5 0.7
v -5.96046e-08 -0.3 0.7
v -5.96046e-08 -0.2 0.7
v -5.96046e-08 0.2 0.7
v -5.96046e-08 0.3 0.7
v 0.1 -0.3 0.7
v 0.1 -0.2 0.7
v 0.1 0.2 0.7
v 0.2 -0.2 0.7
v 0.2 0.2 0.7
v -0.6 -0.3 0.6
v -0.6 -0.2 0.6
v -0.5 -0.7 0.6
v -0.5 -0.6 0.6
v -0.5 -0.5 0.6
v -0.5 -0.3 0.6
v -0.5 -0.2 0.6
v -0.5 0.2 0.6
v -0.5 0.3 0.6
v -0.4 -0.6 0.6
v -0.4 -0.5 0.6
v -0.4 -0.3 0.6
v -0.4 0.2 0.6
v -0.4 0.3 0.6
v -0.3 -0.6 0.6
v -0.3 -0.5 0.6
v -0.2 -0.7 0.6
v -0.2 -0.6 0.6
v -0.2 -0.5 0.6
v -0.1 -0.6 0.6
v -0.1 -0.5 0.6
v -5.96046e-08 -0.6 0.6
v -5.96046e-08 -0.5 0.6
v -5.96046e-08 -0.3 0.6
v -5.96046e-08 0.2 0.6
v -5.96046e-08 0.3 0.6
v 0.1 -0.7 0.6
v 0.1 -0.6 0.6
v 0.1 -0.5 0.6
v 0.1 -0.3 0.6
v 0.1 -0.2 0.6
v 0.1 0.2 0.6
v 0.1 0.3 0.6
v 0.2 -0.3 0.6
v 0.2 -0.2 0.6
v -0.6 -0.4 0.5
v -0.6 -0.3 0.5
v -0.6 0.2 0.5
v -0.6 0.3 0.5
v -0.5 -0.4 0.5
v -0.5 -0.3 0.5
v -0.5 0.2 0.5
v -0.5 0.3 0.5
v 0.1 -0.4 0.5
v 0.1 -0.3 0.5
v 0.1 0.2 0.5
v 0.1 0.3 0.5
v 0.2 -0.4 0.5
v 0.2 -0.3 0.5
v 0.2 0.2 0.5
v 0.2 0.3 0.5
v -0.6 -0.4 0.3
v -0.6 -0.3 0.3
v -0.6 0.2 0.3
v -0.6 0.3 0.3
v -0.5 -0.4 0.3
v -0.5 -0.3 0.3
v -0.5 0.2 0.3
v -0.5 0.3 0.3
v 0.1 -0.4 0.3
v 0.1 -0.3 0.3
v 0.1 0.2 0.3
v 0.1 0.3 0.3
v 0.2 -0.4 0.3
v 0.2 -0.3 0.3
v 0.2 0.2 0.3
v 0.2 0.3 0.3
v -0.6 -0.3 0.2
v -0.6 0.2 0.2
v -0.5 -0.7 0.2
v -0.5 -0.6 0.2
v -0.5 -0.5 0.2
v -0.5 -0.3 0.2
v -0.5 0.2 0.2
v -0.5 0.3 0.2
v -0.4 -0.6 0.2
v -0.4 -0.5 0.2
v -0.4 -0.3 0.2
v -0.4 0.1 0.2
v -0.4 0.2 0.2
v -0.4 0.3 0.2
v -0.3 -0.3 0.2
v -0.3 0.1 0.2
v -0.2 -0.6 0.2
v -0.2 -0.5 0.2
v -0.2 -0.4 0.2
v -0.2 -0.3 0.2
v -0.1 -0.7 0.2
v -0.1 -0.6 0.2
v -0.1 -0.4 0.2
v -0.1 -0.1 0.2
v -5.96046e-08 -0.7 0.2
v -5.96046e-08 -0.6 0.2
v -5.96046e-08 -0.4 0.2
v -5.96046e-08 -0.3 0.2
v -5.96046e-08 -0.1 0.2
v -5.96046e-08 0.2 0.2
v -5.96046e-08 0.3 0.2
v 0.1 -0.7 0.2
v 0.1 -0.6 0.2
v 0.1 -0.5 0.2
v 0.1 -0.4 0.2
v 0.1 -0.3 0.2
v 0.1 0.2 0.2
v 0.1 0.3 0.2
v 0.2 -0.3 0.2
v 0.2 0.2 0.2
v -0.5 -0.7 0.6
v -0.2 -0.7 0.6
v 0.1 -0.7 0.6
v -0.4 -0.7 0.5
v -0.2 -0.7 0.5
v -5.96046e-08 -0.7 0.5
v 0.1 -0.7 0.5
v -0.4 -0.7 0.3
v -0.1 -0.7 0.3
v -5.96046e-08 -0.7 0.3
v -0.5 -0.7 0.2
v -0.1 -0.7 0.2
v -5.96046e-08 -0.7 0.2
v 0.1 -0.7 0.2
v -0.4 -0.5 0.7
v -0.3 -0.5 0.7
v -0.2 -0.5 0.7
v -0.1 -0.5 0.7
v -5.96046e-08 -0.5 0.7
v -0.4 -0.5 0.6
v -0.3 -0.5 0.6
v -0.2 -0.5 0.6
v -0.1 -0.5 0.6
v -5.96046e-08 -0.5 0.6
v -0.6 -0.4 0.5
v -0.5 -0.4 0.5
v 0.1 -0.4 0.5
v 0.2 -0.4 0.5
v -0.6 -0.4 0.4
v -0.5 -0.4 0.4
v 0.1 -0.4 0.4
v 0.2 -0.4 0.4
v -0.6 -0.4 0.3
v -0.5 -0.4 0.3
v 0.1 -0.4 0.3
v 0.2 -0.4 0.3
v -0.5 -0.3 0.7
v -0.4 -0.3 0.7
v -5.96046e-08 -0.3 0.7
v 0.1 -0.3 0.7
v -0.6 -0.3 0.6
v -0.5 -0.3 0.6
v -0.4 -0.3 0.6
v -5.96046e-08 -0.3 0.6
v 0.1 -0.3 0.6
v 0.2 -0.3 0.6
v -0.6 -0.3 0.5
v -0.5 -0.3 0.5
v 0.1 -0.3 0.5
v 0.2 -0.3 0.5
v -0.6 -0.3 0.3
v -0.5 -0.3 0.3
v 0.1 -0.3 0.3
v 0.2 -0.3 0.3
v -0.6 -0.3 0.2
v -0.5 -0.3 0.2
v 0.1 -0.3 0.2
v 0.2 -0.3 0.2
v -0.6 -0.2 0.7
v -0.5 -0.2 0.7
v 0.1 -0.2 0.7
v 0.2 -0.2 0.7
v -0.6 -0.2 0.6
v -0.5 -0.2 0.6
v 0.1 -0.2 0.6
v 0.2 -0.2 0.6
v -0.6 0.2 0.7
v -0.5 0.2 0.7
v -0.4 0.2 0.7
v -5.96046e-08 0.2 0.7
v 0.1 0.2 0.7
v 0.2 0.2 0.7
v -0.6 0.2 0.6
v -0.5 0.2 0.6
v -0.4 0.2 0.6
v -5.96046e-08 0.2 0.6
v 0.1 0.2 0.6
v 0.2 0.2 0.6
v -0.6 0.2 0.5
v -0.5 0.2 0.5
v 0.1 0.2 0.5
v 0.2 0.2 0.5
v -0.6 0.2 0.3
v -0.5 0.2 0.3
v 0.1 0.2 0.3
v 0.2 0.2 0.3
v -0.6 0.2 0.2
v -0.5 0.2 0.2
v 0.1 0.2 0.2
v 0.2 0.2 0.2
v -0.4 0.3 0.7
v -0.3 0.3 0.7
v -0.2 0.3 0.7
v -5.96046e-08 0.3 0.7
v -0.5 0.3 0.6
v -0.4 0.3 0.6
v -0.3 0.3 0.6
v -0.2 0.3 0.6
v -5.96046e-08 0.3 0.6
v 0.1 0.3 0.6
v -0.6 0.3 0.5
v -0.5 0.3 0.5
v -0.4 0.3 0.5
v -5.96046e-08 0.3 0.5
v 0.1 0.3 0.5
v 0.2 0.3 0.5
v -0.6 0.3 0.4
v -0.5 0.3 0.4
v 0.1 0.3 0.4
v 0.2 0.3 0.4
v -0.6 0.3 0.3
v -0.5 0.3 0.3
v -0.4 0.3 0.3
v -5.96046e-08 0.3 0.3
v 0.1 0.3 0.3
v 0.2 0.3 0.3
v -0.5 0.3 0.2
v -0.4 0.3 0.2
v -5.96046e-08 0.3 0.2
v 0.1 0.3 0.2

# faces
f 5/2/1 2/2/1 1/2/1
f 6/1/1 3/1/1 2/1/1
f 6/2/1 2/2/1 5/2/1
f 7/1/1 3/1/1 6/1/1
f 10/1/1 5/1/1 4/1/1
f 11/2/1 6/2/1 5/2/1
f 11/2/1 7/2/1 6/2/1
f 11/1/1 5/1/1 10/1/1
f 12/1/1 10/1/1 9/1/1
f 13/2/1 11/2/1 10/2/1
f 13/1/1 10/1/1 12/1/1
f 14/2/1 7/2/1 11/2/1
f 14/2/1 11/2/1 13/2/1
f 15/2/1 7/2/1 14/2/1
f 16/1/1 8/1/1 7/1/1
f 16/2/1 7/2/1 15/2/1
f 17/1/1 8/1/1 16/1/1
f 18/2/1 15/2/1 14/2/1
f 19/1/1 16/1/1 15/1/1
f 19/2/1 15/2/1 18/2/1
f 20/1/1 16/1/1 19/1/1
f 23/5/1 22/5/1 21/5/1
f 24/5/1 22/5/1 23/5/1
f 25/5/1 22/5/1 24/5/1
f 26/5/1 22/5/1 25/5/1
f 27/8/1 24/8/1 23/8/1
f 28/9/1 25/9/1 24/9/1
f 28/8/1 24/8/1 27/8/1
f 29/8/1 26/8/1 25/8/1
f 29/9/1 25/9/1 28/9/1
f 30/8/1 26/8/1 29/8/1
f 31/5/1 28/5/1 27/5/1
f 31/5/1 29/5/1 28/5/1
f 31/5/1 30/5/1 29/5/1
f 32/5/1 30/5/1 31/5/1
f 33/5/1 30/5/1 32/5/1
f 35/5/1 31/5/1 27/5/1
f 36/5/1 31/5/1 35/5/1
f 37/5/1 30/5/1 33/5/1
f 38/5/1 30/5/1 37/5/1
f 39/1/1 35/1/1 34/1/1
f 40/1/1 35/1/1 39/1/1
f 45/1/1 42/1/1 41/1/1
f 46/1/1 42/1/1 45/1/1
f 47/1/1 44/1/1 43/1/1
f 48/1/1 44/1/1 47/1/1
f 51/5/1 50/5/1 49/5/1
f 52/5/1 50/5/1 51/5/1
f 55/2/1 54/2/1 53/2/1
f 56/2/1 54/2/1 55/2/1
f 57/2/2 58/2/2 59/2/2
f 59/2/2 58/2/2 60/2/2
f 61/2/2 62/2/2 63/2/2
f 63/2/2 62/2/2 64/2/2
f 65/7/2 66/7/2 68/7/2
f 66/5/2 67/5/2 69/5/2
f 68/7/2 66/7/2 69/7/2
f 69/5/2 67/5/2 70/5/2
f 70/5/2 67/5/2 71/5/2
f 68/9/2 69/9/2 72/9/2
f 69/9/2 70/9/2 72/9/2
f 70/8/2 71/8/2 73/8/2
f 72/9/2 70/9/2 73/9/2
f 73/8/2 71/8/2 74/8/2
f 72/5/2 73/5/2 75/5/2
f 73/5/2 74/5/2 75/5/2
f 75/5/2 74/5/2 76/5/2
f 76/5/2 74/5/2 77/5/2
f 77/5/2 74/5/2 78/5/2
f 72/5/2 75/5/2 80/5/2
f 80/5/2 75/5/2 81/5/2
f 77/1/2 78/1/2 82/1/2
f 82/1/2 78/1/2 83/1/2
f 79/1/2 80/1/2 84/1/2
f 84/1/2 80/1/2 85/1/2
f 86/1/2 87/1/2 90/1/2
f 90/1/2 87/1/2 91/1/2
f 88/1/2 89/1/2 92/1/2
f 92/1/2 89/1/2 93/1/2
f 94/2/2 95/2/2 98/2/2
f 95/1/2 96/1/2 99/1/2
f 98/2/2 95/2/2 99/2/2
f 99/1/2 96/1/2 100/1/2
f 97/1/2 98/1/2 103/1/2
f 98/2/2 99/2/2 104/2/2
f 99/2/2 100/2/2 104/2/2
f 103/1/2 98/1/2 104/1/2
f 102/1/2 103/1/2 105/1/2
f 103/2/2 104/2/2 106/2/2
f 105/1/2 103/1/2 106/1/2
f 104/2/2 100/2/2 107/2/2
f 106/2/2 104/2/2 107/2/2
f 107/2/2 100/2/2 108/2/2
f 100/1/2 101/1/2 109/1/2
f 108/2/2 100/2/2 109/2/2
f 109/1/2 101/1/2 110/1/2
f 107/2/2 108/2/2 111/2/2
f 108/1/2 109/1/2 112/1/2
f 111/2/2 108/2/2 112/2/2
f 112/1/2 109/1/2 113/1/2
f 117/1/3 115/1/3 114/1/3
f 118/1/3 115/1/3 117/1/3
f 120/1/3 117/1/3 116/1/3
f 121/2/3 118/2/3 117/2/3
f 121/1/3 117/1/3 120/1/3
f 122/2/3 118/2/3 121/2/3
f 124/5/3 120/5/3 119/5/3
f 124/5/3 121/5/3 120/5/3
f 125/2/3 122/2/3 121/2/3
f 125/5/3 121/5/3 124/5/3
f 125/2/3 123/2/3 122/2/3
f 126/2/3 123/2/3 125/2/3
f 127/1/3 125/1/3 124/1/3
f 127/1/3 126/1/3 125/1/3
f 128/1/3 126/1/3 127/1/3
f 129/1/3 126/1/3 128/1/3
f 130/1/3 126/1/3 129/1/3
f 131/1/3 126/1/3 130/1/3
f 132/1/3 126/1/3 131/1/3
f 133/1/3 126/1/3 132/1/3
f 134/1/3 126/1/3 133/1/3
f 135/1/3 126/1/3 134/1/3
f 136/5/3 128/5/3 127/5/3
f 137/2/3 129/2/3 128/2/3
f 137/5/3 128/5/3 136/5/3
f 138/1/3 130/1/3 129/1/3
f 138/2/3 129/2/3 137/2/3
f 139/2/3 131/2/3 130/2/3
f 139/1/3 130/1/3 138/1/3
f 140/1/3 132/1/3 131/1/3
f 140/2/3 131/2/3 139/2/3
f 141/2/3 133/2/3 132/2/3
f 141/1/3 132/1/3 140/1/3
f 142/1/3 134/1/3 133/1/3
f 142/2/3 133/2/3 141/2/3
f 143/2/3 135/2/3 134/2/3
f 143/1/3 134/1/3 142/1/3
f 144/2/3 137/2/3 136/2/3
f 144/2/3 138/2/3 137/2/3
f 144/2/3 143/2/3 142/2/3
f 144/2/3 142/2/3 141/2/3
f 144/2/3 141/2/3 140/2/3
f 144/2/3 140/2/3 139/2/3
f 144/2/3 139/2/3 138/2/3
f 145/2/3 143/2/3 144/2/3
f 146/2/3 143/2/3 145/2/3
f 147/2/3 135/2/3 143/2/3
f 147/2/3 143/2/3 146/2/3
f 148/2/3 135/2/3 147/2/3
f 149/1/3 146/1/3 145/1/3
f 150/2/3 147/2/3 146/2/3
f 150/1/3 146/1/3 149/1/3
f 151/2/3 147/2/3 150/2/3
f 152/1/3 151/1/3 150/1/3
f 153/1/3 151/1/3 152/1/3
f 159/1/3 155/1/3 154/1/3
f 160/1/3 155/1/3 159/1/3
f 163/8/3 158/8/3 157/8/3
f 163/5/3 157/5/3 156/5/3
f 164/5/3 159/5/3 158/5/3
f 164/8/3 158/8/3 163/8/3
f 165/5/3 159/5/3 164/5/3
f 166/1/3 162/1/3 161/1/3
f 167/1/3 162/1/3 166/1/3
f 168/5/3 163/5/3 156/5/3
f 168/9/3 164/9/3 163/9/3
f 169/9/3 164/9/3 168/9/3
f 170/5/3 168/5/3 156/5/3
f 171/6/3 169/6/3 168/6/3
f 171/5/3 168/5/3 170/5/3
f 172/6/3 169/6/3 171/6/3
f 173/7/3 171/7/3 170/7/3
f 173/4/3 172/4/3 171/4/3
f 174/4/3 172/4/3 173/4/3
f 175/7/3 173/7/3 170/7/3
f 175/8/3 174/8/3 173/8/3
f 176/8/3 174/8/3 175/8/3
f 180/7/3 175/7/3 170/7/3
f 181/9/3 176/9/3 175/9/3
f 181/7/3 175/7/3 180/7/3
f 182/5/3 177/5/3 176/5/3
f 182/9/3 176/9/3 181/9/3
f 183/5/3 177/5/3 182/5/3
f 185/1/3 179/1/3 178/1/3
f 186/1/3 179/1/3 185/1/3
f 187/1/3 184/1/3 183/1/3
f 188/1/3 184/1/3 187/1/3
f 193/2/3 190/2/3 189/2/3
f 194/2/3 190/2/3 193/2/3
f 195/2/3 192/2/3 191/2/3
f 196/2/3 192/2/3 195/2/3
f 201/2/3 198/2/3 197/2/3
f 202/2/3 198/2/3 201/2/3
f 203/2/3 200/2/3 199/2/3
f 204/2/3 200/2/3 203/2/3
f 205/1/4 206/1/4 209/1/4
f 209/1/4 206/1/4 210/1/4
f 207/1/4 208/1/4 211/1/4
f 211/1/4 208/1/4 212/1/4
f 213/1/4 214/1/4 217/1/4
f 217/1/4 214/1/4 218/1/4
f 215/1/4 216/1/4 219/1/4
f 219/1/4 216/1/4 220/1/4
f 221/1/4 222/1/4 226/1/4
f 226/1/4 222/1/4 227/1/4
f 224/8/4 225/8/4 229/8/4
f 223/5/4 224/5/4 229/5/4
f 225/5/4 226/5/4 230/5/4
f 229/8/4 225/8/4 230/8/4
f 226/2/4 227/2/4 231/2/4
f 230/5/4 226/5/4 231/5/4
f 231/2/4 227/2/4 232/2/4
f 227/1/4 228/1/4 233/1/4
f 232/2/4 227/2/4 233/2/4
f 233/1/4 228/1/4 234/1/4
f 231/5/4 232/5/4 235/5/4
f 230/5/4 231/5/4 235/5/4
f 233/2/4 234/2/4 236/2/4
f 235/5/4 232/5/4 236/5/4
f 232/2/4 233/2/4 236/2/4
f 229/9/4 230/9/4 237/9/4
f 223/5/4 229/5/4 237/5/4
f 230/5/4 235/5/4 238/5/4
f 237/9/4 230/9/4 238/9/4
f 238/5/4 235/5/4 239/5/4
f 235/2/4 236/2/4 240/2/4
f 239/5/4 235/5/4 240/5/4
f 223/5/4 237/5/4 241/5/4
f 237/8/4 238/8/4 242/8/4
f 241/5/4 237/5/4 242/5/4
f 238/5/4 239/5/4 243/5/4
f 239/2/4 240/2/4 243/2/4
f 240/2/4 236/2/4 244/2/4
f 243/2/4 240/2/4 244/2/4
f 241/7/4 242/7/4 245/7/4
f 242/8/4 238/8/4 246/8/4
f 245/7/4 242/7/4 246/7/4
f 238/5/4 243/5/4 247/5/4
f 243/5/4 244/5/4 247/5/4
f 247/5/4 244/5/4 248/5/4
f 244/2/4 236/2/4 249/2/4
f 248/5/4 244/5/4 249/5/4
f 236/2/4 234/2/4 250/2/4
f 249/2/4 236/2/4 250/2/4
f 250/2/4 234/2/4 251/2/4
f 245/5/4 246/5/4 252/5/4
f 246/8/4 238/8/4 253/8/4
f 252/5/4 246/5/4 253/5/4
f 238/5/4 247/5/4 254/5/4
f 253/8/4 238/8/4 254/8/4
f 247/1/4 248/1/4 255/1/4
f 254/5/4 247/5/4 255/5/4
f 248/2/4 249/2/4 256/2/4
f 255/1/4 248/1/4 256/1/4
f 249/2/4 250/2/4 256/2/4
f 250/1/4 251/1/4 257/1/4
f 256/2/4 250/2/4 257/2/4
f 257/1/4 251/1/4 258/1/4
f 256/1/4 257/1/4 259/1/4
f 259/1/4 257/1/4 260/1/4
f 264/5/5 262/5/5 261/5/5
f 265/7/5 263/7/5 262/7/5
f 265/5/5 262/5/5 264/5/5
f 266/7/5 263/7/5 265/7/5
f 267/7/5 263/7/5 266/7/5
f 268/5/5 264/5/5 261/5/5
f 268/3/5 265/3/5 264/3/5
f 268/3/5 266/3/5 265/3/5
f 269/3/5 266/3/5 268/3/5
f 270/5/5 267/5/5 266/5/5
f 270/3/5 266/3/5 269/3/5
f 271/5/5 269/5/5 268/5/5
f 271/5/5 268/5/5 261/5/5
f 272/7/5 270/7/5 269/7/5
f 272/5/5 269/5/5 271/5/5
f 273/5/5 267/5/5 270/5/5
f 273/7/5 270/7/5 272/7/5
f 274/5/5 267/5/5 273/5/5
f 280/5/5 276/5/5 275/5/5
f 281/1/5 277/1/5 276/1/5
f 281/5/5 276/5/5 280/5/5
f 282/5/5 278/5/5 277/5/5
f 282/1/5 277/1/5 281/1/5
f 283/2/5 279/2/5 278/2/5
f 283/5/5 278/5/5 282/5/5
f 284/2/5 279/2/5 283/2/5
f 289/2/5 286/2/5 285/2/5
f 290/2/5 286/2/5 289/2/5
f 291/2/5 288/2/5 287/2/5
f 292/2/5 288/2/5 291/2/5
f 293/1/5 290/1/5 289/1/5
f 294/1/5 290/1/5 293/1/5
f 295/1/5 292/1/5 291/1/5
f 296/1/5 292/1/5 295/1/5
f 302/1/5 298/1/5 297/1/5
f 303/1/5 298/1/5 302/1/5
f 304/1/5 300/1/5 299/1/5
f 305/1/5 300/1/5 304/1/5
f 307/1/5 302/1/5 301/1/5
f 308/1/5 302/1/5 307/1/5
f 309/1/5 306/1/5 305/1/5
f 310/1/5 306/1/5 309/1/5
f 315/1/5 312/1/5 311/1/5
f 316/1/5 312/1/5 315/1/5
f 317/1/5 314/1/5 313/1/5
f 318/1/5 314/1/5 317/1/5
f 323/1/5 320/1/5 319/1/5
f 324/1/5 320/1/5 323/1/5
f 325/1/5 322/1/5 321/1/5
f 326/1/5 322/1/5 325/1/5
f 327/1/6 328/1/6 333/1/6
f 328/2/6 329/2/6 334/2/6
f 333/1/6 328/1/6 334/1/6
f 334/2/6 329/2/6 335/2/6
f 330/2/6 331/2/6 336/2/6
f 331/1/6 332/1/6 337/1/6
f 336/2/6 331/2/6 337/2/6
f 337/1/6 332/1/6 338/1/6
f 333/2/6 334/2/6 339/2/6
f 339/2/6 334/2/6 340/2/6
f 337/2/6 338/2/6 341/2/6
f 341/2/6 338/2/6 342/2/6
f 343/1/6 344/1/6 347/1/6
f 347/1/6 344/1/6 348/1/6
f 345/1/6 346/1/6 349/1/6
f 349/1/6 346/1/6 350/1/6
f 351/2/6 352/2/6 356/2/6
f 352/1/6 353/1/6 357/1/6
f 356/2/6 352/2/6 357/2/6
f 353/2/6 354/2/6 358/2/6
f 357/1/6 353/1/6 358/1/6
f 358/2/6 354/2/6 359/2/6
f 355/1/6 356/1/6 362/1/6
f 356/2/6 357/2/6 363/2/6
f 357/2/6 358/2/6 363/2/6
f 362/1/6 356/1/6 363/1/6
f 358/2/6 359/2/6 363/2/6
f 359/1/6 360/1/6 364/1/6
f 363/2/6 359/2/6 364/2/6
f 364/1/6 360/1/6 365/1/6
f 361/2/6 362/2/6 367/2/6
f 362/2/6 363/2/6 367/2/6
f 367/2/6 363/2/6 368/2/6
f 365/2/6 366/2/6 369/2/6
f 364/2/6 365/2/6 369/2/6
f 369/2/6 366/2/6 370/2/6
f 367/1/6 368/1/6 371/1/6
f 368/2/6 363/2/6 372/2/6
f 371/1/6 368/1/6 372/1/6
f 363/3/6 364/3/6 373/3/6
f 372/2/6 363/2/6 373/2/6
f 364/2/6 369/2/6 374/2/6
f 373/3/6 364/3/6 374/3/6
f 369/1/6 370/1/6 375/1/6
f 374/2/6 369/2/6 375/2/6
f 375/1/6 370/1/6 376/1/6
f 372/1/6 373/1/6 377/1/6
f 373/2/6 374/2/6 378/2/6
f 377/1/6 373/1/6 378/1/6
f 374/1/6 375/1/6 379/1/6
f 378/2/6 374/2/6 379/2/6
f 379/1/6 375/1/6 380/1/6
