# MagicaVoxel @ Ephtracy

# group
o 

# material
mtllib ogre_head.mtl
usemtl palette

# normals
vn -1 0 0
vn 1 0 0
vn 0 0 1
vn 0 0 -1
vn 0 -1 0
vn 0 1 0

# texcoords
vt 0.427734 0.5
vt 0.509766 0.5
vt 0.541016 0.5
vt 0.552734 0.5
vt 0.556641 0.5
vt 0.568359 0.5
vt 0.572266 0.5
vt 0.958984 0.5

# verts
v -0.8 0.5 0.5
v -0.8 0.5 0.4
v -0.8 0.8 0.5
v -0.8 0.8 0.4
v -0.6 0.3 0.8
v -0.6 0.3 0.6
v -0.6 0.3 0.2
v -0.6 0.3 0
v -0.6 0.4 0.7
v -0.6 0.4 0.6
v -0.6 0.4 0.5
v -0.6 0.4 0.2
v -0.6 0.4 0.1
v -0.6 0.5 0.8
v -0.6 0.5 0.7
v -0.6 0.5 0.5
v -0.6 0.5 0.4
v -0.6 0.5 0.1
v -0.6 0.5 0
v -0.6 0.6 0.8
v -0.6 0.6 0.7
v -0.6 0.6 0.5
v -0.6 0.6 0.4
v -0.6 0.6 0.3
v -0.6 0.7 0.8
v -0.6 0.7 0.7
v -0.6 0.7 0.5
v -0.6 0.7 0.4
v -0.6 0.7 0.2
v -0.6 0.7 0.1
v -0.6 0.8 0.5
v -0.6 0.8 0.4
v -0.6 0.8 0.3
v -0.6 0.9 0.7
v -0.6 0.9 0.6
v -0.6 0.9 0.5
v -0.6 0.9 0.2
v -0.6 0.9 0.1
v -0.6 0.9 0
v -0.6 1 0.8
v -0.6 1 0.6
v -0.6 1 0.5
v -0.6 1 0.2
v -0.6 1 0.1
v -0.6 1.1 0.8
v -0.6 1.1 0.6
v -0.6 1.1 0.2
v -0.6 1.1 0
v -0.5 0.3 0.9
v -0.5 0.3 0.8
v -0.5 0.4 0.9
v -0.5 0.4 0.8
v -0.5 0.5 0.9
v -0.5 0.5 0.8
v -0.5 0.8 0.9
v -0.5 0.8 0.8
v -0.5 0.9 0.9
v -0.5 0.9 0.8
v -0.3 0.5 0.9
v -0.3 0.5 0.8
v -0.3 0.6 0.8
v -0.3 0.7 0.8
v -0.3 0.8 0.9
v -0.3 0.8 0.8
v -0.1 0.8 0.9
v -0.1 0.8 0.8
v -0.1 0.9 0.9
v -0.1 0.9 0.8
v 0 0.4 0.9
v 0 0.4 0.8
v 0 0.5 0.9
v 0 0.5 0.8
v 0.3 0.5 0.5
v 0.3 0.5 0.4
v 0.3 0.6 0.5
v 0.3 0.6 0.4
v -0.7 0.5 0.5
v -0.7 0.5 0.4
v -0.7 0.6 0.5
v -0.7 0.6 0.4
v -0.4 0.4 0.9
v -0.4 0.4 0.8
v -0.4 0.5 0.9
v -0.4 0.5 0.8
v -0.3 0.8 0.9
v -0.3 0.8 0.8
v -0.3 0.9 0.9
v -0.3 0.9 0.8
v -0.1 0.5 0.9
v -0.1 0.5 0.8
v -0.1 0.6 0.8
v -0.1 0.7 0.8
v -0.1 0.8 0.9
v -0.1 0.8 0.8
v 0.1 0.3 0.9
v 0.1 0.3 0.8
v 0.1 0.4 0.9
v 0.1 0.4 0.8
v 0.1 0.5 0.9
v 0.1 0.5 0.8
v 0.1 0.8 0.9
v 0.1 0.8 0.8
v 0.1 0.9 0.9
v 0.1 0.9 0.8
v 0.2 0.3 0.8
v 0.2 0.3 0.6
v 0.2 0.3 0.2
v 0.2 0.3 0
v 0.2 0.4 0.7
v 0.2 0.4 0.6
v 0.2 0.4 0.5
v 0.2 0.4 0.4
v 0.2 0.4 0.2
v 0.2 0.4 0.1
v 0.2 0.4 0
v 0.2 0.5 0.8
v 0.2 0.5 0.7
v 0.2 0.5 0.5
v 0.2 0.5 0.4
v 0.2 0.5 0.3
v 0.2 0.6 0.8
v 0.2 0.6 0.7
v 0.2 0.6 0.5
v 0.2 0.6 0.4
v 0.2 0.7 0.5
v 0.2 0.7 0.4
v 0.2 0.7 0.2
v 0.2 0.7 0.1
v 0.2 0.8 0.7
v 0.2 0.8 0.6
v 0.2 0.8 0.5
v 0.2 0.8 0.4
v 0.2 0.8 0.3
v 0.2 0.8 0.1
v 0.2 0.8 0
v 0.2 0.9 0.8
v 0.2 0.9 0.7
v 0.2 0.9 0.6
v 0.2 0.9 0.2
v 0.2 1 0.7
v 0.2 1 0.5
v 0.2 1 0.2
v 0.2 1 0.1
v 0.2 1.1 0.8
v 0.2 1.1 0.5
v 0.2 1.1 0.2
v 0.2 1.1 0
v 0.4 0.5 0.5
v 0.4 0.5 0.4
v 0.4 0.8 0.5
v 0.4 0.8 0.4
v -0.5 0.3 0.9
v -0.5 0.4 0.9
v -0.5 0.5 0.9
v -0.5 0.8 0.9
v -0.5 0.9 0.9
v -0.4 0.4 0.9
v -0.4 0.5 0.9
v -0.3 0.5 0.9
v -0.3 0.8 0.9
v -0.3 0.9 0.9
v -0.1 0.5 0.9
v -0.1 0.8 0.9
v -0.1 0.9 0.9
v 0 0.4 0.9
v 0 0.5 0.9
v 0.1 0.3 0.9
v 0.1 0.4 0.9
v 0.1 0.5 0.9
v 0.1 0.8 0.9
v 0.1 0.9 0.9
v -0.6 0.3 0.8
v -0.6 0.5 0.8
v -0.6 0.6 0.8
v -0.6 0.7 0.8
v -0.6 1 0.8
v -0.6 1.1 0.8
v -0.5 0.3 0.8
v -0.5 0.4 0.8
v -0.5 0.5 0.8
v -0.5 0.6 0.8
v -0.5 0.7 0.8
v -0.5 0.8 0.8
v -0.5 0.9 0.8
v -0.5 1 0.8
v -0.5 1.1 0.8
v -0.4 0.4 0.8
v -0.4 0.5 0.8
v -0.4 0.7 0.8
v -0.4 0.8 0.8
v -0.4 0.9 0.8
v -0.4 1 0.8
v -0.3 0.5 0.8
v -0.3 0.6 0.8
v -0.3 0.7 0.8
v -0.3 0.8 0.8
v -0.3 0.9 0.8
v -0.3 1 0.8
v -0.3 1.1 0.8
v -0.1 0.5 0.8
v -0.1 0.6 0.8
v -0.1 0.7 0.8
v -0.1 0.8 0.8
v -0.1 0.9 0.8
v -0.1 1 0.8
v -0.1 1.1 0.8
v 0 0.4 0.8
v 0 0.5 0.8
v 0 0.7 0.8
v 0 0.8 0.8
v 0.1 0.3 0.8
v 0.1 0.4 0.8
v 0.1 0.5 0.8
v 0.1 0.6 0.8
v 0.1 0.7 0.8
v 0.1 0.8 0.8
v 0.1 0.9 0.8
v 0.1 1 0.8
v 0.1 1.1 0.8
v 0.2 0.3 0.8
v 0.2 0.5 0.8
v 0.2 0.6 0.8
v 0.2 0.9 0.8
v 0.2 1.1 0.8
v -0.8 0.5 0.5
v -0.8 0.8 0.5
v -0.7 0.5 0.5
v -0.7 0.6 0.5
v -0.7 0.7 0.5
v -0.6 0.6 0.5
v -0.6 0.7 0.5
v -0.6 0.8 0.5
v 0.2 0.6 0.5
v 0.2 0.7 0.5
v 0.2 0.8 0.5
v 0.3 0.5 0.5
v 0.3 0.6 0.5
v 0.3 0.7 0.5
v 0.4 0.5 0.5
v 0.4 0.8 0.5
v -0.8 0.5 0.4
v -0.8 0.8 0.4
v -0.7 0.5 0.4
v -0.7 0.6 0.4
v -0.7 0.7 0.4
v -0.6 0.6 0.4
v -0.6 0.7 0.4
v -0.6 0.8 0.4
v 0.2 0.6 0.4
v 0.2 0.7 0.4
v 0.2 0.8 0.4
v 0.3 0.5 0.4
v 0.3 0.6 0.4
v 0.3 0.7 0.4
v 0.4 0.5 0.4
v 0.4 0.8 0.4
v -0.6 0.3 0
v -0.6 0.5 0
v -0.6 0.9 0
v -0.6 1.1 0
v -0.5 0.4 0
v -0.5 0.5 0
v -0.5 0.7 0
v -0.5 0.9 0
v -0.5 1 0
v -0.4 0.5 0
v -0.4 0.7 0
v -0.4 1 0
v -0.4 1.1 0
v -0.3 0.4 0
v -0.3 0.5 0
v -0.2 0.3 0
v -0.2 0.4 0
v -0.1 0.8 0
v -0.1 0.9 0
v 0 0.6 0
v 0 0.8 0
v 0 1 0
v 0 1.1 0
v 0.1 0.3 0
v 0.1 0.4 0
v 0.1 0.6 0
v 0.1 0.8 0
v 0.1 1 0
v 0.2 0.3 0
v 0.2 0.4 0
v 0.2 0.8 0
v 0.2 1.1 0
v -0.5 0.3 0.9
v 0.1 0.3 0.9
v -0.6 0.3 0.8
v -0.5 0.3 0.8
v 0.1 0.3 0.8
v 0.2 0.3 0.8
v -0.5 0.3 0.7
v 0.1 0.3 0.7
v -0.6 0.3 0.6
v -0.5 0.3 0.6
v 0.1 0.3 0.6
v 0.2 0.3 0.6
v -0.6 0.3 0.2
v -0.5 0.3 0.2
v 0.1 0.3 0.2
v 0.2 0.3 0.2
v -0.2 0.3 0.1
v 0.1 0.3 0.1
v -0.6 0.3 0
v -0.2 0.3 0
v 0.1 0.3 0
v 0.2 0.3 0
v -0.3 0.5 0.9
v -0.1 0.5 0.9
v -0.3 0.5 0.8
v -0.1 0.5 0.8
v -0.8 0.5 0.5
v -0.7 0.5 0.5
v 0.3 0.5 0.5
v 0.4 0.5 0.5
v -0.8 0.5 0.4
v -0.7 0.5 0.4
v 0.3 0.5 0.4
v 0.4 0.5 0.4
v -0.7 0.6 0.5
v -0.6 0.6 0.5
v 0.2 0.6 0.5
v 0.3 0.6 0.5
v -0.7 0.6 0.4
v -0.6 0.6 0.4
v 0.2 0.6 0.4
v 0.3 0.6 0.4
v -0.5 0.8 0.9
v -0.3 0.8 0.9
v -0.1 0.8 0.9
v 0.1 0.8 0.9
v -0.5 0.8 0.8
v -0.4 0.8 0.8
v -0.3 0.8 0.8
v -0.1 0.8 0.8
v 0 0.8 0.8
v 0.1 0.8 0.8
v -0.4 0.4 0.9
v 0 0.4 0.9
v -0.4 0.4 0.8
v 0 0.4 0.8
v -0.5 0.5 0.9
v -0.4 0.5 0.9
v 0 0.5 0.9
v 0.1 0.5 0.9
v -0.5 0.5 0.8
v -0.4 0.5 0.8
v 0 0.5 0.8
v 0.1 0.5 0.8
v -0.3 0.8 0.9
v -0.1 0.8 0.9
v -0.3 0.8 0.8
v -0.1 0.8 0.8
v -0.8 0.8 0.5
v -0.6 0.8 0.5
v 0.2 0.8 0.5
v 0.4 0.8 0.5
v -0.8 0.8 0.4
v -0.6 0.8 0.4
v 0.2 0.8 0.4
v 0.4 0.8 0.4
v -0.5 0.9 0.9
v -0.3 0.9 0.9
v -0.1 0.9 0.9
v 0.1 0.9 0.9
v -0.5 0.9 0.8
v -0.4 0.9 0.8
v -0.3 0.9 0.8
v -0.1 0.9 0.8
v 0.1 0.9 0.8
v -0.6 1.1 0.8
v -0.5 1.1 0.8
v -0.3 1.1 0.8
v -0.1 1.1 0.8
v 0.1 1.1 0.8
v 0.2 1.1 0.8
v -0.4 1.1 0.7
v -0.3 1.1 0.7
v -0.1 1.1 0.7
v 0 1.1 0.7
v -0.6 1.1 0.6
v -0.5 1.1 0.6
v 0.1 1.1 0.5
v 0.2 1.1 0.5
v -0.5 1.1 0.4
v -0.4 1.1 0.4
v 0 1.1 0.4
v 0.1 1.1 0.4
v -0.6 1.1 0.2
v -0.5 1.1 0.2
v -0.1 1.1 0.2
v 0.1 1.1 0.2
v 0.2 1.1 0.2
v -0.5 1.1 0.1
v -0.4 1.1 0.1
v -0.1 1.1 0.1
v 0 1.1 0.1
v 0.1 1.1 0.1
v -0.6 1.1 0
v -0.4 1.1 0
v 0 1.1 0
v 0.2 1.1 0

# faces
f 3/3/1 2/3/1 1/3/1
f 4/3/1 2/3/1 3/3/1
f 9/4/1 6/4/1 5/4/1
f 10/5/1 7/5/1 6/5/1
f 10/4/1 6/4/1 9/4/1
f 11/5/1 7/5/1 10/5/1
f 12/4/1 8/4/1 7/4/1
f 12/5/1 7/5/1 11/5/1
f 13/4/1 8/4/1 12/4/1
f 14/4/1 9/4/1 5/4/1
f 15/5/1 11/5/1 10/5/1
f 15/4/1 9/4/1 14/4/1
f 15/5/1 10/5/1 9/5/1
f 16/3/1 13/3/1 12/3/1
f 16/5/1 11/5/1 15/5/1
f 16/3/1 12/3/1 11/3/1
f 17/3/1 13/3/1 16/3/1
f 18/4/1 8/4/1 13/4/1
f 18/3/1 13/3/1 17/3/1
f 19/4/1 8/4/1 18/4/1
f 20/5/1 15/5/1 14/5/1
f 21/3/1 16/3/1 15/3/1
f 21/5/1 15/5/1 20/5/1
f 22/5/1 17/5/1 16/5/1
f 22/3/1 16/3/1 21/3/1
f 23/3/1 18/3/1 17/3/1
f 23/5/1 17/5/1 22/5/1
f 24/3/1 18/3/1 23/3/1
f 25/3/1 21/3/1 20/3/1
f 25/3/1 22/3/1 21/3/1
f 26/3/1 22/3/1 25/3/1
f 27/3/1 22/3/1 26/3/1
f 28/5/1 24/5/1 23/5/1
f 29/3/1 18/3/1 24/3/1
f 30/5/1 19/5/1 18/5/1
f 30/3/1 18/3/1 29/3/1
f 31/3/1 27/3/1 26/3/1
f 32/5/1 24/5/1 28/5/1
f 33/3/1 29/3/1 24/3/1
f 33/5/1 24/5/1 32/5/1
f 34/3/1 31/3/1 26/3/1
f 34/3/1 32/3/1 31/3/1
f 34/3/1 33/3/1 32/3/1
f 34/5/1 26/5/1 25/5/1
f 35/3/1 33/3/1 34/3/1
f 36/3/1 33/3/1 35/3/1
f 37/3/1 29/3/1 33/3/1
f 37/3/1 33/3/1 36/3/1
f 37/5/1 30/5/1 29/5/1
f 38/5/1 19/5/1 30/5/1
f 38/5/1 30/5/1 37/5/1
f 39/5/1 19/5/1 38/5/1
f 40/5/1 35/5/1 34/5/1
f 40/5/1 34/5/1 25/5/1
f 41/3/1 36/3/1 35/3/1
f 41/5/1 35/5/1 40/5/1
f 42/5/1 37/5/1 36/5/1
f 42/3/1 36/3/1 41/3/1
f 42/5/1 38/5/1 37/5/1
f 43/5/1 38/5/1 42/5/1
f 44/4/1 39/4/1 38/4/1
f 44/5/1 38/5/1 43/5/1
f 45/4/1 41/4/1 40/4/1
f 46/5/1 43/5/1 42/5/1
f 46/4/1 41/4/1 45/4/1
f 46/5/1 42/5/1 41/5/1
f 47/4/1 44/4/1 43/4/1
f 47/5/1 43/5/1 46/5/1
f 48/4/1 39/4/1 44/4/1
f 48/4/1 44/4/1 47/4/1
f 51/2/1 50/2/1 49/2/1
f 52/2/1 50/2/1 51/2/1
f 53/8/1 52/8/1 51/8/1
f 54/8/1 52/8/1 53/8/1
f 57/3/1 56/3/1 55/3/1
f 58/3/1 56/3/1 57/3/1
f 61/6/1 60/6/1 59/6/1
f 62/6/1 61/6/1 59/6/1
f 63/6/1 62/6/1 59/6/1
f 64/6/1 62/6/1 63/6/1
f 67/3/1 66/3/1 65/3/1
f 68/3/1 66/3/1 67/3/1
f 71/8/1 70/8/1 69/8/1
f 72/8/1 70/8/1 71/8/1
f 75/3/1 74/3/1 73/3/1
f 76/3/1 74/3/1 75/3/1
f 77/3/2 78/3/2 79/3/2
f 79/3/2 78/3/2 80/3/2
f 81/8/2 82/8/2 83/8/2
f 83/8/2 82/8/2 84/8/2
f 85/3/2 86/3/2 87/3/2
f 87/3/2 86/3/2 88/3/2
f 89/6/2 90/6/2 91/6/2
f 89/6/2 91/6/2 92/6/2
f 89/6/2 92/6/2 93/6/2
f 93/6/2 92/6/2 94/6/2
f 95/2/2 96/2/2 97/2/2
f 97/2/2 96/2/2 98/2/2
f 97/8/2 98/8/2 99/8/2
f 99/8/2 98/8/2 100/8/2
f 101/3/2 102/3/2 103/3/2
f 103/3/2 102/3/2 104/3/2
f 105/4/2 106/4/2 109/4/2
f 106/5/2 107/5/2 110/5/2
f 109/4/2 106/4/2 110/4/2
f 110/5/2 107/5/2 111/5/2
f 111/5/2 107/5/2 112/5/2
f 107/4/2 108/4/2 113/4/2
f 112/5/2 107/5/2 113/5/2
f 113/4/2 108/4/2 114/4/2
f 114/4/2 108/4/2 115/4/2
f 105/4/2 109/4/2 116/4/2
f 109/3/2 110/3/2 117/3/2
f 116/4/2 109/4/2 117/4/2
f 110/3/2 111/3/2 117/3/2
f 111/5/2 112/5/2 118/5/2
f 117/3/2 111/3/2 118/3/2
f 112/3/2 113/3/2 119/3/2
f 118/5/2 112/5/2 119/5/2
f 113/3/2 114/3/2 119/3/2
f 119/3/2 114/3/2 120/3/2
f 116/3/2 117/3/2 121/3/2
f 117/3/2 118/3/2 121/3/2
f 121/3/2 118/3/2 122/3/2
f 118/4/2 119/4/2 123/4/2
f 122/3/2 118/3/2 123/3/2
f 119/5/2 120/5/2 124/5/2
f 123/4/2 119/4/2 124/4/2
f 122/3/2 123/3/2 125/3/2
f 124/5/2 120/5/2 126/5/2
f 120/3/2 114/3/2 127/3/2
f 114/5/2 115/5/2 128/5/2
f 127/3/2 114/3/2 128/3/2
f 122/3/2 125/3/2 129/3/2
f 121/5/2 122/5/2 129/5/2
f 129/3/2 125/3/2 130/3/2
f 130/3/2 125/3/2 131/3/2
f 126/5/2 120/5/2 132/5/2
f 120/3/2 127/3/2 133/3/2
f 132/5/2 120/5/2 133/5/2
f 128/5/2 115/5/2 134/5/2
f 127/5/2 128/5/2 134/5/2
f 134/5/2 115/5/2 135/5/2
f 121/5/2 129/5/2 136/5/2
f 129/5/2 130/5/2 136/5/2
f 136/5/2 130/5/2 137/5/2
f 130/3/2 131/3/2 138/3/2
f 137/5/2 130/5/2 138/5/2
f 131/3/2 132/3/2 138/3/2
f 132/3/2 133/3/2 138/3/2
f 133/3/2 127/3/2 139/3/2
f 138/3/2 133/3/2 139/3/2
f 127/5/2 134/5/2 139/5/2
f 136/4/2 137/4/2 140/4/2
f 137/5/2 138/5/2 140/5/2
f 138/5/2 139/5/2 140/5/2
f 140/5/2 139/5/2 141/5/2
f 139/5/2 134/5/2 142/5/2
f 141/5/2 139/5/2 142/5/2
f 134/4/2 135/4/2 143/4/2
f 142/5/2 134/5/2 143/5/2
f 140/4/2 141/4/2 144/4/2
f 136/4/2 140/4/2 144/4/2
f 141/5/2 142/5/2 145/5/2
f 144/4/2 141/4/2 145/4/2
f 142/4/2 143/4/2 146/4/2
f 145/5/2 142/5/2 146/5/2
f 143/4/2 135/4/2 147/4/2
f 146/4/2 143/4/2 147/4/2
f 148/3/2 149/3/2 150/3/2
f 150/3/2 149/3/2 151/3/2
f 157/2/3 153/2/3 152/2/3
f 157/8/3 154/8/3 153/8/3
f 158/8/3 154/8/3 157/8/3
f 160/3/3 156/3/3 155/3/3
f 161/3/3 156/3/3 160/3/3
f 162/6/3 160/6/3 159/6/3
f 163/6/3 160/6/3 162/6/3
f 165/2/3 157/2/3 152/2/3
f 167/2/3 165/2/3 152/2/3
f 168/8/3 166/8/3 165/8/3
f 168/2/3 165/2/3 167/2/3
f 169/8/3 166/8/3 168/8/3
f 170/3/3 164/3/3 163/3/3
f 171/3/3 164/3/3 170/3/3
f 178/4/3 173/4/3 172/4/3
f 179/4/3 173/4/3 178/4/3
f 180/5/3 174/5/3 173/5/3
f 180/4/3 173/4/3 179/4/3
f 181/3/3 175/3/3 174/3/3
f 181/5/3 174/5/3 180/5/3
f 182/5/3 176/5/3 175/5/3
f 182/3/3 175/3/3 181/3/3
f 183/5/3 176/5/3 182/5/3
f 184/5/3 176/5/3 183/5/3
f 185/4/3 177/4/3 176/4/3
f 185/5/3 176/5/3 184/5/3
f 186/4/3 177/4/3 185/4/3
f 188/3/3 181/3/3 180/3/3
f 189/8/3 183/8/3 182/8/3
f 189/4/3 182/4/3 181/4/3
f 190/8/3 183/8/3 189/8/3
f 191/5/3 186/5/3 185/5/3
f 191/5/3 185/5/3 184/5/3
f 192/5/3 186/5/3 191/5/3
f 193/3/3 188/3/3 187/3/3
f 193/3/3 181/3/3 188/3/3
f 194/4/3 189/4/3 181/4/3
f 194/3/3 181/3/3 193/3/3
f 195/1/3 190/1/3 189/1/3
f 195/4/3 189/4/3 194/4/3
f 196/1/3 190/1/3 195/1/3
f 197/3/3 192/3/3 191/3/3
f 198/5/3 186/5/3 192/5/3
f 198/3/3 192/3/3 197/3/3
f 199/5/3 186/5/3 198/5/3
f 200/3/3 193/3/3 187/3/3
f 203/3/3 199/3/3 198/3/3
f 203/3/3 197/3/3 196/3/3
f 203/3/3 198/3/3 197/3/3
f 204/3/3 199/3/3 203/3/3
f 205/3/3 199/3/3 204/3/3
f 206/3/3 199/3/3 205/3/3
f 207/3/3 201/3/3 200/3/3
f 207/3/3 200/3/3 187/3/3
f 208/3/3 201/3/3 207/3/3
f 209/4/3 202/4/3 201/4/3
f 209/1/3 203/1/3 202/1/3
f 210/1/3 203/1/3 209/1/3
f 213/3/3 201/3/3 208/3/3
f 214/4/3 209/4/3 201/4/3
f 214/3/3 201/3/3 213/3/3
f 215/8/3 210/8/3 209/8/3
f 215/4/3 209/4/3 214/4/3
f 216/8/3 210/8/3 215/8/3
f 217/3/3 205/3/3 204/3/3
f 218/5/3 206/5/3 205/5/3
f 218/3/3 205/3/3 217/3/3
f 219/5/3 206/5/3 218/5/3
f 220/4/3 212/4/3 211/4/3
f 220/4/3 213/4/3 212/4/3
f 221/3/3 214/3/3 213/3/3
f 221/4/3 213/4/3 220/4/3
f 222/5/3 217/5/3 216/5/3
f 222/3/3 214/3/3 221/3/3
f 222/5/3 216/5/3 215/5/3
f 222/5/3 215/5/3 214/5/3
f 223/4/3 218/4/3 217/4/3
f 223/5/3 217/5/3 222/5/3
f 223/4/3 219/4/3 218/4/3
f 224/4/3 219/4/3 223/4/3
f 227/3/3 226/3/3 225/3/3
f 228/3/3 226/3/3 227/3/3
f 229/3/3 226/3/3 228/3/3
f 230/7/3 229/7/3 228/7/3
f 231/3/3 226/3/3 229/3/3
f 231/7/3 229/7/3 230/7/3
f 232/3/3 226/3/3 231/3/3
f 237/7/3 234/7/3 233/7/3
f 238/3/3 235/3/3 234/3/3
f 238/7/3 234/7/3 237/7/3
f 239/3/3 237/3/3 236/3/3
f 239/3/3 238/3/3 237/3/3
f 240/3/3 235/3/3 238/3/3
f 240/3/3 238/3/3 239/3/3
f 241/3/4 242/3/4 243/3/4
f 243/3/4 242/3/4 244/3/4
f 244/3/4 242/3/4 245/3/4
f 244/7/4 245/7/4 246/7/4
f 245/3/4 242/3/4 247/3/4
f 246/7/4 245/7/4 247/7/4
f 247/3/4 242/3/4 248/3/4
f 249/7/4 250/7/4 253/7/4
f 250/3/4 251/3/4 254/3/4
f 253/7/4 250/7/4 254/7/4
f 252/3/4 253/3/4 255/3/4
f 253/3/4 254/3/4 255/3/4
f 254/3/4 251/3/4 256/3/4
f 255/3/4 254/3/4 256/3/4
f 257/4/4 258/4/4 261/4/4
f 258/5/4 259/5/4 262/5/4
f 261/4/4 258/4/4 262/4/4
f 262/5/4 259/5/4 263/5/4
f 259/4/4 260/4/4 264/4/4
f 263/5/4 259/5/4 264/5/4
f 264/4/4 260/4/4 265/4/4
f 262/5/4 263/5/4 266/5/4
f 261/5/4 262/5/4 266/5/4
f 263/3/4 264/3/4 267/3/4
f 266/5/4 263/5/4 267/5/4
f 265/4/4 260/4/4 268/4/4
f 264/5/4 265/5/4 268/5/4
f 268/4/4 260/4/4 269/4/4
f 257/4/4 261/4/4 270/4/4
f 261/5/4 266/5/4 270/5/4
f 266/3/4 267/3/4 271/3/4
f 270/5/4 266/5/4 271/5/4
f 257/4/4 270/4/4 272/4/4
f 270/3/4 271/3/4 273/3/4
f 272/4/4 270/4/4 273/4/4
f 267/3/4 264/3/4 274/3/4
f 273/3/4 271/3/4 274/3/4
f 271/3/4 267/3/4 274/3/4
f 268/5/4 269/5/4 275/5/4
f 274/3/4 264/3/4 275/3/4
f 264/5/4 268/5/4 275/5/4
f 273/3/4 274/3/4 276/3/4
f 274/5/4 275/5/4 277/5/4
f 276/3/4 274/3/4 277/3/4
f 275/5/4 269/5/4 278/5/4
f 277/5/4 275/5/4 278/5/4
f 278/5/4 269/5/4 279/5/4
f 272/5/4 273/5/4 280/5/4
f 273/3/4 276/3/4 281/3/4
f 280/5/4 273/5/4 281/5/4
f 276/5/4 277/5/4 282/5/4
f 281/3/4 276/3/4 282/3/4
f 277/5/4 278/5/4 282/5/4
f 282/5/4 278/5/4 283/5/4
f 278/4/4 279/4/4 284/4/4
f 283/5/4 278/5/4 284/5/4
f 280/4/4 281/4/4 285/4/4
f 282/5/4 283/5/4 286/5/4
f 285/4/4 281/4/4 286/4/4
f 281/5/4 282/5/4 286/5/4
f 283/4/4 284/4/4 287/4/4
f 286/5/4 283/5/4 287/5/4
f 284/4/4 279/4/4 288/4/4
f 287/4/4 284/4/4 288/4/4
f 292/2/5 290/2/5 289/2/5
f 293/2/5 290/2/5 292/2/5
f 295/4/5 292/4/5 291/4/5
f 295/5/5 293/5/5 292/5/5
f 296/4/5 294/4/5 293/4/5
f 296/5/5 293/5/5 295/5/5
f 297/4/5 295/4/5 291/4/5
f 297/4/5 296/4/5 295/4/5
f 298/4/5 296/4/5 297/4/5
f 299/4/5 294/4/5 296/4/5
f 299/4/5 296/4/5 298/4/5
f 300/4/5 294/4/5 299/4/5
f 301/5/5 298/5/5 297/5/5
f 302/4/5 299/4/5 298/4/5
f 302/5/5 298/5/5 301/5/5
f 303/5/5 300/5/5 299/5/5
f 303/4/5 299/4/5 302/4/5
f 304/5/5 300/5/5 303/5/5
f 305/4/5 302/4/5 301/4/5
f 305/4/5 303/4/5 302/4/5
f 305/4/5 304/4/5 303/4/5
f 306/4/5 304/4/5 305/4/5
f 307/4/5 305/4/5 301/4/5
f 308/5/5 306/5/5 305/5/5
f 308/4/5 305/4/5 307/4/5
f 309/4/5 304/4/5 306/4/5
f 309/5/5 306/5/5 308/5/5
f 310/4/5 304/4/5 309/4/5
f 313/6/5 312/6/5 311/6/5
f 314/6/5 312/6/5 313/6/5
f 319/3/5 316/3/5 315/3/5
f 320/3/5 316/3/5 319/3/5
f 321/3/5 318/3/5 317/3/5
f 322/3/5 318/3/5 321/3/5
f 327/7/5 324/7/5 323/7/5
f 328/7/5 324/7/5 327/7/5
f 329/7/5 326/7/5 325/7/5
f 330/7/5 326/7/5 329/7/5
f 335/3/5 332/3/5 331/3/5
f 336/3/5 332/3/5 335/3/5
f 337/3/5 332/3/5 336/3/5
f 338/3/5 334/3/5 333/3/5
f 339/3/5 334/3/5 338/3/5
f 340/3/5 334/3/5 339/3/5
f 341/2/6 342/2/6 343/2/6
f 343/2/6 342/2/6 344/2/6
f 345/8/6 346/8/6 349/8/6
f 349/8/6 346/8/6 350/8/6
f 347/8/6 348/8/6 351/8/6
f 351/8/6 348/8/6 352/8/6
f 353/6/6 354/6/6 355/6/6
f 355/6/6 354/6/6 356/6/6
f 357/3/6 358/3/6 361/3/6
f 361/3/6 358/3/6 362/3/6
f 359/3/6 360/3/6 363/3/6
f 363/3/6 360/3/6 364/3/6
f 365/3/6 366/3/6 369/3/6
f 369/3/6 366/3/6 370/3/6
f 370/3/6 366/3/6 371/3/6
f 367/3/6 368/3/6 372/3/6
f 372/3/6 368/3/6 373/3/6
f 375/5/6 376/5/6 380/5/6
f 376/3/6 377/3/6 381/3/6
f 380/5/6 376/5/6 381/5/6
f 377/5/6 378/5/6 382/5/6
f 381/3/6 377/3/6 382/3/6
f 382/5/6 378/5/6 383/5/6
f 374/4/6 375/4/6 384/4/6
f 375/5/6 380/5/6 385/5/6
f 384/4/6 375/4/6 385/4/6
f 383/5/6 378/5/6 386/5/6
f 378/4/6 379/4/6 386/4/6
f 386/4/6 379/4/6 387/4/6
f 385/5/6 380/5/6 388/5/6
f 384/5/6 385/5/6 388/5/6
f 380/3/6 381/3/6 389/3/6
f 388/5/6 380/5/6 389/5/6
f 381/3/6 382/3/6 389/3/6
f 382/3/6 383/3/6 389/3/6
f 386/5/6 387/5/6 390/5/6
f 389/3/6 383/3/6 390/3/6
f 383/5/6 386/5/6 390/5/6
f 390/5/6 387/5/6 391/5/6
f 384/5/6 388/5/6 392/5/6
f 388/3/6 389/3/6 393/3/6
f 392/5/6 388/5/6 393/5/6
f 389/3/6 390/3/6 393/3/6
f 390/3/6 391/3/6 393/3/6
f 393/3/6 391/3/6 394/3/6
f 391/5/6 387/5/6 395/5/6
f 394/3/6 391/3/6 395/3/6
f 395/5/6 387/5/6 396/5/6
f 393/5/6 394/5/6 397/5/6
f 392/4/6 393/4/6 397/4/6
f 397/5/6 394/5/6 398/5/6
f 394/3/6 395/3/6 399/3/6
f 398/5/6 394/5/6 399/5/6
f 399/3/6 395/3/6 400/3/6
f 395/4/6 396/4/6 401/4/6
f 400/3/6 395/3/6 401/3/6
f 397/4/6 398/4/6 402/4/6
f 392/4/6 397/4/6 402/4/6
f 399/5/6 400/5/6 403/5/6
f 402/4/6 398/4/6 403/4/6
f 398/5/6 399/5/6 403/5/6
f 400/4/6 401/4/6 404/4/6
f 403/5/6 400/5/6 404/5/6
f 401/4/6 396/4/6 405/4/6
f 404/4/6 401/4/6 405/4/6
