# MagicaVoxel @ Ephtracy

# group
o 

# material
mtllib MarbleMazeGroundOnly.mtl
usemtl palette

# normals
vn -1 0 0
vn 1 0 0
vn 0 0 1
vn 0 0 -1
vn 0 -1 0
vn 0 1 0

# texcoords
vt 0.146484 0.5
vt 0.318359 0.5
vt 0.326172 0.5
vt 0.583984 0.5
vt 0.962891 0.5
vt 0.994141 0.5

# verts
v -1 0.1 1.1
v -1 0.1 -1
v -1 0.2 1.1
v -1 0.2 -1
v -0.8 0.1 0.2
v -0.8 0.1 -0.1
v -0.8 0.1 -0.2
v -0.8 0.1 -0.9
v -0.8 0.2 0.2
v -0.8 0.2 -0.1
v -0.8 0.2 -0.2
v -0.8 0.2 -0.9
v -0.6 0.1 0.6
v -0.6 0.1 0.5
v -0.6 0.2 0.6
v -0.6 0.2 0.5
v -0.3 0.1 0
v -0.3 0.1 -0.1
v -0.3 0.2 0
v -0.3 0.2 -0.1
v 0 0.1 -0.2
v 0 0.1 -0.4
v 0 0.2 -0.2
v 0 0.2 -0.4
v 0.1 0.1 0.9
v 0.1 0.1 0.7
v 0.1 0.1 0.5
v 0.1 0.1 0.4
v 0.1 0.2 0.9
v 0.1 0.2 0.7
v 0.1 0.2 0.5
v 0.1 0.2 0.4
v 0.3 0.1 1
v 0.3 0.1 0.8
v 0.3 0.2 1
v 0.3 0.2 0.8
v 0.4 0.1 0.5
v 0.4 0.1 0.4
v 0.4 0.2 0.5
v 0.4 0.2 0.4
v 0.5 0.1 0.9
v 0.5 0.1 0.7
v 0.5 0.2 0.9
v 0.5 0.2 0.7
v 0.6 0.1 0.1
v 0.6 0.1 0
v 0.6 0.2 0.1
v 0.6 0.2 0
v 0.9 0.1 1
v 0.9 0.1 0.3
v 0.9 0.1 -0.3
v 0.9 0.1 -0.5
v 0.9 0.2 1
v 0.9 0.2 0.3
v 0.9 0.2 -0.3
v 0.9 0.2 -0.5
v -0.9 0.1 0.6
v -0.9 0.1 0.5
v -0.9 0.1 0.2
v -0.9 0.1 -0.1
v -0.9 0.1 -0.2
v -0.9 0.1 -0.9
v -0.9 0.2 0.6
v -0.9 0.2 0.5
v -0.9 0.2 0.2
v -0.9 0.2 -0.1
v -0.9 0.2 -0.2
v -0.9 0.2 -0.9
v -0.4 0.1 0
v -0.4 0.1 -0.1
v -0.4 0.2 0
v -0.4 0.2 -0.1
v -0.2 0.1 0.5
v -0.2 0.1 0.4
v -0.2 0.1 -0.2
v -0.2 0.1 -0.4
v -0.2 0.2 0.5
v -0.2 0.2 0.4
v -0.2 0.2 -0.2
v -0.2 0.2 -0.4
v -0.1 0.1 0.8
v -0.1 0.1 0.7
v -0.1 0.2 0.8
v -0.1 0.2 0.7
v 0 0.1 0.9
v 0 0.1 0.8
v 0 0.2 0.9
v 0 0.2 0.8
v 0.2 0.1 1
v 0.2 0.1 0.8
v 0.2 0.2 1
v 0.2 0.2 0.8
v 0.3 0.1 0.5
v 0.3 0.1 0.4
v 0.3 0.2 0.5
v 0.3 0.2 0.4
v 0.4 0.1 0.9
v 0.4 0.1 0.7
v 0.4 0.1 0.1
v 0.4 0.1 0
v 0.4 0.2 0.9
v 0.4 0.2 0.7
v 0.4 0.2 0.1
v 0.4 0.2 0
v 0.7 0.1 -0.3
v 0.7 0.1 -0.5
v 0.7 0.2 -0.3
v 0.7 0.2 -0.5
v 0.8 0.1 1
v 0.8 0.1 0.3
v 0.8 0.2 1
v 0.8 0.2 0.3
v 1 0.1 1.1
v 1 0.1 -1
v 1 0.2 1.1
v 1 0.2 -1
v -1 0.1 1.1
v -1 0.2 1.1
v 1 0.1 1.1
v 1 0.2 1.1
v 0.2 0.1 0.8
v 0.2 0.2 0.8
v 0.3 0.1 0.8
v 0.3 0.2 0.8
v -0.1 0.1 0.7
v -0.1 0.2 0.7
v 0.1 0.1 0.7
v 0.1 0.2 0.7
v 0.4 0.1 0.7
v 0.4 0.2 0.7
v 0.5 0.1 0.7
v 0.5 0.2 0.7
v -0.9 0.1 0.5
v -0.9 0.2 0.5
v -0.6 0.1 0.5
v -0.6 0.2 0.5
v -0.2 0.1 0.4
v -0.2 0.2 0.4
v 0.1 0.1 0.4
v 0.1 0.2 0.4
v 0.3 0.1 0.4
v 0.3 0.2 0.4
v 0.4 0.1 0.4
v 0.4 0.2 0.4
v 0.8 0.1 0.3
v 0.8 0.2 0.3
v 0.9 0.1 0.3
v 0.9 0.2 0.3
v 0.4 0.1 0
v 0.4 0.2 0
v 0.6 0.1 0
v 0.6 0.2 0
v -0.9 0.1 -0.1
v -0.9 0.2 -0.1
v -0.8 0.1 -0.1
v -0.8 0.2 -0.1
v -0.4 0.1 -0.1
v -0.4 0.2 -0.1
v -0.3 0.1 -0.1
v -0.3 0.2 -0.1
v -0.2 0.1 -0.4
v -0.2 0.2 -0.4
v 0 0.1 -0.4
v 0 0.2 -0.4
v 0.7 0.1 -0.5
v 0.7 0.2 -0.5
v 0.9 0.1 -0.5
v 0.9 0.2 -0.5
v -0.9 0.1 -0.9
v -0.9 0.2 -0.9
v -0.8 0.1 -0.9
v -0.8 0.2 -0.9
v 0.2 0.1 1
v 0.2 0.2 1
v 0.3 0.1 1
v 0.3 0.2 1
v 0.8 0.1 1
v 0.8 0.2 1
v 0.9 0.1 1
v 0.9 0.2 1
v 0 0.1 0.9
v 0 0.2 0.9
v 0.1 0.1 0.9
v 0.1 0.2 0.9
v 0.4 0.1 0.9
v 0.4 0.2 0.9
v 0.5 0.1 0.9
v 0.5 0.2 0.9
v -0.1 0.1 0.8
v -0.1 0.2 0.8
v 0 0.1 0.8
v 0 0.2 0.8
v -0.9 0.1 0.6
v -0.9 0.2 0.6
v -0.6 0.1 0.6
v -0.6 0.2 0.6
v -0.2 0.1 0.5
v -0.2 0.2 0.5
v 0.1 0.1 0.5
v 0.1 0.2 0.5
v 0.3 0.1 0.5
v 0.3 0.2 0.5
v 0.4 0.1 0.5
v 0.4 0.2 0.5
v -0.9 0.1 0.2
v -0.9 0.2 0.2
v -0.8 0.1 0.2
v -0.8 0.2 0.2
v 0.4 0.1 0.1
v 0.4 0.2 0.1
v 0.6 0.1 0.1
v 0.6 0.2 0.1
v -0.4 0.1 0
v -0.4 0.2 0
v -0.3 0.1 0
v -0.3 0.2 0
v -0.9 0.1 -0.2
v -0.9 0.2 -0.2
v -0.8 0.1 -0.2
v -0.8 0.2 -0.2
v -0.2 0.1 -0.2
v -0.2 0.2 -0.2
v 0 0.1 -0.2
v 0 0.2 -0.2
v 0.7 0.1 -0.3
v 0.7 0.2 -0.3
v 0.9 0.1 -0.3
v 0.9 0.2 -0.3
v -1 0.1 -1
v -1 0.2 -1
v 1 0.1 -1
v 1 0.2 -1
v -1 0.1 1.1
v 1 0.1 1.1
v -0.9 0.1 1
v -0.8 0.1 1
v -0.7 0.1 1
v -0.6 0.1 1
v -0.5 0.1 1
v -0.4 0.1 1
v -0.3 0.1 1
v -0.2 0.1 1
v 0.2 0.1 1
v 0.3 0.1 1
v 0.8 0.1 1
v 0.9 0.1 1
v -0.9 0.1 0.9
v -0.8 0.1 0.9
v -0.7 0.1 0.9
v -0.6 0.1 0.9
v -0.5 0.1 0.9
v -0.4 0.1 0.9
v -0.3 0.1 0.9
v -0.2 0.1 0.9
v -0.1 0.1 0.9
v 0 0.1 0.9
v 0.1 0.1 0.9
v 0.4 0.1 0.9
v 0.5 0.1 0.9
v -0.9 0.1 0.8
v -0.8 0.1 0.8
v -0.7 0.1 0.8
v -0.6 0.1 0.8
v -0.5 0.1 0.8
v -0.4 0.1 0.8
v -0.3 0.1 0.8
v -0.2 0.1 0.8
v -0.1 0.1 0.8
v 0 0.1 0.8
v 0.2 0.1 0.8
v 0.3 0.1 0.8
v -0.9 0.1 0.7
v -0.8 0.1 0.7
v -0.7 0.1 0.7
v -0.6 0.1 0.7
v -0.5 0.1 0.7
v -0.4 0.1 0.7
v -0.3 0.1 0.7
v -0.2 0.1 0.7
v -0.1 0.1 0.7
v 0.1 0.1 0.7
v 0.4 0.1 0.7
v 0.5 0.1 0.7
v -0.9 0.1 0.6
v -0.6 0.1 0.6
v -0.9 0.1 0.5
v -0.6 0.1 0.5
v -0.2 0.1 0.5
v 0.1 0.1 0.5
v 0.3 0.1 0.5
v 0.4 0.1 0.5
v -0.2 0.1 0.4
v 0.1 0.1 0.4
v 0.3 0.1 0.4
v 0.4 0.1 0.4
v 0.8 0.1 0.3
v 0.9 0.1 0.3
v -0.9 0.1 0.2
v -0.8 0.1 0.2
v 0.4 0.1 0.1
v 0.6 0.1 0.1
v -0.4 0.1 0
v -0.3 0.1 0
v 0.4 0.1 0
v 0.6 0.1 0
v -0.9 0.1 -0.1
v -0.8 0.1 -0.1
v -0.4 0.1 -0.1
v -0.3 0.1 -0.1
v -0.9 0.1 -0.2
v -0.8 0.1 -0.2
v -0.2 0.1 -0.2
v 0 0.1 -0.2
v 0.7 0.1 -0.3
v 0.9 0.1 -0.3
v -0.2 0.1 -0.4
v 0 0.1 -0.4
v 0.7 0.1 -0.5
v 0.9 0.1 -0.5
v 0.5 0.1 -0.6
v 0.9 0.1 -0.6
v -0.9 0.1 -0.9
v -0.8 0.1 -0.9
v 0.5 0.1 -0.9
v 0.9 0.1 -0.9
v -1 0.1 -1
v 1 0.1 -1
v -1 0.2 1.1
v 1 0.2 1.1
v -0.9 0.2 1
v -0.8 0.2 1
v -0.7 0.2 1
v -0.6 0.2 1
v -0.5 0.2 1
v -0.4 0.2 1
v -0.3 0.2 1
v -0.2 0.2 1
v 0.2 0.2 1
v 0.3 0.2 1
v 0.8 0.2 1
v 0.9 0.2 1
v -0.9 0.2 0.9
v -0.8 0.2 0.9
v -0.7 0.2 0.9
v -0.6 0.2 0.9
v -0.5 0.2 0.9
v -0.4 0.2 0.9
v -0.3 0.2 0.9
v -0.2 0.2 0.9
v -0.1 0.2 0.9
v 0 0.2 0.9
v 0.1 0.2 0.9
v 0.4 0.2 0.9
v 0.5 0.2 0.9
v -0.9 0.2 0.8
v -0.8 0.2 0.8
v -0.7 0.2 0.8
v -0.6 0.2 0.8
v -0.5 0.2 0.8
v -0.4 0.2 0.8
v -0.3 0.2 0.8
v -0.2 0.2 0.8
v -0.1 0.2 0.8
v 0 0.2 0.8
v 0.2 0.2 0.8
v 0.3 0.2 0.8
v -0.9 0.2 0.7
v -0.8 0.2 0.7
v -0.7 0.2 0.7
v -0.6 0.2 0.7
v -0.5 0.2 0.7
v -0.4 0.2 0.7
v -0.3 0.2 0.7
v -0.2 0.2 0.7
v -0.1 0.2 0.7
v 0.1 0.2 0.7
v 0.4 0.2 0.7
v 0.5 0.2 0.7
v -0.9 0.2 0.6
v -0.6 0.2 0.6
v -0.9 0.2 0.5
v -0.6 0.2 0.5
v -0.2 0.2 0.5
v 0.1 0.2 0.5
v 0.3 0.2 0.5
v 0.4 0.2 0.5
v -0.2 0.2 0.4
v 0.1 0.2 0.4
v 0.3 0.2 0.4
v 0.4 0.2 0.4
v 0.8 0.2 0.3
v 0.9 0.2 0.3
v -0.9 0.2 0.2
v -0.8 0.2 0.2
v 0.4 0.2 0.1
v 0.6 0.2 0.1
v -0.4 0.2 0
v -0.3 0.2 0
v 0.4 0.2 0
v 0.6 0.2 0
v -0.9 0.2 -0.1
v -0.8 0.2 -0.1
v -0.4 0.2 -0.1
v -0.3 0.2 -0.1
v -0.9 0.2 -0.2
v -0.8 0.2 -0.2
v -0.2 0.2 -0.2
v 0 0.2 -0.2
v 0.7 0.2 -0.3
v 0.9 0.2 -0.3
v -0.2 0.2 -0.4
v 0 0.2 -0.4
v 0.7 0.2 -0.5
v 0.9 0.2 -0.5
v 0.5 0.2 -0.6
v 0.9 0.2 -0.6
v -0.9 0.2 -0.9
v -0.8 0.2 -0.9
v 0.5 0.2 -0.9
v 0.9 0.2 -0.9
v -1 0.2 -1
v 1 0.2 -1

# faces
f 3/2/1 2/2/1 1/2/1
f 4/2/1 2/2/1 3/2/1
f 9/3/1 6/3/1 5/3/1
f 10/3/1 6/3/1 9/3/1
f 11/3/1 8/3/1 7/3/1
f 12/3/1 8/3/1 11/3/1
f 15/3/1 14/3/1 13/3/1
f 16/3/1 14/3/1 15/3/1
f 19/3/1 18/3/1 17/3/1
f 20/3/1 18/3/1 19/3/1
f 23/3/1 22/3/1 21/3/1
f 24/3/1 22/3/1 23/3/1
f 29/3/1 26/3/1 25/3/1
f 30/3/1 26/3/1 29/3/1
f 31/3/1 28/3/1 27/3/1
f 32/3/1 28/3/1 31/3/1
f 35/3/1 34/3/1 33/3/1
f 36/3/1 34/3/1 35/3/1
f 39/3/1 38/3/1 37/3/1
f 40/3/1 38/3/1 39/3/1
f 43/3/1 42/3/1 41/3/1
f 44/3/1 42/3/1 43/3/1
f 47/3/1 46/3/1 45/3/1
f 48/3/1 46/3/1 47/3/1
f 53/2/1 50/2/1 49/2/1
f 54/2/1 50/2/1 53/2/1
f 55/2/1 52/2/1 51/2/1
f 56/2/1 52/2/1 55/2/1
f 57/2/2 58/2/2 63/2/2
f 63/2/2 58/2/2 64/2/2
f 59/2/2 60/2/2 65/2/2
f 65/2/2 60/2/2 66/2/2
f 61/2/2 62/2/2 67/2/2
f 67/2/2 62/2/2 68/2/2
f 69/3/2 70/3/2 71/3/2
f 71/3/2 70/3/2 72/3/2
f 73/3/2 74/3/2 77/3/2
f 77/3/2 74/3/2 78/3/2
f 75/3/2 76/3/2 79/3/2
f 79/3/2 76/3/2 80/3/2
f 81/3/2 82/3/2 83/3/2
f 83/3/2 82/3/2 84/3/2
f 85/3/2 86/3/2 87/3/2
f 87/3/2 86/3/2 88/3/2
f 89/3/2 90/3/2 91/3/2
f 91/3/2 90/3/2 92/3/2
f 93/3/2 94/3/2 95/3/2
f 95/3/2 94/3/2 96/3/2
f 97/3/2 98/3/2 101/3/2
f 101/3/2 98/3/2 102/3/2
f 99/3/2 100/3/2 103/3/2
f 103/3/2 100/3/2 104/3/2
f 105/3/2 106/3/2 107/3/2
f 107/3/2 106/3/2 108/3/2
f 109/3/2 110/3/2 111/3/2
f 111/3/2 110/3/2 112/3/2
f 113/2/2 114/2/2 115/2/2
f 115/2/2 114/2/2 116/2/2
f 119/2/3 118/2/3 117/2/3
f 120/2/3 118/2/3 119/2/3
f 123/3/3 122/3/3 121/3/3
f 124/3/3 122/3/3 123/3/3
f 127/3/3 126/3/3 125/3/3
f 128/3/3 126/3/3 127/3/3
f 131/3/3 130/3/3 129/3/3
f 132/3/3 130/3/3 131/3/3
f 135/3/3 134/3/3 133/3/3
f 136/3/3 134/3/3 135/3/3
f 139/3/3 138/3/3 137/3/3
f 140/3/3 138/3/3 139/3/3
f 143/3/3 142/3/3 141/3/3
f 144/3/3 142/3/3 143/3/3
f 147/3/3 146/3/3 145/3/3
f 148/3/3 146/3/3 147/3/3
f 151/3/3 150/3/3 149/3/3
f 152/3/3 150/3/3 151/3/3
f 155/3/3 154/3/3 153/3/3
f 156/3/3 154/3/3 155/3/3
f 159/3/3 158/3/3 157/3/3
f 160/3/3 158/3/3 159/3/3
f 163/3/3 162/3/3 161/3/3
f 164/3/3 162/3/3 163/3/3
f 167/3/3 166/3/3 165/3/3
f 168/3/3 166/3/3 167/3/3
f 171/2/3 170/2/3 169/2/3
f 172/2/3 170/2/3 171/2/3
f 173/2/4 174/2/4 175/2/4
f 175/2/4 174/2/4 176/2/4
f 177/2/4 178/2/4 179/2/4
f 179/2/4 178/2/4 180/2/4
f 181/3/4 182/3/4 183/3/4
f 183/3/4 182/3/4 184/3/4
f 185/3/4 186/3/4 187/3/4
f 187/3/4 186/3/4 188/3/4
f 189/3/4 190/3/4 191/3/4
f 191/3/4 190/3/4 192/3/4
f 193/3/4 194/3/4 195/3/4
f 195/3/4 194/3/4 196/3/4
f 197/3/4 198/3/4 199/3/4
f 199/3/4 198/3/4 200/3/4
f 201/3/4 202/3/4 203/3/4
f 203/3/4 202/3/4 204/3/4
f 205/3/4 206/3/4 207/3/4
f 207/3/4 206/3/4 208/3/4
f 209/3/4 210/3/4 211/3/4
f 211/3/4 210/3/4 212/3/4
f 213/3/4 214/3/4 215/3/4
f 215/3/4 214/3/4 216/3/4
f 217/3/4 218/3/4 219/3/4
f 219/3/4 218/3/4 220/3/4
f 221/3/4 222/3/4 223/3/4
f 223/3/4 222/3/4 224/3/4
f 225/3/4 226/3/4 227/3/4
f 227/3/4 226/3/4 228/3/4
f 229/2/4 230/2/4 231/2/4
f 231/2/4 230/2/4 232/2/4
f 235/2/5 234/2/5 233/2/5
f 236/2/5 234/2/5 235/2/5
f 237/2/5 234/2/5 236/2/5
f 238/2/5 234/2/5 237/2/5
f 239/2/5 234/2/5 238/2/5
f 240/2/5 234/2/5 239/2/5
f 241/2/5 234/2/5 240/2/5
f 242/2/5 234/2/5 241/2/5
f 243/2/5 234/2/5 242/2/5
f 244/2/5 234/2/5 243/2/5
f 245/2/5 234/2/5 244/2/5
f 246/2/5 234/2/5 245/2/5
f 247/2/5 235/2/5 233/2/5
f 247/6/5 236/6/5 235/6/5
f 248/5/5 237/5/5 236/5/5
f 248/6/5 236/6/5 247/6/5
f 249/6/5 238/6/5 237/6/5
f 249/5/5 237/5/5 248/5/5
f 250/5/5 239/5/5 238/5/5
f 250/6/5 238/6/5 249/6/5
f 251/6/5 240/6/5 239/6/5
f 251/5/5 239/5/5 250/5/5
f 252/5/5 241/5/5 240/5/5
f 252/6/5 240/6/5 251/6/5
f 253/6/5 242/6/5 241/6/5
f 253/5/5 241/5/5 252/5/5
f 254/3/5 243/3/5 242/3/5
f 254/6/5 242/6/5 253/6/5
f 255/3/5 243/3/5 254/3/5
f 256/3/5 243/3/5 255/3/5
f 257/3/5 243/3/5 256/3/5
f 258/3/5 245/3/5 244/3/5
f 259/3/5 245/3/5 258/3/5
f 260/2/5 247/2/5 233/2/5
f 260/5/5 248/5/5 247/5/5
f 261/6/5 249/6/5 248/6/5
f 261/5/5 248/5/5 260/5/5
f 262/5/5 250/5/5 249/5/5
f 262/6/5 249/6/5 261/6/5
f 263/6/5 251/6/5 250/6/5
f 263/5/5 250/5/5 262/5/5
f 264/5/5 252/5/5 251/5/5
f 264/6/5 251/6/5 263/6/5
f 265/6/5 253/6/5 252/6/5
f 265/5/5 252/5/5 264/5/5
f 266/5/5 254/5/5 253/5/5
f 266/6/5 253/6/5 265/6/5
f 267/1/5 255/1/5 254/1/5
f 267/5/5 254/5/5 266/5/5
f 268/3/5 256/3/5 255/3/5
f 268/1/5 255/1/5 267/1/5
f 269/3/5 256/3/5 268/3/5
f 270/3/5 243/3/5 257/3/5
f 271/3/5 258/3/5 244/3/5
f 272/2/5 260/2/5 233/2/5
f 272/6/5 261/6/5 260/6/5
f 273/5/5 262/5/5 261/5/5
f 273/6/5 261/6/5 272/6/5
f 274/6/5 263/6/5 262/6/5
f 274/5/5 262/5/5 273/5/5
f 275/5/5 264/5/5 263/5/5
f 275/6/5 263/6/5 274/6/5
f 276/6/5 265/6/5 264/6/5
f 276/5/5 264/5/5 275/5/5
f 277/5/5 266/5/5 265/5/5
f 277/6/5 265/6/5 276/6/5
f 278/6/5 267/6/5 266/6/5
f 278/5/5 266/5/5 277/5/5
f 279/3/5 268/3/5 267/3/5
f 279/6/5 267/6/5 278/6/5
f 280/3/5 268/3/5 279/3/5
f 281/3/5 271/3/5 270/3/5
f 281/3/5 270/3/5 257/3/5
f 282/3/5 258/3/5 271/3/5
f 282/3/5 271/3/5 281/3/5
f 283/3/5 245/3/5 259/3/5
f 284/3/5 280/3/5 279/3/5
f 284/3/5 283/3/5 282/3/5
f 284/3/5 282/3/5 281/3/5
f 284/3/5 279/3/5 278/3/5
f 284/3/5 281/3/5 280/3/5
f 284/3/5 278/3/5 277/3/5
f 284/3/5 277/3/5 276/3/5
f 284/3/5 276/3/5 275/3/5
f 284/3/5 275/3/5 274/3/5
f 284/3/5 274/3/5 273/3/5
f 284/3/5 273/3/5 272/3/5
f 284/2/5 272/2/5 233/2/5
f 285/3/5 283/3/5 284/3/5
f 286/2/5 284/2/5 233/2/5
f 287/3/5 283/3/5 285/3/5
f 288/3/5 283/3/5 287/3/5
f 289/3/5 283/3/5 288/3/5
f 290/3/5 283/3/5 289/3/5
f 291/3/5 283/3/5 290/3/5
f 292/3/5 287/3/5 286/3/5
f 292/3/5 288/3/5 287/3/5
f 293/3/5 290/3/5 289/3/5
f 294/3/5 290/3/5 293/3/5
f 295/3/5 283/3/5 291/3/5
f 296/3/5 245/3/5 283/3/5
f 296/3/5 295/3/5 294/3/5
f 296/3/5 283/3/5 295/3/5
f 296/3/5 294/3/5 293/3/5
f 296/3/5 293/3/5 292/3/5
f 297/2/5 234/2/5 246/2/5
f 298/3/5 296/3/5 292/3/5
f 298/3/5 297/3/5 296/3/5
f 298/2/5 286/2/5 233/2/5
f 298/3/5 292/3/5 286/3/5
f 299/3/5 297/3/5 298/3/5
f 300/3/5 297/3/5 299/3/5
f 301/3/5 297/3/5 300/3/5
f 302/3/5 300/3/5 299/3/5
f 303/3/5 300/3/5 302/3/5
f 304/3/5 300/3/5 303/3/5
f 305/3/5 297/3/5 301/3/5
f 306/2/5 298/2/5 233/2/5
f 307/3/5 302/3/5 299/3/5
f 308/3/5 302/3/5 307/3/5
f 309/3/5 305/3/5 304/3/5
f 309/3/5 304/3/5 303/3/5
f 310/3/5 308/3/5 307/3/5
f 310/3/5 309/3/5 308/3/5
f 310/3/5 307/3/5 306/3/5
f 310/2/5 306/2/5 233/2/5
f 311/3/5 309/3/5 310/3/5
f 312/3/5 305/3/5 309/3/5
f 312/3/5 309/3/5 311/3/5
f 313/3/5 305/3/5 312/3/5
f 314/3/5 305/3/5 313/3/5
f 314/3/5 297/3/5 305/3/5
f 315/2/5 234/2/5 297/2/5
f 315/3/5 297/3/5 314/3/5
f 316/3/5 312/3/5 311/3/5
f 317/3/5 314/3/5 313/3/5
f 318/3/5 314/3/5 317/3/5
f 318/3/5 317/3/5 316/3/5
f 319/2/5 234/2/5 315/2/5
f 320/3/5 318/3/5 316/3/5
f 320/3/5 319/3/5 318/3/5
f 321/2/5 234/2/5 319/2/5
f 321/3/5 319/3/5 320/3/5
f 322/2/5 310/2/5 233/2/5
f 323/3/5 316/3/5 311/3/5
f 323/3/5 320/3/5 316/3/5
f 324/4/5 321/4/5 320/4/5
f 324/3/5 320/3/5 323/3/5
f 325/2/5 234/2/5 321/2/5
f 325/4/5 321/4/5 324/4/5
f 326/2/5 322/2/5 233/2/5
f 326/2/5 323/2/5 322/2/5
f 326/2/5 325/2/5 324/2/5
f 326/2/5 324/2/5 323/2/5
f 327/2/5 234/2/5 325/2/5
f 327/2/5 325/2/5 326/2/5
f 328/2/6 329/2/6 330/2/6
f 330/2/6 329/2/6 331/2/6
f 331/2/6 329/2/6 332/2/6
f 332/2/6 329/2/6 333/2/6
f 333/2/6 329/2/6 334/2/6
f 334/2/6 329/2/6 335/2/6
f 335/2/6 329/2/6 336/2/6
f 336/2/6 329/2/6 337/2/6
f 337/2/6 329/2/6 338/2/6
f 338/2/6 329/2/6 339/2/6
f 339/2/6 329/2/6 340/2/6
f 340/2/6 329/2/6 341/2/6
f 328/2/6 330/2/6 342/2/6
f 330/6/6 331/6/6 342/6/6
f 331/5/6 332/5/6 343/5/6
f 342/6/6 331/6/6 343/6/6
f 332/6/6 333/6/6 344/6/6
f 343/5/6 332/5/6 344/5/6
f 333/5/6 334/5/6 345/5/6
f 344/6/6 333/6/6 345/6/6
f 334/6/6 335/6/6 346/6/6
f 345/5/6 334/5/6 346/5/6
f 335/5/6 336/5/6 347/5/6
f 346/6/6 335/6/6 347/6/6
f 336/6/6 337/6/6 348/6/6
f 347/5/6 336/5/6 348/5/6
f 337/3/6 338/3/6 349/3/6
f 348/6/6 337/6/6 349/6/6
f 349/3/6 338/3/6 350/3/6
f 350/3/6 338/3/6 351/3/6
f 351/3/6 338/3/6 352/3/6
f 339/3/6 340/3/6 353/3/6
f 353/3/6 340/3/6 354/3/6
f 328/2/6 342/2/6 355/2/6
f 342/5/6 343/5/6 355/5/6
f 343/6/6 344/6/6 356/6/6
f 355/5/6 343/5/6 356/5/6
f 344/5/6 345/5/6 357/5/6
f 356/6/6 344/6/6 357/6/6
f 345/6/6 346/6/6 358/6/6
f 357/5/6 345/5/6 358/5/6
f 346/5/6 347/5/6 359/5/6
f 358/6/6 346/6/6 359/6/6
f 347/6/6 348/6/6 360/6/6
f 359/5/6 347/5/6 360/5/6
f 348/5/6 349/5/6 361/5/6
f 360/6/6 348/6/6 361/6/6
f 349/1/6 350/1/6 362/1/6
f 361/5/6 349/5/6 362/5/6
f 350/3/6 351/3/6 363/3/6
f 362/1/6 350/1/6 363/1/6
f 363/3/6 351/3/6 364/3/6
f 352/3/6 338/3/6 365/3/6
f 339/3/6 353/3/6 366/3/6
f 328/2/6 355/2/6 367/2/6
f 355/6/6 356/6/6 367/6/6
f 356/5/6 357/5/6 368/5/6
f 367/6/6 356/6/6 368/6/6
f 357/6/6 358/6/6 369/6/6
f 368/5/6 357/5/6 369/5/6
f 358/5/6 359/5/6 370/5/6
f 369/6/6 358/6/6 370/6/6
f 359/6/6 360/6/6 371/6/6
f 370/5/6 359/5/6 371/5/6
f 360/5/6 361/5/6 372/5/6
f 371/6/6 360/6/6 372/6/6
f 361/6/6 362/6/6 373/6/6
f 372/5/6 361/5/6 373/5/6
f 362/3/6 363/3/6 374/3/6
f 373/6/6 362/6/6 374/6/6
f 374/3/6 363/3/6 375/3/6
f 365/3/6 366/3/6 376/3/6
f 352/3/6 365/3/6 376/3/6
f 366/3/6 353/3/6 377/3/6
f 376/3/6 366/3/6 377/3/6
f 354/3/6 340/3/6 378/3/6
f 374/3/6 375/3/6 379/3/6
f 377/3/6 378/3/6 379/3/6
f 376/3/6 377/3/6 379/3/6
f 373/3/6 374/3/6 379/3/6
f 375/3/6 376/3/6 379/3/6
f 372/3/6 373/3/6 379/3/6
f 371/3/6 372/3/6 379/3/6
f 370/3/6 371/3/6 379/3/6
f 369/3/6 370/3/6 379/3/6
f 368/3/6 369/3/6 379/3/6
f 367/3/6 368/3/6 379/3/6
f 328/2/6 367/2/6 379/2/6
f 379/3/6 378/3/6 380/3/6
f 328/2/6 379/2/6 381/2/6
f 380/3/6 378/3/6 382/3/6
f 382/3/6 378/3/6 383/3/6
f 383/3/6 378/3/6 384/3/6
f 384/3/6 378/3/6 385/3/6
f 385/3/6 378/3/6 386/3/6
f 381/3/6 382/3/6 387/3/6
f 382/3/6 383/3/6 387/3/6
f 384/3/6 385/3/6 388/3/6
f 388/3/6 385/3/6 389/3/6
f 386/3/6 378/3/6 390/3/6
f 378/3/6 340/3/6 391/3/6
f 389/3/6 390/3/6 391/3/6
f 390/3/6 378/3/6 391/3/6
f 388/3/6 389/3/6 391/3/6
f 387/3/6 388/3/6 391/3/6
f 341/2/6 329/2/6 392/2/6
f 387/3/6 391/3/6 393/3/6
f 391/3/6 392/3/6 393/3/6
f 328/2/6 381/2/6 393/2/6
f 381/3/6 387/3/6 393/3/6
f 393/3/6 392/3/6 394/3/6
f 394/3/6 392/3/6 395/3/6
f 395/3/6 392/3/6 396/3/6
f 394/3/6 395/3/6 397/3/6
f 397/3/6 395/3/6 398/3/6
f 398/3/6 395/3/6 399/3/6
f 396/3/6 392/3/6 400/3/6
f 328/2/6 393/2/6 401/2/6
f 394/3/6 397/3/6 402/3/6
f 402/3/6 397/3/6 403/3/6
f 399/3/6 400/3/6 404/3/6
f 398/3/6 399/3/6 404/3/6
f 402/3/6 403/3/6 405/3/6
f 403/3/6 404/3/6 405/3/6
f 401/3/6 402/3/6 405/3/6
f 328/2/6 401/2/6 405/2/6
f 405/3/6 404/3/6 406/3/6
f 404/3/6 400/3/6 407/3/6
f 406/3/6 404/3/6 407/3/6
f 407/3/6 400/3/6 408/3/6
f 408/3/6 400/3/6 409/3/6
f 400/3/6 392/3/6 409/3/6
f 392/2/6 329/2/6 410/2/6
f 409/3/6 392/3/6 410/3/6
f 406/3/6 407/3/6 411/3/6
f 408/3/6 409/3/6 412/3/6
f 412/3/6 409/3/6 413/3/6
f 411/3/6 412/3/6 413/3/6
f 410/2/6 329/2/6 414/2/6
f 411/3/6 413/3/6 415/3/6
f 413/3/6 414/3/6 415/3/6
f 414/2/6 329/2/6 416/2/6
f 415/3/6 414/3/6 416/3/6
f 328/2/6 405/2/6 417/2/6
f 406/3/6 411/3/6 418/3/6
f 411/3/6 415/3/6 418/3/6
f 415/4/6 416/4/6 419/4/6
f 418/3/6 415/3/6 419/3/6
f 416/2/6 329/2/6 420/2/6
f 419/4/6 416/4/6 420/4/6
f 328/2/6 417/2/6 421/2/6
f 417/2/6 418/2/6 421/2/6
f 419/2/6 420/2/6 421/2/6
f 418/2/6 419/2/6 421/2/6
f 420/2/6 329/2/6 422/2/6
f 421/2/6 420/2/6 422/2/6
