# MagicaVoxel @ Ephtracy

# group
o 

# material
mtllib maze_lvl_4.mtl
usemtl palette

# normals
vn -1 0 0
vn 1 0 0
vn 0 0 1
vn 0 0 -1
vn 0 -1 0
vn 0 1 0

# texcoords
vt 0.876953 0.5
vt 0.900391 0.5
vt 0.958984 0.5
vt 0.990234 0.5
vt 0.994141 0.5

# verts
v -0.7 0.3 0.6
v -0.7 0.3 0
v -0.7 0.4 0.4
v -0.7 0.4 0
v -0.7 0.5 0.6
v -0.7 0.5 0.4
v -0.6 0.2 0.6
v -0.6 0.2 0.1
v -0.6 0.3 0.6
v -0.6 0.3 0.1
v -0.4 0.9 -0.5
v -0.4 0.9 -0.8
v -0.4 1 -0.5
v -0.4 1 -0.8
v -0.3 0.1 0.6
v -0.3 0.1 0.4
v -0.3 0.2 0.6
v -0.3 0.2 0.4
v -0.3 0.8 -0.5
v -0.3 0.8 -0.7
v -0.3 0.9 -0.2
v -0.3 0.9 -0.3
v -0.3 0.9 -0.4
v -0.3 0.9 -0.5
v -0.3 0.9 -0.7
v -0.3 1 -0.2
v -0.3 1 -0.3
v -0.3 1 -0.4
v -0.2 0.3 0.3
v -0.2 0.3 0.1
v -0.2 0.4 0.3
v -0.2 0.4 0.1
v 0 0.4 0.3
v 0 0.4 0.1
v 0 0.5 0.3
v 0 0.5 0.1
v 0.2 0 0.6
v 0.2 0 0.4
v 0.2 0.1 0.6
v 0.2 0.1 0.4
v 0.2 0.5 0.3
v 0.2 0.5 0.1
v 0.2 0.6 0.4
v 0.2 0.6 0.3
v 0.2 0.6 0.1
v 0.2 0.7 0.4
v 0.2 0.7 0.3
v 0.5 0.5 0.1
v 0.5 0.5 0
v 0.5 0.6 0.1
v 0.5 0.6 0
v 0.5 0.6 -0.2
v 0.5 0.7 0
v 0.5 0.7 -0.2
v 0.5 0.7 -0.4
v 0.5 0.8 -0.2
v 0.5 0.8 -0.4
v 0.5 1 -0.7
v 0.5 1 -0.8
v 0.5 1.1 -0.7
v 0.5 1.1 -0.8
v 0.6 0.7 -0.4
v 0.6 0.7 -0.5
v 0.6 0.8 -0.4
v 0.6 0.8 -0.5
v 0.7 0.6 0.3
v 0.7 0.6 0
v 0.7 0.7 0.3
v 0.7 0.7 0
v 0.7 0.7 -0.2
v 0.7 0.8 0.3
v 0.7 0.8 0
v 0.7 0.8 -0.2
v 0.7 0.8 -0.5
v 0.7 0.9 0
v 0.7 0.9 -0.2
v 0.7 0.9 -0.5
v 0.7 0.9 -0.7
v 0.7 1 -0.2
v 0.7 1 -0.5
v 0.7 1.1 -0.5
v 0.7 1.1 -0.7
v -0.6 0.3 0.6
v -0.6 0.3 0.1
v -0.6 0.4 0.4
v -0.6 0.4 0.1
v -0.6 0.5 0.6
v -0.6 0.5 0.4
v -0.4 0.2 0.6
v -0.4 0.2 0.3
v -0.4 0.3 0.6
v -0.4 0.3 0.3
v -0.3 0.2 0.3
v -0.3 0.2 0.1
v -0.3 0.3 0.3
v -0.3 0.3 0.1
v -0.3 0.3 0
v -0.3 0.4 0.1
v -0.3 0.4 0
v -0.3 0.9 -0.5
v -0.3 0.9 -0.7
v -0.3 1 -0.5
v -0.3 1 -0.7
v -0.1 0.3 0.3
v -0.1 0.3 0.1
v -0.1 0.4 0.3
v -0.1 0.4 0.1
v -0.1 0.9 -0.2
v -0.1 0.9 -0.3
v -0.1 0.9 -0.4
v -0.1 1 -0.2
v -0.1 1 -0.3
v -0.1 1 -0.4
v 0.1 0.1 0.6
v 0.1 0.1 0.4
v 0.1 0.2 0.6
v 0.1 0.2 0.4
v 0.1 0.4 0.3
v 0.1 0.4 0.1
v 0.1 0.5 0.3
v 0.1 0.5 0.1
v 0.7 0 0.6
v 0.7 0 0.4
v 0.7 0.1 0.6
v 0.7 0.1 0.4
v 0.7 0.5 0.3
v 0.7 0.5 0
v 0.7 0.6 0.3
v 0.7 0.6 0
v 0.7 0.6 -0.1
v 0.7 0.6 -0.2
v 0.7 0.7 -0.1
v 0.7 0.7 -0.2
v 0.7 0.8 -0.5
v 0.7 0.8 -0.7
v 0.7 0.9 -0.5
v 0.7 0.9 -0.7
v 0.8 0.6 0.4
v 0.8 0.6 -0.1
v 0.8 0.7 0.4
v 0.8 0.7 0.3
v 0.8 0.7 -0.1
v 0.8 0.7 -0.5
v 0.8 0.8 0.3
v 0.8 0.8 0
v 0.8 0.9 0
v 0.8 0.9 -0.2
v 0.8 0.9 -0.5
v 0.8 0.9 -0.8
v 0.8 1 -0.2
v 0.8 1 -0.5
v 0.8 1.1 -0.5
v 0.8 1.1 -0.8
v -0.7 0.3 0.6
v -0.7 0.5 0.6
v -0.6 0.2 0.6
v -0.6 0.3 0.6
v -0.6 0.5 0.6
v -0.4 0.2 0.6
v -0.4 0.3 0.6
v -0.3 0.1 0.6
v -0.3 0.2 0.6
v 0.1 0.1 0.6
v 0.1 0.2 0.6
v 0.2 0 0.6
v 0.2 0.1 0.6
v 0.5 0 0.6
v 0.5 0.1 0.6
v 0.7 0 0.6
v 0.7 0.1 0.6
v 0.2 0.6 0.4
v 0.2 0.7 0.4
v 0.8 0.6 0.4
v 0.8 0.7 0.4
v -0.4 0.2 0.3
v -0.4 0.3 0.3
v -0.3 0.2 0.3
v -0.3 0.3 0.3
v -0.2 0.3 0.3
v -0.2 0.4 0.3
v -0.1 0.3 0.3
v -0.1 0.4 0.3
v 0 0.4 0.3
v 0 0.5 0.3
v 0.1 0.4 0.3
v 0.1 0.5 0.3
v 0.2 0.5 0.3
v 0.2 0.6 0.3
v 0.7 0.5 0.3
v 0.7 0.6 0.3
v 0.7 0.7 0.3
v 0.7 0.8 0.3
v 0.8 0.7 0.3
v 0.8 0.8 0.3
v -0.6 0.3 0.1
v -0.6 0.4 0.1
v -0.3 0.3 0.1
v -0.3 0.4 0.1
v 0.5 0.6 0
v 0.5 0.7 0
v 0.7 0.6 0
v 0.7 0.7 0
v 0.7 0.8 0
v 0.7 0.9 0
v 0.8 0.8 0
v 0.8 0.9 0
v -0.3 0.9 -0.2
v -0.3 1 -0.2
v -0.2 0.9 -0.2
v -0.2 1 -0.2
v -0.1 0.9 -0.2
v -0.1 1 -0.2
v 0.5 0.7 -0.2
v 0.5 0.8 -0.2
v 0.7 0.7 -0.2
v 0.7 0.8 -0.2
v 0.7 0.9 -0.2
v 0.7 1 -0.2
v 0.8 0.9 -0.2
v 0.8 1 -0.2
v -0.4 0.9 -0.5
v -0.4 1 -0.5
v -0.3 0.8 -0.5
v -0.3 0.9 -0.5
v -0.3 1 -0.5
v 0.6 0.8 -0.5
v 0.7 0.8 -0.5
v 0.7 0.9 -0.5
v 0.7 1 -0.5
v 0.7 1.1 -0.5
v 0.8 1 -0.5
v 0.8 1.1 -0.5
v -0.3 0.9 -0.7
v -0.3 1 -0.7
v 0.5 1 -0.7
v 0.5 1.1 -0.7
v 0.7 0.9 -0.7
v 0.7 1.1 -0.7
v -0.7 0.4 0.4
v -0.7 0.5 0.4
v -0.6 0.4 0.4
v -0.6 0.5 0.4
v -0.3 0.1 0.4
v -0.3 0.2 0.4
v 0.1 0.1 0.4
v 0.1 0.2 0.4
v 0.2 0 0.4
v 0.2 0.1 0.4
v 0.5 0 0.4
v 0.5 0.1 0.4
v 0.7 0 0.4
v 0.7 0.1 0.4
v 0.2 0.6 0.3
v 0.2 0.7 0.3
v 0.7 0.6 0.3
v 0.7 0.7 0.3
v -0.6 0.2 0.1
v -0.6 0.3 0.1
v -0.3 0.2 0.1
v -0.3 0.3 0.1
v -0.2 0.3 0.1
v -0.2 0.4 0.1
v -0.1 0.3 0.1
v -0.1 0.4 0.1
v 0 0.4 0.1
v 0 0.5 0.1
v 0.1 0.4 0.1
v 0.1 0.5 0.1
v 0.2 0.5 0.1
v 0.2 0.6 0.1
v 0.5 0.5 0.1
v 0.5 0.6 0.1
v -0.7 0.3 0
v -0.7 0.4 0
v -0.3 0.3 0
v -0.3 0.4 0
v 0.5 0.5 0
v 0.5 0.6 0
v 0.7 0.5 0
v 0.7 0.6 0
v 0.7 0.6 -0.1
v 0.7 0.7 -0.1
v 0.8 0.6 -0.1
v 0.8 0.7 -0.1
v 0.5 0.6 -0.2
v 0.5 0.7 -0.2
v 0.7 0.6 -0.2
v 0.7 0.7 -0.2
v -0.3 0.9 -0.4
v -0.3 1 -0.4
v -0.2 0.9 -0.4
v -0.2 1 -0.4
v -0.1 0.9 -0.4
v -0.1 1 -0.4
v 0.5 0.7 -0.4
v 0.5 0.8 -0.4
v 0.6 0.7 -0.4
v 0.6 0.8 -0.4
v 0.6 0.7 -0.5
v 0.6 0.8 -0.5
v 0.7 0.7 -0.5
v 0.7 0.8 -0.5
v 0.7 0.9 -0.5
v 0.8 0.7 -0.5
v 0.8 0.9 -0.5
v -0.3 0.8 -0.7
v -0.3 0.9 -0.7
v 0.7 0.8 -0.7
v 0.7 0.9 -0.7
v -0.4 0.9 -0.8
v -0.4 1 -0.8
v 0.5 1 -0.8
v 0.5 1.1 -0.8
v 0.8 0.9 -0.8
v 0.8 1.1 -0.8
v 0.2 0 0.6
v 0.5 0 0.6
v 0.7 0 0.6
v 0.2 0 0.4
v 0.5 0 0.4
v 0.7 0 0.4
v -0.3 0.1 0.6
v 0.1 0.1 0.6
v -0.3 0.1 0.4
v 0.1 0.1 0.4
v -0.6 0.2 0.6
v -0.4 0.2 0.6
v -0.4 0.2 0.3
v -0.3 0.2 0.3
v -0.6 0.2 0.1
v -0.3 0.2 0.1
v -0.7 0.3 0.6
v -0.6 0.3 0.6
v -0.2 0.3 0.3
v -0.1 0.3 0.3
v -0.6 0.3 0.1
v -0.3 0.3 0.1
v -0.2 0.3 0.1
v -0.1 0.3 0.1
v -0.7 0.3 0
v -0.3 0.3 0
v 0 0.4 0.3
v 0.1 0.4 0.3
v 0 0.4 0.1
v 0.1 0.4 0.1
v 0.2 0.5 0.3
v 0.7 0.5 0.3
v 0.2 0.5 0.1
v 0.5 0.5 0.1
v 0.5 0.5 0
v 0.7 0.5 0
v 0.2 0.6 0.4
v 0.8 0.6 0.4
v 0.2 0.6 0.3
v 0.7 0.6 0.3
v 0.5 0.6 0
v 0.7 0.6 0
v 0.7 0.6 -0.1
v 0.8 0.6 -0.1
v 0.5 0.6 -0.2
v 0.7 0.6 -0.2
v 0.7 0.7 -0.1
v 0.8 0.7 -0.1
v 0.5 0.7 -0.2
v 0.7 0.7 -0.2
v 0.5 0.7 -0.4
v 0.6 0.7 -0.4
v 0.6 0.7 -0.5
v 0.7 0.7 -0.5
v 0.8 0.7 -0.5
v -0.3 0.8 -0.5
v 0.6 0.8 -0.5
v 0.7 0.8 -0.5
v -0.3 0.8 -0.7
v 0.7 0.8 -0.7
v -0.3 0.9 -0.2
v -0.2 0.9 -0.2
v -0.1 0.9 -0.2
v -0.3 0.9 -0.3
v -0.2 0.9 -0.3
v -0.1 0.9 -0.3
v -0.3 0.9 -0.4
v -0.2 0.9 -0.4
v -0.1 0.9 -0.4
v -0.4 0.9 -0.5
v -0.3 0.9 -0.5
v 0.7 0.9 -0.5
v 0.8 0.9 -0.5
v -0.3 0.9 -0.7
v 0.7 0.9 -0.7
v -0.4 0.9 -0.8
v 0.8 0.9 -0.8
v 0.2 0.1 0.6
v 0.5 0.1 0.6
v 0.7 0.1 0.6
v 0.2 0.1 0.4
v 0.5 0.1 0.4
v 0.7 0.1 0.4
v -0.3 0.2 0.6
v 0.1 0.2 0.6
v -0.3 0.2 0.4
v 0.1 0.2 0.4
v -0.6 0.3 0.6
v -0.4 0.3 0.6
v -0.4 0.3 0.3
v -0.3 0.3 0.3
v -0.6 0.3 0.1
v -0.3 0.3 0.1
v -0.7 0.4 0.4
v -0.6 0.4 0.4
v -0.2 0.4 0.3
v -0.1 0.4 0.3
v -0.6 0.4 0.1
v -0.3 0.4 0.1
v -0.2 0.4 0.1
v -0.1 0.4 0.1
v -0.7 0.4 0
v -0.3 0.4 0
v -0.7 0.5 0.6
v -0.6 0.5 0.6
v -0.7 0.5 0.4
v -0.6 0.5 0.4
v 0 0.5 0.3
v 0.1 0.5 0.3
v 0 0.5 0.1
v 0.1 0.5 0.1
v 0.2 0.6 0.3
v 0.7 0.6 0.3
v 0.2 0.6 0.1
v 0.5 0.6 0.1
v 0.5 0.6 0
v 0.7 0.6 0
v 0.2 0.7 0.4
v 0.8 0.7 0.4
v 0.2 0.7 0.3
v 0.7 0.7 0.3
v 0.8 0.7 0.3
v 0.5 0.7 0
v 0.7 0.7 0
v 0.5 0.7 -0.2
v 0.7 0.7 -0.2
v 0.7 0.8 0.3
v 0.8 0.8 0.3
v 0.7 0.8 0
v 0.8 0.8 0
v 0.5 0.8 -0.2
v 0.7 0.8 -0.2
v 0.5 0.8 -0.4
v 0.6 0.8 -0.4
v 0.6 0.8 -0.5
v 0.7 0.8 -0.5
v 0.7 0.9 0
v 0.8 0.9 0
v 0.7 0.9 -0.2
v 0.8 0.9 -0.2
v -0.3 0.9 -0.5
v 0.7 0.9 -0.5
v -0.3 0.9 -0.7
v 0.7 0.9 -0.7
v -0.3 1 -0.2
v -0.2 1 -0.2
v -0.1 1 -0.2
v 0.7 1 -0.2
v 0.8 1 -0.2
v -0.3 1 -0.3
v -0.2 1 -0.3
v -0.1 1 -0.3
v -0.3 1 -0.4
v -0.2 1 -0.4
v -0.1 1 -0.4
v -0.4 1 -0.5
v -0.3 1 -0.5
v 0.7 1 -0.5
v 0.8 1 -0.5
v -0.3 1 -0.7
v 0.5 1 -0.7
v -0.4 1 -0.8
v 0.5 1 -0.8
v 0.7 1.1 -0.5
v 0.8 1.1 -0.5
v 0.5 1.1 -0.7
v 0.7 1.1 -0.7
v 0.5 1.1 -0.8
v 0.8 1.1 -0.8

# faces
f 3/4/1 2/4/1 1/4/1
f 4/4/1 2/4/1 3/4/1
f 5/4/1 3/4/1 1/4/1
f 6/4/1 3/4/1 5/4/1
f 9/5/1 8/5/1 7/5/1
f 10/5/1 8/5/1 9/5/1
f 13/4/1 12/4/1 11/4/1
f 14/4/1 12/4/1 13/4/1
f 17/5/1 16/5/1 15/5/1
f 18/5/1 16/5/1 17/5/1
f 24/5/1 20/5/1 19/5/1
f 25/5/1 20/5/1 24/5/1
f 26/3/1 22/3/1 21/3/1
f 27/1/1 23/1/1 22/1/1
f 27/3/1 22/3/1 26/3/1
f 28/1/1 23/1/1 27/1/1
f 31/5/1 30/5/1 29/5/1
f 32/5/1 30/5/1 31/5/1
f 35/5/1 34/5/1 33/5/1
f 36/5/1 34/5/1 35/5/1
f 39/5/1 38/5/1 37/5/1
f 40/5/1 38/5/1 39/5/1
f 44/5/1 42/5/1 41/5/1
f 45/5/1 42/5/1 44/5/1
f 46/4/1 44/4/1 43/4/1
f 47/4/1 44/4/1 46/4/1
f 50/5/1 49/5/1 48/5/1
f 51/5/1 49/5/1 50/5/1
f 53/5/1 52/5/1 51/5/1
f 54/5/1 52/5/1 53/5/1
f 56/5/1 55/5/1 54/5/1
f 57/5/1 55/5/1 56/5/1
f 60/4/1 59/4/1 58/4/1
f 61/4/1 59/4/1 60/4/1
f 64/5/1 63/5/1 62/5/1
f 65/5/1 63/5/1 64/5/1
f 68/4/1 67/4/1 66/4/1
f 69/4/1 67/4/1 68/4/1
f 71/4/1 69/4/1 68/4/1
f 71/4/1 70/4/1 69/4/1
f 72/4/1 70/4/1 71/4/1
f 73/4/1 70/4/1 72/4/1
f 75/4/1 74/4/1 73/4/1
f 75/4/1 73/4/1 72/4/1
f 76/4/1 74/4/1 75/4/1
f 77/4/1 74/4/1 76/4/1
f 79/4/1 78/4/1 77/4/1
f 79/4/1 77/4/1 76/4/1
f 80/4/1 78/4/1 79/4/1
f 81/4/1 78/4/1 80/4/1
f 82/4/1 78/4/1 81/4/1
f 83/4/2 84/4/2 85/4/2
f 85/4/2 84/4/2 86/4/2
f 83/4/2 85/4/2 87/4/2
f 87/4/2 85/4/2 88/4/2
f 89/5/2 90/5/2 91/5/2
f 91/5/2 90/5/2 92/5/2
f 93/5/2 94/5/2 95/5/2
f 95/5/2 94/5/2 96/5/2
f 96/4/2 97/4/2 98/4/2
f 98/4/2 97/4/2 99/4/2
f 100/4/2 101/4/2 102/4/2
f 102/4/2 101/4/2 103/4/2
f 104/5/2 105/5/2 106/5/2
f 106/5/2 105/5/2 107/5/2
f 108/1/2 109/1/2 111/1/2
f 109/3/2 110/3/2 112/3/2
f 111/1/2 109/1/2 112/1/2
f 112/3/2 110/3/2 113/3/2
f 114/5/2 115/5/2 116/5/2
f 116/5/2 115/5/2 117/5/2
f 118/5/2 119/5/2 120/5/2
f 120/5/2 119/5/2 121/5/2
f 122/2/2 123/2/2 124/2/2
f 124/2/2 123/2/2 125/2/2
f 126/5/2 127/5/2 128/5/2
f 128/5/2 127/5/2 129/5/2
f 130/5/2 131/5/2 132/5/2
f 132/5/2 131/5/2 133/5/2
f 134/5/2 135/5/2 136/5/2
f 136/5/2 135/5/2 137/5/2
f 138/4/2 139/4/2 140/4/2
f 140/4/2 139/4/2 141/4/2
f 141/4/2 139/4/2 142/4/2
f 142/4/2 143/4/2 144/4/2
f 141/4/2 142/4/2 144/4/2
f 144/4/2 143/4/2 145/4/2
f 145/4/2 143/4/2 146/4/2
f 146/4/2 143/4/2 147/4/2
f 147/4/2 143/4/2 148/4/2
f 148/4/2 149/4/2 150/4/2
f 147/4/2 148/4/2 150/4/2
f 150/4/2 149/4/2 151/4/2
f 151/4/2 149/4/2 152/4/2
f 152/4/2 149/4/2 153/4/2
f 157/4/3 155/4/3 154/4/3
f 158/4/3 155/4/3 157/4/3
f 159/5/3 157/5/3 156/5/3
f 160/5/3 157/5/3 159/5/3
f 163/5/3 162/5/3 161/5/3
f 164/5/3 162/5/3 163/5/3
f 167/5/3 166/5/3 165/5/3
f 168/5/3 166/5/3 167/5/3
f 169/2/3 168/2/3 167/2/3
f 170/2/3 168/2/3 169/2/3
f 173/4/3 172/4/3 171/4/3
f 174/4/3 172/4/3 173/4/3
f 177/5/3 176/5/3 175/5/3
f 178/5/3 176/5/3 177/5/3
f 181/5/3 180/5/3 179/5/3
f 182/5/3 180/5/3 181/5/3
f 185/5/3 184/5/3 183/5/3
f 186/5/3 184/5/3 185/5/3
f 189/5/3 188/5/3 187/5/3
f 190/5/3 188/5/3 189/5/3
f 193/4/3 192/4/3 191/4/3
f 194/4/3 192/4/3 193/4/3
f 197/4/3 196/4/3 195/4/3
f 198/4/3 196/4/3 197/4/3
f 201/5/3 200/5/3 199/5/3
f 202/5/3 200/5/3 201/5/3
f 205/4/3 204/4/3 203/4/3
f 206/4/3 204/4/3 205/4/3
f 209/3/3 208/3/3 207/3/3
f 210/3/3 208/3/3 209/3/3
f 211/1/3 210/1/3 209/1/3
f 212/1/3 210/1/3 211/1/3
f 215/5/3 214/5/3 213/5/3
f 216/5/3 214/5/3 215/5/3
f 219/4/3 218/4/3 217/4/3
f 220/4/3 218/4/3 219/4/3
f 224/4/3 222/4/3 221/4/3
f 225/4/3 222/4/3 224/4/3
f 226/5/3 224/5/3 223/5/3
f 227/5/3 224/5/3 226/5/3
f 228/5/3 224/5/3 227/5/3
f 231/4/3 230/4/3 229/4/3
f 232/4/3 230/4/3 231/4/3
f 235/4/3 234/4/3 233/4/3
f 237/4/3 235/4/3 233/4/3
f 237/4/3 236/4/3 235/4/3
f 238/4/3 236/4/3 237/4/3
f 239/4/4 240/4/4 241/4/4
f 241/4/4 240/4/4 242/4/4
f 243/5/4 244/5/4 245/5/4
f 245/5/4 244/5/4 246/5/4
f 247/5/4 248/5/4 249/5/4
f 249/5/4 248/5/4 250/5/4
f 249/2/4 250/2/4 251/2/4
f 251/2/4 250/2/4 252/2/4
f 253/4/4 254/4/4 255/4/4
f 255/4/4 254/4/4 256/4/4
f 257/5/4 258/5/4 259/5/4
f 259/5/4 258/5/4 260/5/4
f 261/5/4 262/5/4 263/5/4
f 263/5/4 262/5/4 264/5/4
f 265/5/4 266/5/4 267/5/4
f 267/5/4 266/5/4 268/5/4
f 269/5/4 270/5/4 271/5/4
f 271/5/4 270/5/4 272/5/4
f 273/4/4 274/4/4 275/4/4
f 275/4/4 274/4/4 276/4/4
f 277/5/4 278/5/4 279/5/4
f 279/5/4 278/5/4 280/5/4
f 281/4/4 282/4/4 283/4/4
f 283/4/4 282/4/4 284/4/4
f 285/5/4 286/5/4 287/5/4
f 287/5/4 286/5/4 288/5/4
f 289/1/4 290/1/4 291/1/4
f 291/1/4 290/1/4 292/1/4
f 291/3/4 292/3/4 293/3/4
f 293/3/4 292/3/4 294/3/4
f 295/5/4 296/5/4 297/5/4
f 297/5/4 296/5/4 298/5/4
f 299/5/4 300/5/4 301/5/4
f 301/5/4 300/5/4 302/5/4
f 301/4/4 302/4/4 304/4/4
f 302/4/4 303/4/4 304/4/4
f 304/4/4 303/4/4 305/4/4
f 306/5/4 307/5/4 308/5/4
f 308/5/4 307/5/4 309/5/4
f 310/4/4 311/4/4 312/4/4
f 310/4/4 312/4/4 314/4/4
f 312/4/4 313/4/4 314/4/4
f 314/4/4 313/4/4 315/4/4
f 319/5/5 317/5/5 316/5/5
f 320/2/5 318/2/5 317/2/5
f 320/5/5 317/5/5 319/5/5
f 321/2/5 318/2/5 320/2/5
f 324/5/5 323/5/5 322/5/5
f 325/5/5 323/5/5 324/5/5
f 328/5/5 327/5/5 326/5/5
f 330/5/5 328/5/5 326/5/5
f 330/5/5 329/5/5 328/5/5
f 331/5/5 329/5/5 330/5/5
f 336/4/5 333/4/5 332/4/5
f 338/5/5 335/5/5 334/5/5
f 339/5/5 335/5/5 338/5/5
f 340/4/5 337/4/5 336/4/5
f 340/4/5 336/4/5 332/4/5
f 341/4/5 337/4/5 340/4/5
f 344/5/5 343/5/5 342/5/5
f 345/5/5 343/5/5 344/5/5
f 348/5/5 347/5/5 346/5/5
f 349/5/5 347/5/5 348/5/5
f 350/5/5 347/5/5 349/5/5
f 351/5/5 347/5/5 350/5/5
f 354/4/5 353/4/5 352/4/5
f 355/4/5 353/4/5 354/4/5
f 357/4/5 353/4/5 355/4/5
f 358/4/5 353/4/5 357/4/5
f 358/5/5 357/5/5 356/5/5
f 359/4/5 353/4/5 358/4/5
f 360/5/5 358/5/5 356/5/5
f 361/5/5 358/5/5 360/5/5
f 365/4/5 363/4/5 362/4/5
f 366/5/5 365/5/5 364/5/5
f 367/5/5 365/5/5 366/5/5
f 368/5/5 365/5/5 367/5/5
f 369/4/5 363/4/5 365/4/5
f 369/5/5 365/5/5 368/5/5
f 370/4/5 363/4/5 369/4/5
f 374/5/5 372/5/5 371/5/5
f 374/5/5 373/5/5 372/5/5
f 375/5/5 373/5/5 374/5/5
f 379/3/5 377/3/5 376/3/5
f 380/1/5 378/1/5 377/1/5
f 380/3/5 377/3/5 379/3/5
f 381/1/5 378/1/5 380/1/5
f 382/1/5 380/1/5 379/1/5
f 383/3/5 381/3/5 380/3/5
f 383/1/5 380/1/5 382/1/5
f 384/3/5 381/3/5 383/3/5
f 389/4/5 386/4/5 385/4/5
f 390/4/5 388/4/5 387/4/5
f 391/4/5 389/4/5 385/4/5
f 391/4/5 390/4/5 389/4/5
f 392/4/5 388/4/5 390/4/5
f 392/4/5 390/4/5 391/4/5
f 393/5/6 394/5/6 396/5/6
f 394/2/6 395/2/6 397/2/6
f 396/5/6 394/5/6 397/5/6
f 397/2/6 395/2/6 398/2/6
f 399/5/6 400/5/6 401/5/6
f 401/5/6 400/5/6 402/5/6
f 403/5/6 404/5/6 405/5/6
f 403/5/6 405/5/6 407/5/6
f 405/5/6 406/5/6 407/5/6
f 407/5/6 406/5/6 408/5/6
f 409/4/6 410/4/6 413/4/6
f 411/5/6 412/5/6 415/5/6
f 415/5/6 412/5/6 416/5/6
f 413/4/6 414/4/6 417/4/6
f 409/4/6 413/4/6 417/4/6
f 417/4/6 414/4/6 418/4/6
f 419/4/6 420/4/6 421/4/6
f 421/4/6 420/4/6 422/4/6
f 423/5/6 424/5/6 425/5/6
f 425/5/6 424/5/6 426/5/6
f 427/5/6 428/5/6 429/5/6
f 429/5/6 428/5/6 430/5/6
f 430/5/6 428/5/6 431/5/6
f 431/5/6 428/5/6 432/5/6
f 433/4/6 434/4/6 435/4/6
f 435/4/6 434/4/6 436/4/6
f 436/4/6 434/4/6 437/4/6
f 438/5/6 439/5/6 440/5/6
f 440/5/6 439/5/6 441/5/6
f 442/4/6 443/4/6 444/4/6
f 444/4/6 443/4/6 445/4/6
f 446/5/6 447/5/6 448/5/6
f 448/5/6 447/5/6 449/5/6
f 449/5/6 447/5/6 450/5/6
f 450/5/6 447/5/6 451/5/6
f 452/4/6 453/4/6 454/4/6
f 454/4/6 453/4/6 455/4/6
f 456/5/6 457/5/6 458/5/6
f 458/5/6 457/5/6 459/5/6
f 460/3/6 461/3/6 465/3/6
f 461/1/6 462/1/6 466/1/6
f 465/3/6 461/3/6 466/3/6
f 466/1/6 462/1/6 467/1/6
f 465/1/6 466/1/6 468/1/6
f 466/3/6 467/3/6 469/3/6
f 468/1/6 466/1/6 469/1/6
f 469/3/6 467/3/6 470/3/6
f 463/4/6 464/4/6 473/4/6
f 473/4/6 464/4/6 474/4/6
f 471/4/6 472/4/6 475/4/6
f 471/4/6 475/4/6 477/4/6
f 475/4/6 476/4/6 477/4/6
f 477/4/6 476/4/6 478/4/6
f 479/4/6 480/4/6 482/4/6
f 481/4/6 482/4/6 483/4/6
f 482/4/6 480/4/6 484/4/6
f 483/4/6 482/4/6 484/4/6
