# MagicaVoxel @ Ephtracy

# group
o 

# material
mtllib maze_lvl_4.mtl
usemtl palette

# normals
vn -1 0 0
vn 1 0 0
vn 0 0 1
vn 0 0 -1
vn 0 -1 0
vn 0 1 0

# texcoords
vt 0.876953 0.5
vt 0.900391 0.5
vt 0.958984 0.5
vt 0.990234 0.5
vt 0.994141 0.5

# verts
v -0.7 0.3 0.6
v -0.7 0.3 0.4
v -0.7 0.3 0.2
v -0.7 0.3 0.1
v -0.7 0.4 0.2
v -0.7 0.4 0.1
v -0.7 0.5 0.6
v -0.7 0.5 0.4
v -0.6 0.2 0.6
v -0.6 0.2 0.1
v -0.6 0.3 0.6
v -0.6 0.3 0.4
v -0.6 0.3 0.2
v -0.6 0.3 0.1
v -0.6 0.3 0
v -0.6 0.4 0.1
v -0.6 0.4 0
v -0.3 0.1 0.6
v -0.3 0.1 0.4
v -0.3 0.2 0.6
v -0.3 0.2 0.4
v -0.3 0.8 -0.5
v -0.3 0.8 -0.7
v -0.3 0.9 -0.2
v -0.3 0.9 -0.3
v -0.3 0.9 -0.4
v -0.3 0.9 -0.5
v -0.3 0.9 -0.7
v -0.3 1 -0.2
v -0.3 1 -0.3
v -0.3 1 -0.4
v -0.2 0.3 0.3
v -0.2 0.3 0.1
v -0.2 0.4 0.3
v -0.2 0.4 0.1
v 0 0.4 0.3
v 0 0.4 0.1
v 0 0.5 0.3
v 0 0.5 0.1
v 0.2 0 0.6
v 0.2 0 0.4
v 0.2 0.1 0.6
v 0.2 0.1 0.4
v 0.2 0.5 0.3
v 0.2 0.5 0.1
v 0.2 0.6 0.3
v 0.2 0.6 0.1
v 0.5 0.5 0.1
v 0.5 0.5 0
v 0.5 0.6 0.1
v 0.5 0.6 0
v 0.5 0.6 -0.2
v 0.5 0.7 0
v 0.5 0.7 -0.2
v 0.5 0.7 -0.4
v 0.5 0.8 -0.2
v 0.5 0.8 -0.4
v 0.5 0.9 -0.7
v 0.5 0.9 -0.8
v 0.5 1.1 -0.7
v 0.5 1.1 -0.8
v 0.6 0.6 0.4
v 0.6 0.6 0.3
v 0.6 0.7 0.4
v 0.6 0.7 0.3
v 0.6 0.7 -0.4
v 0.6 0.7 -0.5
v 0.6 0.8 -0.4
v 0.6 0.8 -0.5
v 0.7 0.6 0.3
v 0.7 0.6 0.1
v 0.7 0.7 0.3
v 0.7 0.8 0.3
v 0.7 0.8 0.1
v 0.7 0.9 -0.6
v 0.7 0.9 -0.7
v 0.7 1 -0.6
v 0.7 1 -0.7
v -0.6 0.3 0.6
v -0.6 0.3 0.4
v -0.6 0.3 0.2
v -0.6 0.3 0.1
v -0.6 0.4 0.2
v -0.6 0.4 0.1
v -0.6 0.5 0.6
v -0.6 0.5 0.4
v -0.5 0.3 0.1
v -0.5 0.3 0
v -0.5 0.4 0.1
v -0.5 0.4 0
v -0.4 0.2 0.6
v -0.4 0.2 0.3
v -0.4 0.3 0.6
v -0.4 0.3 0.3
v -0.3 0.2 0.3
v -0.3 0.2 0.1
v -0.3 0.3 0.3
v -0.3 0.3 0.1
v -0.1 0.3 0.3
v -0.1 0.3 0.1
v -0.1 0.4 0.3
v -0.1 0.4 0.1
v -0.1 0.9 -0.2
v -0.1 0.9 -0.3
v -0.1 0.9 -0.4
v -0.1 1 -0.2
v -0.1 1 -0.3
v -0.1 1 -0.4
v 0.1 0.1 0.6
v 0.1 0.1 0.4
v 0.1 0.2 0.6
v 0.1 0.2 0.4
v 0.1 0.4 0.3
v 0.1 0.4 0.1
v 0.1 0.5 0.3
v 0.1 0.5 0.1
v 0.7 0 0.6
v 0.7 0 0.4
v 0.7 0.1 0.6
v 0.7 0.1 0.4
v 0.7 0.5 0.3
v 0.7 0.5 0
v 0.7 0.6 0.4
v 0.7 0.6 0.3
v 0.7 0.6 0.1
v 0.7 0.6 0
v 0.7 0.6 -0.2
v 0.7 0.7 0.4
v 0.7 0.7 0.3
v 0.7 0.7 0
v 0.7 0.7 -0.2
v 0.7 0.7 -0.5
v 0.7 0.8 -0.2
v 0.7 0.8 -0.5
v 0.7 0.8 -0.7
v 0.7 0.9 -0.5
v 0.7 0.9 -0.6
v 0.7 0.9 -0.7
v 0.7 0.9 -0.8
v 0.7 1 -0.7
v 0.7 1.1 -0.7
v 0.7 1.1 -0.8
v 0.8 0.6 0.3
v 0.8 0.6 0.1
v 0.8 0.8 0.3
v 0.8 0.8 0.1
v 0.8 0.9 -0.6
v 0.8 0.9 -0.7
v 0.8 1 -0.6
v 0.8 1 -0.7
v -0.7 0.3 0.6
v -0.7 0.5 0.6
v -0.6 0.2 0.6
v -0.6 0.3 0.6
v -0.6 0.5 0.6
v -0.4 0.2 0.6
v -0.4 0.3 0.6
v -0.3 0.1 0.6
v -0.3 0.2 0.6
v 0.1 0.1 0.6
v 0.1 0.2 0.6
v 0.2 0 0.6
v 0.2 0.1 0.6
v 0.5 0 0.6
v 0.5 0.1 0.6
v 0.7 0 0.6
v 0.7 0.1 0.6
v 0.6 0.6 0.4
v 0.6 0.7 0.4
v 0.7 0.6 0.4
v 0.7 0.7 0.4
v -0.4 0.2 0.3
v -0.4 0.3 0.3
v -0.3 0.2 0.3
v -0.3 0.3 0.3
v -0.2 0.3 0.3
v -0.2 0.4 0.3
v -0.1 0.3 0.3
v -0.1 0.4 0.3
v 0 0.4 0.3
v 0 0.5 0.3
v 0.1 0.4 0.3
v 0.1 0.5 0.3
v 0.2 0.5 0.3
v 0.2 0.6 0.3
v 0.6 0.6 0.3
v 0.7 0.5 0.3
v 0.7 0.6 0.3
v 0.7 0.7 0.3
v 0.7 0.8 0.3
v 0.8 0.6 0.3
v 0.8 0.8 0.3
v -0.7 0.3 0.2
v -0.7 0.4 0.2
v -0.6 0.3 0.2
v -0.6 0.4 0.2
v -0.6 0.3 0.1
v -0.6 0.4 0.1
v -0.5 0.3 0.1
v -0.5 0.4 0.1
v 0.5 0.6 0
v 0.5 0.7 0
v 0.7 0.6 0
v 0.7 0.7 0
v -0.3 0.9 -0.2
v -0.3 1 -0.2
v -0.2 0.9 -0.2
v -0.2 1 -0.2
v -0.1 0.9 -0.2
v -0.1 1 -0.2
v 0.5 0.7 -0.2
v 0.5 0.8 -0.2
v 0.7 0.7 -0.2
v 0.7 0.8 -0.2
v -0.3 0.8 -0.5
v -0.3 0.9 -0.5
v 0.6 0.8 -0.5
v 0.7 0.8 -0.5
v 0.7 0.9 -0.5
v 0.7 0.9 -0.6
v 0.7 1 -0.6
v 0.8 0.9 -0.6
v 0.8 1 -0.6
v 0.5 0.9 -0.7
v 0.5 1.1 -0.7
v 0.7 0.9 -0.7
v 0.7 1 -0.7
v 0.7 1.1 -0.7
v -0.7 0.3 0.4
v -0.7 0.5 0.4
v -0.6 0.3 0.4
v -0.6 0.5 0.4
v -0.3 0.1 0.4
v -0.3 0.2 0.4
v 0.1 0.1 0.4
v 0.1 0.2 0.4
v 0.2 0 0.4
v 0.2 0.1 0.4
v 0.5 0 0.4
v 0.5 0.1 0.4
v 0.7 0 0.4
v 0.7 0.1 0.4
v 0.6 0.6 0.3
v 0.6 0.7 0.3
v 0.7 0.6 0.3
v 0.7 0.7 0.3
v -0.7 0.3 0.1
v -0.7 0.4 0.1
v -0.6 0.2 0.1
v -0.6 0.3 0.1
v -0.6 0.4 0.1
v -0.5 0.3 0.1
v -0.3 0.2 0.1
v -0.3 0.3 0.1
v -0.2 0.3 0.1
v -0.2 0.4 0.1
v -0.1 0.3 0.1
v -0.1 0.4 0.1
v 0 0.4 0.1
v 0 0.5 0.1
v 0.1 0.4 0.1
v 0.1 0.5 0.1
v 0.2 0.5 0.1
v 0.2 0.6 0.1
v 0.5 0.5 0.1
v 0.5 0.6 0.1
v 0.7 0.6 0.1
v 0.7 0.8 0.1
v 0.8 0.6 0.1
v 0.8 0.8 0.1
v -0.6 0.3 0
v -0.6 0.4 0
v -0.5 0.3 0
v -0.5 0.4 0
v 0.5 0.5 0
v 0.5 0.6 0
v 0.7 0.5 0
v 0.7 0.6 0
v 0.5 0.6 -0.2
v 0.5 0.7 -0.2
v 0.7 0.6 -0.2
v 0.7 0.7 -0.2
v -0.3 0.9 -0.4
v -0.3 1 -0.4
v -0.2 0.9 -0.4
v -0.2 1 -0.4
v -0.1 0.9 -0.4
v -0.1 1 -0.4
v 0.5 0.7 -0.4
v 0.5 0.8 -0.4
v 0.6 0.7 -0.4
v 0.6 0.8 -0.4
v 0.6 0.7 -0.5
v 0.6 0.8 -0.5
v 0.7 0.7 -0.5
v 0.7 0.8 -0.5
v -0.3 0.8 -0.7
v -0.3 0.9 -0.7
v 0.5 0.9 -0.7
v 0.7 0.8 -0.7
v 0.7 0.9 -0.7
v 0.7 1 -0.7
v 0.8 0.9 -0.7
v 0.8 1 -0.7
v 0.5 0.9 -0.8
v 0.5 1.1 -0.8
v 0.7 0.9 -0.8
v 0.7 1.1 -0.8
v 0.2 0 0.6
v 0.5 0 0.6
v 0.7 0 0.6
v 0.2 0 0.4
v 0.5 0 0.4
v 0.7 0 0.4
v -0.3 0.1 0.6
v 0.1 0.1 0.6
v -0.3 0.1 0.4
v 0.1 0.1 0.4
v -0.6 0.2 0.6
v -0.4 0.2 0.6
v -0.4 0.2 0.3
v -0.3 0.2 0.3
v -0.6 0.2 0.1
v -0.3 0.2 0.1
v -0.7 0.3 0.6
v -0.6 0.3 0.6
v -0.7 0.3 0.4
v -0.6 0.3 0.4
v -0.2 0.3 0.3
v -0.1 0.3 0.3
v -0.7 0.3 0.2
v -0.6 0.3 0.2
v -0.7 0.3 0.1
v -0.6 0.3 0.1
v -0.5 0.3 0.1
v -0.2 0.3 0.1
v -0.1 0.3 0.1
v -0.6 0.3 0
v -0.5 0.3 0
v 0 0.4 0.3
v 0.1 0.4 0.3
v 0 0.4 0.1
v 0.1 0.4 0.1
v 0.2 0.5 0.3
v 0.7 0.5 0.3
v 0.2 0.5 0.1
v 0.5 0.5 0.1
v 0.5 0.5 0
v 0.7 0.5 0
v 0.6 0.6 0.4
v 0.7 0.6 0.4
v 0.6 0.6 0.3
v 0.7 0.6 0.3
v 0.8 0.6 0.3
v 0.7 0.6 0.1
v 0.8 0.6 0.1
v 0.5 0.6 0
v 0.7 0.6 0
v 0.5 0.6 -0.2
v 0.7 0.6 -0.2
v 0.5 0.7 -0.2
v 0.7 0.7 -0.2
v 0.5 0.7 -0.4
v 0.6 0.7 -0.4
v 0.6 0.7 -0.5
v 0.7 0.7 -0.5
v -0.3 0.8 -0.5
v 0.6 0.8 -0.5
v 0.7 0.8 -0.5
v -0.3 0.8 -0.7
v 0.7 0.8 -0.7
v -0.3 0.9 -0.2
v -0.2 0.9 -0.2
v -0.1 0.9 -0.2
v -0.3 0.9 -0.3
v -0.2 0.9 -0.3
v -0.1 0.9 -0.3
v -0.3 0.9 -0.4
v -0.2 0.9 -0.4
v -0.1 0.9 -0.4
v 0.7 0.9 -0.6
v 0.8 0.9 -0.6
v 0.5 0.9 -0.7
v 0.7 0.9 -0.7
v 0.8 0.9 -0.7
v 0.5 0.9 -0.8
v 0.7 0.9 -0.8
v 0.2 0.1 0.6
v 0.5 0.1 0.6
v 0.7 0.1 0.6
v 0.2 0.1 0.4
v 0.5 0.1 0.4
v 0.7 0.1 0.4
v -0.3 0.2 0.6
v 0.1 0.2 0.6
v -0.3 0.2 0.4
v 0.1 0.2 0.4
v -0.6 0.3 0.6
v -0.4 0.3 0.6
v -0.6 0.3 0.4
v -0.4 0.3 0.3
v -0.3 0.3 0.3
v -0.6 0.3 0.2
v -0.6 0.3 0.1
v -0.5 0.3 0.1
v -0.3 0.3 0.1
v -0.2 0.4 0.3
v -0.1 0.4 0.3
v -0.7 0.4 0.2
v -0.6 0.4 0.2
v -0.7 0.4 0.1
v -0.6 0.4 0.1
v -0.5 0.4 0.1
v -0.2 0.4 0.1
v -0.1 0.4 0.1
v -0.6 0.4 0
v -0.5 0.4 0
v -0.7 0.5 0.6
v -0.6 0.5 0.6
v -0.7 0.5 0.4
v -0.6 0.5 0.4
v 0 0.5 0.3
v 0.1 0.5 0.3
v 0 0.5 0.1
v 0.1 0.5 0.1
v 0.2 0.6 0.3
v 0.6 0.6 0.3
v 0.7 0.6 0.3
v 0.2 0.6 0.1
v 0.5 0.6 0.1
v 0.7 0.6 0.1
v 0.5 0.6 0
v 0.7 0.6 0
v 0.6 0.7 0.4
v 0.7 0.7 0.4
v 0.6 0.7 0.3
v 0.7 0.7 0.3
v 0.5 0.7 0
v 0.7 0.7 0
v 0.5 0.7 -0.2
v 0.7 0.7 -0.2
v 0.7 0.8 0.3
v 0.8 0.8 0.3
v 0.7 0.8 0.1
v 0.8 0.8 0.1
v 0.5 0.8 -0.2
v 0.7 0.8 -0.2
v 0.5 0.8 -0.4
v 0.6 0.8 -0.4
v 0.6 0.8 -0.5
v 0.7 0.8 -0.5
v -0.3 0.9 -0.5
v 0.7 0.9 -0.5
v 0.7 0.9 -0.6
v -0.3 0.9 -0.7
v 0.5 0.9 -0.7
v 0.7 0.9 -0.7
v -0.3 1 -0.2
v -0.2 1 -0.2
v -0.1 1 -0.2
v -0.3 1 -0.3
v -0.2 1 -0.3
v -0.1 1 -0.3
v -0.3 1 -0.4
v -0.2 1 -0.4
v -0.1 1 -0.4
v 0.7 1 -0.6
v 0.8 1 -0.6
v 0.7 1 -0.7
v 0.8 1 -0.7
v 0.5 1.1 -0.7
v 0.7 1.1 -0.7
v 0.5 1.1 -0.8
v 0.7 1.1 -0.8

# faces
f 5/4/1 4/4/1 3/4/1
f 6/4/1 4/4/1 5/4/1
f 7/4/1 2/4/1 1/4/1
f 8/4/1 2/4/1 7/4/1
f 11/5/1 10/5/1 9/5/1
f 12/5/1 10/5/1 11/5/1
f 13/5/1 10/5/1 12/5/1
f 14/5/1 10/5/1 13/5/1
f 16/4/1 15/4/1 14/4/1
f 17/4/1 15/4/1 16/4/1
f 20/5/1 19/5/1 18/5/1
f 21/5/1 19/5/1 20/5/1
f 27/5/1 23/5/1 22/5/1
f 28/5/1 23/5/1 27/5/1
f 29/3/1 25/3/1 24/3/1
f 30/1/1 26/1/1 25/1/1
f 30/3/1 25/3/1 29/3/1
f 31/1/1 26/1/1 30/1/1
f 34/5/1 33/5/1 32/5/1
f 35/5/1 33/5/1 34/5/1
f 38/5/1 37/5/1 36/5/1
f 39/5/1 37/5/1 38/5/1
f 42/5/1 41/5/1 40/5/1
f 43/5/1 41/5/1 42/5/1
f 46/5/1 45/5/1 44/5/1
f 47/5/1 45/5/1 46/5/1
f 50/5/1 49/5/1 48/5/1
f 51/5/1 49/5/1 50/5/1
f 53/5/1 52/5/1 51/5/1
f 54/5/1 52/5/1 53/5/1
f 56/5/1 55/5/1 54/5/1
f 57/5/1 55/5/1 56/5/1
f 60/4/1 59/4/1 58/4/1
f 61/4/1 59/4/1 60/4/1
f 64/4/1 63/4/1 62/4/1
f 65/4/1 63/4/1 64/4/1
f 68/5/1 67/5/1 66/5/1
f 69/5/1 67/5/1 68/5/1
f 72/4/1 71/4/1 70/4/1
f 73/4/1 71/4/1 72/4/1
f 74/4/1 71/4/1 73/4/1
f 77/4/1 76/4/1 75/4/1
f 78/4/1 76/4/1 77/4/1
f 81/4/2 82/4/2 83/4/2
f 83/4/2 82/4/2 84/4/2
f 79/4/2 80/4/2 85/4/2
f 85/4/2 80/4/2 86/4/2
f 87/4/2 88/4/2 89/4/2
f 89/4/2 88/4/2 90/4/2
f 91/5/2 92/5/2 93/5/2
f 93/5/2 92/5/2 94/5/2
f 95/5/2 96/5/2 97/5/2
f 97/5/2 96/5/2 98/5/2
f 99/5/2 100/5/2 101/5/2
f 101/5/2 100/5/2 102/5/2
f 103/1/2 104/1/2 106/1/2
f 104/3/2 105/3/2 107/3/2
f 106/1/2 104/1/2 107/1/2
f 107/3/2 105/3/2 108/3/2
f 109/5/2 110/5/2 111/5/2
f 111/5/2 110/5/2 112/5/2
f 113/5/2 114/5/2 115/5/2
f 115/5/2 114/5/2 116/5/2
f 117/2/2 118/2/2 119/2/2
f 119/2/2 118/2/2 120/2/2
f 121/5/2 122/5/2 124/5/2
f 124/5/2 122/5/2 125/5/2
f 125/5/2 122/5/2 126/5/2
f 123/4/2 124/4/2 128/4/2
f 128/4/2 124/4/2 129/4/2
f 126/5/2 127/5/2 130/5/2
f 130/5/2 127/5/2 131/5/2
f 131/5/2 132/5/2 133/5/2
f 133/5/2 132/5/2 134/5/2
f 134/5/2 135/5/2 136/5/2
f 136/5/2 135/5/2 137/5/2
f 137/5/2 135/5/2 138/5/2
f 138/4/2 139/4/2 140/4/2
f 140/4/2 139/4/2 141/4/2
f 141/4/2 139/4/2 142/4/2
f 143/4/2 144/4/2 145/4/2
f 145/4/2 144/4/2 146/4/2
f 147/4/2 148/4/2 149/4/2
f 149/4/2 148/4/2 150/4/2
f 154/4/3 152/4/3 151/4/3
f 155/4/3 152/4/3 154/4/3
f 156/5/3 154/5/3 153/5/3
f 157/5/3 154/5/3 156/5/3
f 160/5/3 159/5/3 158/5/3
f 161/5/3 159/5/3 160/5/3
f 164/5/3 163/5/3 162/5/3
f 165/5/3 163/5/3 164/5/3
f 166/2/3 165/2/3 164/2/3
f 167/2/3 165/2/3 166/2/3
f 170/4/3 169/4/3 168/4/3
f 171/4/3 169/4/3 170/4/3
f 174/5/3 173/5/3 172/5/3
f 175/5/3 173/5/3 174/5/3
f 178/5/3 177/5/3 176/5/3
f 179/5/3 177/5/3 178/5/3
f 182/5/3 181/5/3 180/5/3
f 183/5/3 181/5/3 182/5/3
f 186/5/3 185/5/3 184/5/3
f 187/5/3 186/5/3 184/5/3
f 188/5/3 186/5/3 187/5/3
f 191/4/3 190/4/3 189/4/3
f 191/4/3 189/4/3 188/4/3
f 192/4/3 190/4/3 191/4/3
f 195/4/3 194/4/3 193/4/3
f 196/4/3 194/4/3 195/4/3
f 199/4/3 198/4/3 197/4/3
f 200/4/3 198/4/3 199/4/3
f 203/5/3 202/5/3 201/5/3
f 204/5/3 202/5/3 203/5/3
f 207/3/3 206/3/3 205/3/3
f 208/3/3 206/3/3 207/3/3
f 209/1/3 208/1/3 207/1/3
f 210/1/3 208/1/3 209/1/3
f 213/5/3 212/5/3 211/5/3
f 214/5/3 212/5/3 213/5/3
f 217/5/3 216/5/3 215/5/3
f 218/5/3 216/5/3 217/5/3
f 219/5/3 216/5/3 218/5/3
f 222/4/3 221/4/3 220/4/3
f 223/4/3 221/4/3 222/4/3
f 226/4/3 225/4/3 224/4/3
f 227/4/3 225/4/3 226/4/3
f 228/4/3 225/4/3 227/4/3
f 229/4/4 230/4/4 231/4/4
f 231/4/4 230/4/4 232/4/4
f 233/5/4 234/5/4 235/5/4
f 235/5/4 234/5/4 236/5/4
f 237/5/4 238/5/4 239/5/4
f 239/5/4 238/5/4 240/5/4
f 239/2/4 240/2/4 241/2/4
f 241/2/4 240/2/4 242/2/4
f 243/4/4 244/4/4 245/4/4
f 245/4/4 244/4/4 246/4/4
f 247/4/4 248/4/4 250/4/4
f 250/4/4 248/4/4 251/4/4
f 249/5/4 250/5/4 252/5/4
f 249/5/4 252/5/4 253/5/4
f 253/5/4 252/5/4 254/5/4
f 255/5/4 256/5/4 257/5/4
f 257/5/4 256/5/4 258/5/4
f 259/5/4 260/5/4 261/5/4
f 261/5/4 260/5/4 262/5/4
f 263/5/4 264/5/4 265/5/4
f 265/5/4 264/5/4 266/5/4
f 267/4/4 268/4/4 269/4/4
f 269/4/4 268/4/4 270/4/4
f 271/4/4 272/4/4 273/4/4
f 273/4/4 272/4/4 274/4/4
f 275/5/4 276/5/4 277/5/4
f 277/5/4 276/5/4 278/5/4
f 279/5/4 280/5/4 281/5/4
f 281/5/4 280/5/4 282/5/4
f 283/1/4 284/1/4 285/1/4
f 285/1/4 284/1/4 286/1/4
f 285/3/4 286/3/4 287/3/4
f 287/3/4 286/3/4 288/3/4
f 289/5/4 290/5/4 291/5/4
f 291/5/4 290/5/4 292/5/4
f 293/5/4 294/5/4 295/5/4
f 295/5/4 294/5/4 296/5/4
f 297/5/4 298/5/4 299/5/4
f 297/5/4 299/5/4 300/5/4
f 300/5/4 299/5/4 301/5/4
f 301/4/4 302/4/4 303/4/4
f 303/4/4 302/4/4 304/4/4
f 305/4/4 306/4/4 307/4/4
f 307/4/4 306/4/4 308/4/4
f 312/5/5 310/5/5 309/5/5
f 313/2/5 311/2/5 310/2/5
f 313/5/5 310/5/5 312/5/5
f 314/2/5 311/2/5 313/2/5
f 317/5/5 316/5/5 315/5/5
f 318/5/5 316/5/5 317/5/5
f 321/5/5 320/5/5 319/5/5
f 323/5/5 321/5/5 319/5/5
f 323/5/5 322/5/5 321/5/5
f 324/5/5 322/5/5 323/5/5
f 327/4/5 326/4/5 325/4/5
f 328/4/5 326/4/5 327/4/5
f 333/4/5 332/4/5 331/4/5
f 334/4/5 332/4/5 333/4/5
f 336/5/5 330/5/5 329/5/5
f 337/5/5 330/5/5 336/5/5
f 338/4/5 335/4/5 334/4/5
f 339/4/5 335/4/5 338/4/5
f 342/5/5 341/5/5 340/5/5
f 343/5/5 341/5/5 342/5/5
f 346/5/5 345/5/5 344/5/5
f 347/5/5 345/5/5 346/5/5
f 348/5/5 345/5/5 347/5/5
f 349/5/5 345/5/5 348/5/5
f 352/4/5 351/4/5 350/4/5
f 353/4/5 351/4/5 352/4/5
f 355/4/5 354/4/5 353/4/5
f 356/4/5 354/4/5 355/4/5
f 359/5/5 358/5/5 357/5/5
f 360/5/5 358/5/5 359/5/5
f 363/5/5 362/5/5 361/5/5
f 364/5/5 362/5/5 363/5/5
f 365/5/5 362/5/5 364/5/5
f 366/5/5 362/5/5 365/5/5
f 370/5/5 368/5/5 367/5/5
f 370/5/5 369/5/5 368/5/5
f 371/5/5 369/5/5 370/5/5
f 375/3/5 373/3/5 372/3/5
f 376/1/5 374/1/5 373/1/5
f 376/3/5 373/3/5 375/3/5
f 377/1/5 374/1/5 376/1/5
f 378/1/5 376/1/5 375/1/5
f 379/3/5 377/3/5 376/3/5
f 379/1/5 376/1/5 378/1/5
f 380/3/5 377/3/5 379/3/5
f 384/4/5 382/4/5 381/4/5
f 385/4/5 382/4/5 384/4/5
f 386/4/5 384/4/5 383/4/5
f 387/4/5 384/4/5 386/4/5
f 388/5/6 389/5/6 391/5/6
f 389/2/6 390/2/6 392/2/6
f 391/5/6 389/5/6 392/5/6
f 392/2/6 390/2/6 393/2/6
f 394/5/6 395/5/6 396/5/6
f 396/5/6 395/5/6 397/5/6
f 398/5/6 399/5/6 400/5/6
f 400/5/6 399/5/6 401/5/6
f 400/5/6 401/5/6 403/5/6
f 401/5/6 402/5/6 403/5/6
f 403/5/6 402/5/6 404/5/6
f 404/5/6 402/5/6 405/5/6
f 405/5/6 402/5/6 406/5/6
f 409/4/6 410/4/6 411/4/6
f 411/4/6 410/4/6 412/4/6
f 407/5/6 408/5/6 414/5/6
f 414/5/6 408/5/6 415/5/6
f 412/4/6 413/4/6 416/4/6
f 416/4/6 413/4/6 417/4/6
f 418/4/6 419/4/6 420/4/6
f 420/4/6 419/4/6 421/4/6
f 422/5/6 423/5/6 424/5/6
f 424/5/6 423/5/6 425/5/6
f 426/5/6 427/5/6 429/5/6
f 427/5/6 428/5/6 429/5/6
f 429/5/6 428/5/6 430/5/6
f 430/5/6 428/5/6 431/5/6
f 430/5/6 431/5/6 432/5/6
f 432/5/6 431/5/6 433/5/6
f 434/4/6 435/4/6 436/4/6
f 436/4/6 435/4/6 437/4/6
f 438/5/6 439/5/6 440/5/6
f 440/5/6 439/5/6 441/5/6
f 442/4/6 443/4/6 444/4/6
f 444/4/6 443/4/6 445/4/6
f 446/5/6 447/5/6 448/5/6
f 448/5/6 447/5/6 449/5/6
f 449/5/6 447/5/6 450/5/6
f 450/5/6 447/5/6 451/5/6
f 452/5/6 453/5/6 454/5/6
f 452/5/6 454/5/6 455/5/6
f 455/5/6 454/5/6 456/5/6
f 456/5/6 454/5/6 457/5/6
f 458/3/6 459/3/6 461/3/6
f 459/1/6 460/1/6 462/1/6
f 461/3/6 459/3/6 462/3/6
f 462/1/6 460/1/6 463/1/6
f 461/1/6 462/1/6 464/1/6
f 462/3/6 463/3/6 465/3/6
f 464/1/6 462/1/6 465/1/6
f 465/3/6 463/3/6 466/3/6
f 467/4/6 468/4/6 469/4/6
f 469/4/6 468/4/6 470/4/6
f 471/4/6 472/4/6 473/4/6
f 473/4/6 472/4/6 474/4/6
