# MagicaVoxel @ Ephtracy

# group
o 

# material
mtllib maze_lvl_3.mtl
usemtl palette

# normals
vn -1 0 0
vn 1 0 0
vn 0 0 1
vn 0 0 -1
vn 0 -1 0
vn 0 1 0

# texcoords
vt 0.0214844 0.5
vt 0.556641 0.5
vt 0.560547 0.5
vt 0.748047 0.5
vt 0.876953 0.5
vt 0.958984 0.5

# verts
v -1 0 0.6
v -1 0 -0.7
v -1 0.3 0.6
v -1 0.3 -0.7
v -0.2 0 0.5
v -0.2 0 -0.6
v -0.2 0.1 0.5
v -0.2 0.1 -0.6
v 0.9 0.1 0.5
v 0.9 0.1 0.1
v 0.9 0.1 -0.2
v 0.9 0.1 -0.6
v 0.9 0.3 0.5
v 0.9 0.3 -0.6
v -0.9 0 0.5
v -0.9 0 -0.6
v -0.9 0.1 0.2
v -0.9 0.1 0.1
v -0.9 0.1 0
v -0.9 0.1 -0.1
v -0.9 0.1 -0.2
v -0.9 0.1 -0.3
v -0.9 0.2 0.2
v -0.9 0.2 0.1
v -0.9 0.2 0
v -0.9 0.2 -0.1
v -0.9 0.2 -0.2
v -0.9 0.2 -0.3
v -0.9 0.3 0.5
v -0.9 0.3 -0.6
v -0.5 0.1 0.2
v -0.5 0.1 0.1
v -0.5 0.1 0
v -0.5 0.1 -0.1
v -0.5 0.1 -0.2
v -0.5 0.1 -0.3
v -0.5 0.2 0.2
v -0.5 0.2 0.1
v -0.5 0.2 0
v -0.5 0.2 -0.1
v -0.5 0.2 -0.2
v -0.5 0.2 -0.3
v 1 0 0.6
v 1 0 -0.7
v 1 0.3 0.6
v 1 0.3 -0.7
v -1 0 0.6
v -1 0.3 0.6
v 1 0 0.6
v 1 0.3 0.6
v -0.9 0.1 0.2
v -0.9 0.2 0.2
v -0.8 0.1 0.2
v -0.8 0.2 0.2
v -0.7 0.1 0.2
v -0.7 0.2 0.2
v -0.6 0.1 0.2
v -0.6 0.2 0.2
v -0.5 0.1 0.2
v -0.5 0.2 0.2
v -0.9 0 -0.6
v -0.9 0.3 -0.6
v -0.2 0 -0.6
v -0.2 0.1 -0.6
v -0.1 0.1 -0.6
v 0.9 0.1 -0.6
v 0.9 0.3 -0.6
v -0.9 0 0.5
v -0.9 0.3 0.5
v -0.2 0 0.5
v -0.2 0.1 0.5
v -0.1 0.1 0.5
v 0.9 0.1 0.5
v 0.9 0.3 0.5
v -0.9 0.1 -0.3
v -0.9 0.2 -0.3
v -0.8 0.1 -0.3
v -0.8 0.2 -0.3
v -0.7 0.1 -0.3
v -0.7 0.2 -0.3
v -0.6 0.1 -0.3
v -0.6 0.2 -0.3
v -0.5 0.1 -0.3
v -0.5 0.2 -0.3
v -1 0 -0.7
v -1 0.3 -0.7
v 1 0 -0.7
v 1 0.3 -0.7
v -1 0 0.6
v 1 0 0.6
v -0.9 0 0.5
v -0.2 0 0.5
v -0.1 0 0.5
v 0.9 0 0.5
v 0.6 0 0.1
v 0.9 0 0.1
v 0.6 0 -0.2
v 0.9 0 -0.2
v -0.9 0 -0.6
v -0.2 0 -0.6
v -0.1 0 -0.6
v 0.9 0 -0.6
v -1 0 -0.7
v 1 0 -0.7
v -0.9 0.1 0.2
v -0.8 0.1 0.2
v -0.7 0.1 0.2
v -0.6 0.1 0.2
v -0.5 0.1 0.2
v -0.9 0.1 0.1
v -0.8 0.1 0.1
v -0.7 0.1 0.1
v -0.6 0.1 0.1
v -0.5 0.1 0.1
v -0.9 0.1 0
v -0.8 0.1 0
v -0.7 0.1 0
v -0.6 0.1 0
v -0.5 0.1 0
v -0.9 0.1 -0.1
v -0.8 0.1 -0.1
v -0.7 0.1 -0.1
v -0.6 0.1 -0.1
v -0.5 0.1 -0.1
v -0.9 0.1 -0.2
v -0.8 0.1 -0.2
v -0.7 0.1 -0.2
v -0.6 0.1 -0.2
v -0.5 0.1 -0.2
v -0.9 0.1 -0.3
v -0.8 0.1 -0.3
v -0.7 0.1 -0.3
v -0.6 0.1 -0.3
v -0.5 0.1 -0.3
v -0.2 0.1 0.5
v -0.1 0.1 0.5
v 0.9 0.1 0.5
v 0.6 0.1 0.1
v 0.9 0.1 0.1
v 0.6 0.1 -0.2
v 0.9 0.1 -0.2
v -0.2 0.1 -0.6
v -0.1 0.1 -0.6
v 0.9 0.1 -0.6
v -0.9 0.2 0.2
v -0.8 0.2 0.2
v -0.7 0.2 0.2
v -0.6 0.2 0.2
v -0.5 0.2 0.2
v -0.9 0.2 0.1
v -0.8 0.2 0.1
v -0.7 0.2 0.1
v -0.6 0.2 0.1
v -0.5 0.2 0.1
v -0.9 0.2 0
v -0.8 0.2 0
v -0.7 0.2 0
v -0.6 0.2 0
v -0.5 0.2 0
v -0.9 0.2 -0.1
v -0.8 0.2 -0.1
v -0.7 0.2 -0.1
v -0.6 0.2 -0.1
v -0.5 0.2 -0.1
v -0.9 0.2 -0.2
v -0.8 0.2 -0.2
v -0.7 0.2 -0.2
v -0.6 0.2 -0.2
v -0.5 0.2 -0.2
v -0.9 0.2 -0.3
v -0.8 0.2 -0.3
v -0.7 0.2 -0.3
v -0.6 0.2 -0.3
v -0.5 0.2 -0.3
v -1 0.3 0.6
v 1 0.3 0.6
v -0.9 0.3 0.5
v 0.9 0.3 0.5
v -0.9 0.3 -0.6
v 0.9 0.3 -0.6
v -1 0.3 -0.7
v 1 0.3 -0.7

# faces
f 3/3/1 2/3/1 1/3/1
f 4/3/1 2/3/1 3/3/1
f 7/1/1 6/1/1 5/1/1
f 8/1/1 6/1/1 7/1/1
f 13/3/1 10/3/1 9/3/1
f 13/3/1 12/3/1 11/3/1
f 13/3/1 11/3/1 10/3/1
f 14/3/1 12/3/1 13/3/1
f 15/3/2 16/3/2 17/3/2
f 17/3/2 16/3/2 18/3/2
f 18/3/2 16/3/2 19/3/2
f 19/3/2 16/3/2 20/3/2
f 20/3/2 16/3/2 21/3/2
f 21/3/2 16/3/2 22/3/2
f 15/3/2 17/3/2 23/3/2
f 22/3/2 16/3/2 28/3/2
f 26/3/2 27/3/2 29/3/2
f 27/3/2 28/3/2 29/3/2
f 15/3/2 23/3/2 29/3/2
f 23/3/2 24/3/2 29/3/2
f 25/3/2 26/3/2 29/3/2
f 24/3/2 25/3/2 29/3/2
f 28/3/2 16/3/2 30/3/2
f 29/3/2 28/3/2 30/3/2
f 31/6/2 32/6/2 37/6/2
f 32/5/2 33/5/2 38/5/2
f 37/6/2 32/6/2 38/6/2
f 33/6/2 34/6/2 39/6/2
f 38/5/2 33/5/2 39/5/2
f 34/5/2 35/5/2 40/5/2
f 39/6/2 34/6/2 40/6/2
f 35/6/2 36/6/2 41/6/2
f 40/5/2 35/5/2 41/5/2
f 41/6/2 36/6/2 42/6/2
f 43/3/2 44/3/2 45/3/2
f 45/3/2 44/3/2 46/3/2
f 49/3/3 48/3/3 47/3/3
f 50/3/3 48/3/3 49/3/3
f 53/5/3 52/5/3 51/5/3
f 54/5/3 52/5/3 53/5/3
f 55/6/3 54/6/3 53/6/3
f 56/6/3 54/6/3 55/6/3
f 57/5/3 56/5/3 55/5/3
f 58/5/3 56/5/3 57/5/3
f 59/6/3 58/6/3 57/6/3
f 60/6/3 58/6/3 59/6/3
f 63/3/3 62/3/3 61/3/3
f 64/3/3 62/3/3 63/3/3
f 65/3/3 62/3/3 64/3/3
f 66/3/3 62/3/3 65/3/3
f 67/3/3 62/3/3 66/3/3
f 68/3/4 69/3/4 70/3/4
f 70/3/4 69/3/4 71/3/4
f 71/3/4 69/3/4 72/3/4
f 72/3/4 69/3/4 73/3/4
f 73/3/4 69/3/4 74/3/4
f 75/5/4 76/5/4 77/5/4
f 77/5/4 76/5/4 78/5/4
f 77/6/4 78/6/4 79/6/4
f 79/6/4 78/6/4 80/6/4
f 79/5/4 80/5/4 81/5/4
f 81/5/4 80/5/4 82/5/4
f 81/6/4 82/6/4 83/6/4
f 83/6/4 82/6/4 84/6/4
f 85/3/4 86/3/4 87/3/4
f 87/3/4 86/3/4 88/3/4
f 91/3/5 90/3/5 89/3/5
f 92/3/5 90/3/5 91/3/5
f 93/3/5 90/3/5 92/3/5
f 94/3/5 90/3/5 93/3/5
f 95/2/5 94/2/5 93/2/5
f 96/3/5 90/3/5 94/3/5
f 96/2/5 94/2/5 95/2/5
f 97/2/5 95/2/5 93/2/5
f 97/4/5 96/4/5 95/4/5
f 98/3/5 90/3/5 96/3/5
f 98/4/5 96/4/5 97/4/5
f 99/3/5 91/3/5 89/3/5
f 100/1/5 93/1/5 92/1/5
f 101/2/5 97/2/5 93/2/5
f 101/2/5 98/2/5 97/2/5
f 101/1/5 93/1/5 100/1/5
f 102/3/5 90/3/5 98/3/5
f 102/2/5 98/2/5 101/2/5
f 103/3/5 101/3/5 100/3/5
f 103/3/5 100/3/5 99/3/5
f 103/3/5 102/3/5 101/3/5
f 103/3/5 99/3/5 89/3/5
f 104/3/5 90/3/5 102/3/5
f 104/3/5 102/3/5 103/3/5
f 110/5/5 106/5/5 105/5/5
f 111/6/5 107/6/5 106/6/5
f 111/5/5 106/5/5 110/5/5
f 112/5/5 108/5/5 107/5/5
f 112/6/5 107/6/5 111/6/5
f 113/6/5 109/6/5 108/6/5
f 113/5/5 108/5/5 112/5/5
f 114/6/5 109/6/5 113/6/5
f 115/6/5 111/6/5 110/6/5
f 116/5/5 112/5/5 111/5/5
f 116/6/5 111/6/5 115/6/5
f 117/6/5 113/6/5 112/6/5
f 117/5/5 112/5/5 116/5/5
f 118/5/5 114/5/5 113/5/5
f 118/6/5 113/6/5 117/6/5
f 119/5/5 114/5/5 118/5/5
f 120/5/5 116/5/5 115/5/5
f 121/6/5 117/6/5 116/6/5
f 121/5/5 116/5/5 120/5/5
f 122/5/5 118/5/5 117/5/5
f 122/6/5 117/6/5 121/6/5
f 123/6/5 119/6/5 118/6/5
f 123/5/5 118/5/5 122/5/5
f 124/6/5 119/6/5 123/6/5
f 125/6/5 121/6/5 120/6/5
f 126/5/5 122/5/5 121/5/5
f 126/6/5 121/6/5 125/6/5
f 127/6/5 123/6/5 122/6/5
f 127/5/5 122/5/5 126/5/5
f 128/5/5 124/5/5 123/5/5
f 128/6/5 123/6/5 127/6/5
f 129/5/5 124/5/5 128/5/5
f 130/5/5 126/5/5 125/5/5
f 131/6/5 127/6/5 126/6/5
f 131/5/5 126/5/5 130/5/5
f 132/5/5 128/5/5 127/5/5
f 132/6/5 127/6/5 131/6/5
f 133/6/5 129/6/5 128/6/5
f 133/5/5 128/5/5 132/5/5
f 134/6/5 129/6/5 133/6/5
f 136/2/6 137/2/6 138/2/6
f 138/2/6 137/2/6 139/2/6
f 136/2/6 138/2/6 140/2/6
f 138/4/6 139/4/6 140/4/6
f 140/4/6 139/4/6 141/4/6
f 135/1/6 136/1/6 142/1/6
f 136/2/6 140/2/6 143/2/6
f 142/1/6 136/1/6 143/1/6
f 140/2/6 141/2/6 143/2/6
f 143/2/6 141/2/6 144/2/6
f 145/5/6 146/5/6 150/5/6
f 146/6/6 147/6/6 151/6/6
f 150/5/6 146/5/6 151/5/6
f 147/5/6 148/5/6 152/5/6
f 151/6/6 147/6/6 152/6/6
f 148/6/6 149/6/6 153/6/6
f 152/5/6 148/5/6 153/5/6
f 153/6/6 149/6/6 154/6/6
f 150/6/6 151/6/6 155/6/6
f 151/5/6 152/5/6 156/5/6
f 155/6/6 151/6/6 156/6/6
f 152/6/6 153/6/6 157/6/6
f 156/5/6 152/5/6 157/5/6
f 153/5/6 154/5/6 158/5/6
f 157/6/6 153/6/6 158/6/6
f 158/5/6 154/5/6 159/5/6
f 155/5/6 156/5/6 160/5/6
f 156/6/6 157/6/6 161/6/6
f 160/5/6 156/5/6 161/5/6
f 157/5/6 158/5/6 162/5/6
f 161/6/6 157/6/6 162/6/6
f 158/6/6 159/6/6 163/6/6
f 162/5/6 158/5/6 163/5/6
f 163/6/6 159/6/6 164/6/6
f 160/6/6 161/6/6 165/6/6
f 161/5/6 162/5/6 166/5/6
f 165/6/6 161/6/6 166/6/6
f 162/6/6 163/6/6 167/6/6
f 166/5/6 162/5/6 167/5/6
f 163/5/6 164/5/6 168/5/6
f 167/6/6 163/6/6 168/6/6
f 168/5/6 164/5/6 169/5/6
f 165/5/6 166/5/6 170/5/6
f 166/6/6 167/6/6 171/6/6
f 170/5/6 166/5/6 171/5/6
f 167/5/6 168/5/6 172/5/6
f 171/6/6 167/6/6 172/6/6
f 168/6/6 169/6/6 173/6/6
f 172/5/6 168/5/6 173/5/6
f 173/6/6 169/6/6 174/6/6
f 175/3/6 176/3/6 177/3/6
f 177/3/6 176/3/6 178/3/6
f 175/3/6 177/3/6 179/3/6
f 178/3/6 176/3/6 180/3/6
f 175/3/6 179/3/6 181/3/6
f 179/3/6 180/3/6 181/3/6
f 180/3/6 176/3/6 182/3/6
f 181/3/6 180/3/6 182/3/6
