# MagicaVoxel @ Ephtracy

# group
o 

# material
mtllib test1.mtl
usemtl palette

# normals
vn -1 0 0
vn 1 0 0
vn 0 0 1
vn 0 0 -1
vn 0 -1 0
vn 0 1 0

# texcoords
vt 0.873047 0.5
vt 0.884766 0.5
vt 0.962891 0.5
vt 0.994141 0.5

# verts
v -2 0 0.3
v -2 0 0.2
v -2 0 0.1
v -2 0 -2.98023e-08
v -2 0 -0.1
v -2 0 -0.2
v -2 0.1 0.3
v -2 0.1 0.2
v -2 0.1 0.1
v -2 0.1 -2.98023e-08
v -2 0.1 -0.1
v -2 0.1 -0.2
v 2 0 0.3
v 2 0 0.2
v 2 0 -0.1
v 2 0 -0.2
v 2 0.1 0.3
v 2 0.1 0.2
v 2 0.1 -0.1
v 2 0.1 -0.2
v -2 0 0.3
v -2 0.1 0.3
v -1.9 0 0.3
v -1.9 0.1 0.3
v -1.8 0 0.3
v -1.8 0.1 0.3
v -1.7 0 0.3
v -1.7 0.1 0.3
v -1.6 0 0.3
v -1.6 0.1 0.3
v 2 0 0.3
v 2 0.1 0.3
v -2 0 -0.2
v -2 0.1 -0.2
v -1.9 0 -0.2
v -1.9 0.1 -0.2
v -1.8 0 -0.2
v -1.8 0.1 -0.2
v -1.7 0 -0.2
v -1.7 0.1 -0.2
v -1.6 0 -0.2
v -1.6 0.1 -0.2
v 2 0 -0.2
v 2 0.1 -0.2
v -2 0 0.3
v -1.9 0 0.3
v -1.8 0 0.3
v -1.7 0 0.3
v -1.6 0 0.3
v 2 0 0.3
v -2 0 0.2
v -1.9 0 0.2
v -1.8 0 0.2
v -1.7 0 0.2
v -1.6 0 0.2
v 1.7 0 0.2
v 2 0 0.2
v -2 0 0.1
v -1.9 0 0.1
v -1.8 0 0.1
v -1.7 0 0.1
v -1.6 0 0.1
v -2 0 -2.98023e-08
v -1.9 0 -2.98023e-08
v -1.8 0 -2.98023e-08
v -1.7 0 -2.98023e-08
v -1.6 0 -2.98023e-08
v -2 0 -0.1
v -1.9 0 -0.1
v -1.8 0 -0.1
v -1.7 0 -0.1
v -1.6 0 -0.1
v 1.7 0 -0.1
v 2 0 -0.1
v -2 0 -0.2
v -1.9 0 -0.2
v -1.8 0 -0.2
v -1.7 0 -0.2
v -1.6 0 -0.2
v 2 0 -0.2
v -2 0.1 0.3
v -1.9 0.1 0.3
v -1.8 0.1 0.3
v -1.7 0.1 0.3
v -1.6 0.1 0.3
v 2 0.1 0.3
v -2 0.1 0.2
v -1.9 0.1 0.2
v -1.8 0.1 0.2
v -1.7 0.1 0.2
v -1.6 0.1 0.2
v 1.7 0.1 0.2
v 2 0.1 0.2
v -2 0.1 0.1
v -1.9 0.1 0.1
v -1.8 0.1 0.1
v -1.7 0.1 0.1
v -1.6 0.1 0.1
v -2 0.1 -2.98023e-08
v -1.9 0.1 -2.98023e-08
v -1.8 0.1 -2.98023e-08
v -1.7 0.1 -2.98023e-08
v -1.6 0.1 -2.98023e-08
v -2 0.1 -0.1
v -1.9 0.1 -0.1
v -1.8 0.1 -0.1
v -1.7 0.1 -0.1
v -1.6 0.1 -0.1
v 1.7 0.1 -0.1
v 2 0.1 -0.1
v -2 0.1 -0.2
v -1.9 0.1 -0.2
v -1.8 0.1 -0.2
v -1.7 0.1 -0.2
v -1.6 0.1 -0.2
v 2 0.1 -0.2

# faces
f 7/4/1 2/4/1 1/4/1
f 8/3/1 3/3/1 2/3/1
f 8/4/1 2/4/1 7/4/1
f 9/4/1 4/4/1 3/4/1
f 9/3/1 3/3/1 8/3/1
f 10/3/1 5/3/1 4/3/1
f 10/4/1 4/4/1 9/4/1
f 11/4/1 6/4/1 5/4/1
f 11/3/1 5/3/1 10/3/1
f 12/4/1 6/4/1 11/4/1
f 13/1/2 14/1/2 17/1/2
f 14/2/2 15/2/2 18/2/2
f 17/1/2 14/1/2 18/1/2
f 15/1/2 16/1/2 19/1/2
f 18/2/2 15/2/2 19/2/2
f 19/1/2 16/1/2 20/1/2
f 23/4/3 22/4/3 21/4/3
f 24/4/3 22/4/3 23/4/3
f 25/3/3 24/3/3 23/3/3
f 26/3/3 24/3/3 25/3/3
f 27/4/3 26/4/3 25/4/3
f 28/4/3 26/4/3 27/4/3
f 29/3/3 28/3/3 27/3/3
f 30/3/3 28/3/3 29/3/3
f 31/1/3 30/1/3 29/1/3
f 32/1/3 30/1/3 31/1/3
f 33/4/4 34/4/4 35/4/4
f 35/4/4 34/4/4 36/4/4
f 35/3/4 36/3/4 37/3/4
f 37/3/4 36/3/4 38/3/4
f 37/4/4 38/4/4 39/4/4
f 39/4/4 38/4/4 40/4/4
f 39/3/4 40/3/4 41/3/4
f 41/3/4 40/3/4 42/3/4
f 41/1/4 42/1/4 43/1/4
f 43/1/4 42/1/4 44/1/4
f 51/4/5 46/4/5 45/4/5
f 52/3/5 47/3/5 46/3/5
f 52/4/5 46/4/5 51/4/5
f 53/4/5 48/4/5 47/4/5
f 53/3/5 47/3/5 52/3/5
f 54/3/5 49/3/5 48/3/5
f 54/4/5 48/4/5 53/4/5
f 55/1/5 50/1/5 49/1/5
f 55/3/5 49/3/5 54/3/5
f 56/1/5 50/1/5 55/1/5
f 57/1/5 50/1/5 56/1/5
f 58/3/5 52/3/5 51/3/5
f 59/4/5 53/4/5 52/4/5
f 59/3/5 52/3/5 58/3/5
f 60/3/5 54/3/5 53/3/5
f 60/4/5 53/4/5 59/4/5
f 61/4/5 55/4/5 54/4/5
f 61/3/5 54/3/5 60/3/5
f 62/1/5 56/1/5 55/1/5
f 62/4/5 55/4/5 61/4/5
f 63/4/5 59/4/5 58/4/5
f 64/3/5 60/3/5 59/3/5
f 64/4/5 59/4/5 63/4/5
f 65/4/5 61/4/5 60/4/5
f 65/3/5 60/3/5 64/3/5
f 66/3/5 62/3/5 61/3/5
f 66/4/5 61/4/5 65/4/5
f 67/1/5 56/1/5 62/1/5
f 67/3/5 62/3/5 66/3/5
f 68/3/5 64/3/5 63/3/5
f 69/4/5 65/4/5 64/4/5
f 69/3/5 64/3/5 68/3/5
f 70/3/5 66/3/5 65/3/5
f 70/4/5 65/4/5 69/4/5
f 71/4/5 67/4/5 66/4/5
f 71/3/5 66/3/5 70/3/5
f 72/1/5 56/1/5 67/1/5
f 72/4/5 67/4/5 71/4/5
f 73/2/5 57/2/5 56/2/5
f 73/1/5 56/1/5 72/1/5
f 74/2/5 57/2/5 73/2/5
f 75/4/5 69/4/5 68/4/5
f 76/3/5 70/3/5 69/3/5
f 76/4/5 69/4/5 75/4/5
f 77/4/5 71/4/5 70/4/5
f 77/3/5 70/3/5 76/3/5
f 78/3/5 72/3/5 71/3/5
f 78/4/5 71/4/5 77/4/5
f 79/1/5 73/1/5 72/1/5
f 79/3/5 72/3/5 78/3/5
f 79/1/5 74/1/5 73/1/5
f 80/1/5 74/1/5 79/1/5
f 81/4/6 82/4/6 87/4/6
f 82/3/6 83/3/6 88/3/6
f 87/4/6 82/4/6 88/4/6
f 83/4/6 84/4/6 89/4/6
f 88/3/6 83/3/6 89/3/6
f 84/3/6 85/3/6 90/3/6
f 89/4/6 84/4/6 90/4/6
f 85/1/6 86/1/6 91/1/6
f 90/3/6 85/3/6 91/3/6
f 91/1/6 86/1/6 92/1/6
f 92/1/6 86/1/6 93/1/6
f 87/3/6 88/3/6 94/3/6
f 88/4/6 89/4/6 95/4/6
f 94/3/6 88/3/6 95/3/6
f 89/3/6 90/3/6 96/3/6
f 95/4/6 89/4/6 96/4/6
f 90/4/6 91/4/6 97/4/6
f 96/3/6 90/3/6 97/3/6
f 91/1/6 92/1/6 98/1/6
f 97/4/6 91/4/6 98/4/6
f 94/4/6 95/4/6 99/4/6
f 95/3/6 96/3/6 100/3/6
f 99/4/6 95/4/6 100/4/6
f 96/4/6 97/4/6 101/4/6
f 100/3/6 96/3/6 101/3/6
f 97/3/6 98/3/6 102/3/6
f 101/4/6 97/4/6 102/4/6
f 98/1/6 92/1/6 103/1/6
f 102/3/6 98/3/6 103/3/6
f 99/3/6 100/3/6 104/3/6
f 100/4/6 101/4/6 105/4/6
f 104/3/6 100/3/6 105/3/6
f 101/3/6 102/3/6 106/3/6
f 105/4/6 101/4/6 106/4/6
f 102/4/6 103/4/6 107/4/6
f 106/3/6 102/3/6 107/3/6
f 103/1/6 92/1/6 108/1/6
f 107/4/6 103/4/6 108/4/6
f 92/2/6 93/2/6 109/2/6
f 108/1/6 92/1/6 109/1/6
f 109/2/6 93/2/6 110/2/6
f 104/4/6 105/4/6 111/4/6
f 105/3/6 106/3/6 112/3/6
f 111/4/6 105/4/6 112/4/6
f 106/4/6 107/4/6 113/4/6
f 112/3/6 106/3/6 113/3/6
f 107/3/6 108/3/6 114/3/6
f 113/4/6 107/4/6 114/4/6
f 108/1/6 109/1/6 115/1/6
f 114/3/6 108/3/6 115/3/6
f 109/1/6 110/1/6 115/1/6
f 115/1/6 110/1/6 116/1/6
